if (_typeface_js && _typeface_js.loadFace) _typeface_js.loadFace({"glyphs":{"Ẩ":{"x_min":41.71875,"x_max":904.640625,"ha":951,"o":"m 698 1534 q 828 1411 828 1534 q 815 1343 828 1382 q 735 1275 801 1297 l 735 1216 l 675 1216 l 675 1289 q 751 1330 728 1299 q 766 1398 766 1349 q 684 1486 766 1486 q 578 1459 622 1486 l 578 1508 q 698 1534 624 1534 m 445 1289 l 503 1289 l 669 1109 l 615 1109 l 475 1224 l 334 1109 l 279 1109 l 445 1289 m 471 943 l 254 374 l 685 374 l 471 943 m 428 1012 l 517 1012 l 904 0 l 827 0 l 707 318 l 233 318 l 113 0 l 41 0 l 428 1012 "},"ᚑ":{"x_min":-13,"x_max":1003,"ha":990,"o":"m -13 426 l 312 426 l 312 740 l 374 740 l 374 426 l 615 426 l 615 740 l 678 740 l 678 426 l 1003 426 l 1003 370 l 678 370 l 678 56 l 615 56 l 615 370 l 374 370 l 374 56 l 312 56 l 312 370 l -13 370 l -13 426 "},"ǻ":{"x_min":114,"x_max":848.625,"ha":851,"o":"m 761 1425 l 848 1425 l 627 1170 l 571 1170 l 761 1425 m 461 429 q 244 375 310 429 q 178 218 178 321 q 232 76 178 118 q 362 34 287 34 q 567 154 504 34 q 630 382 630 275 l 630 429 l 461 429 m 694 433 l 694 0 l 632 0 l 632 206 q 493 13 579 55 q 357 -20 425 -20 q 179 40 244 -20 q 114 219 114 101 q 198 408 114 338 q 475 480 283 480 l 630 480 l 630 492 q 573 658 630 593 q 384 723 516 723 q 251 698 319 723 q 139 635 208 683 l 139 702 q 251 755 199 740 q 397 778 327 778 q 618 696 531 778 q 694 433 694 626 m 536 1033 q 506 1106 536 1076 q 433 1136 476 1136 q 359 1106 388 1136 q 330 1033 330 1076 q 359 959 330 989 q 433 930 388 930 q 506 959 476 930 q 536 1033 536 989 m 551 1151 q 600 1033 600 1103 q 551 914 600 963 q 433 866 502 866 q 314 914 363 866 q 266 1033 266 963 q 314 1151 266 1103 q 433 1200 363 1200 q 551 1151 502 1200 "},"ʉ":{"x_min":79,"x_max":813,"ha":879,"o":"m 79 372 l 79 425 l 157 425 l 157 760 l 219 760 l 219 425 l 668 425 l 668 760 l 731 760 l 731 425 l 813 425 l 813 372 l 731 372 l 731 0 l 668 0 l 668 142 q 581 36 635 74 q 403 -18 500 -18 q 224 58 291 -18 q 157 301 157 134 l 157 372 l 79 372 m 668 372 l 219 372 l 219 305 q 266 97 219 157 q 406 36 314 36 q 591 102 514 36 q 668 330 668 167 l 668 372 "},"ȋ":{"x_min":-16,"x_max":402,"ha":386,"o":"m 156 760 l 218 760 l 218 0 l 156 0 l 156 760 m 402 896 l 351 896 q 303 998 342 964 q 192 1034 263 1034 q 83 1000 122 1034 q 34 896 44 966 l -16 896 q 38 1042 -16 993 q 193 1091 92 1091 q 347 1042 293 1091 q 402 896 402 993 "},"︂":{"x_min":0,"x_max":0,"ha":0},"‥":{"x_min":197,"x_max":729,"ha":928,"o":"m 197 85 l 266 85 l 266 0 l 197 0 l 197 85 m 660 87 l 729 87 l 729 2 l 660 2 l 660 87 "},"Ổ":{"x_min":113,"x_max":980,"ha":1093,"o":"m 769 1533 q 899 1411 899 1533 q 886 1343 899 1382 q 806 1275 872 1298 l 806 1215 l 746 1215 l 746 1289 q 822 1330 799 1300 q 837 1398 837 1349 q 755 1485 837 1485 q 649 1458 693 1485 l 649 1507 q 769 1533 695 1533 m 517 1289 l 574 1289 l 740 1108 l 686 1108 l 546 1223 l 405 1109 l 351 1109 l 517 1289 m 811 851 q 547 978 713 978 q 282 851 381 978 q 185 505 185 724 q 282 160 185 287 q 547 34 381 34 q 811 160 713 34 q 908 505 908 287 q 811 851 908 724 m 547 1031 q 861 888 743 1031 q 980 505 980 745 q 861 123 980 265 q 547 -20 743 -20 q 231 122 349 -20 q 113 505 113 264 q 231 888 113 745 q 547 1031 349 1031 "},"ṑ":{"x_min":110,"x_max":739.390625,"ha":850,"o":"m 609 629 q 426 723 542 723 q 242 630 310 723 q 175 380 175 537 q 242 126 175 219 q 426 34 309 34 q 609 126 542 34 q 677 380 677 220 q 609 629 677 535 m 425 778 q 654 669 570 778 q 739 379 739 560 q 654 85 739 193 q 425 -23 570 -23 q 194 84 278 -23 q 110 379 110 192 q 194 670 110 562 q 425 778 279 778 "},"`":{"x_min":138.34375,"x_max":415.046875,"ha":694,"o":"m 223 1111 l 415 857 l 359 857 l 138 1111 l 223 1111 "},"ǆ":{"x_min":159,"x_max":1488,"ha":1604,"o":"m 895 760 l 1488 760 l 1488 687 l 938 53 l 1488 53 l 1488 0 l 878 0 l 878 69 l 1426 706 l 895 706 l 895 760 m 1213 856 l 1155 856 l 989 1111 l 1043 1111 l 1184 921 l 1325 1111 l 1379 1111 l 1213 856 m 710 585 l 710 1055 l 771 1055 l 771 0 l 710 0 l 710 172 q 617 36 667 73 q 472 -19 540 -19 q 248 89 337 -19 q 159 379 159 199 q 248 668 159 558 q 472 778 337 778 q 617 721 540 778 q 710 585 667 685 m 303 643 q 225 379 225 564 q 303 114 225 193 q 468 35 381 35 q 631 114 552 35 q 709 379 709 193 q 631 643 709 564 q 468 723 552 723 q 303 643 381 723 "},"Ⅲ":{"x_min":168,"x_max":787,"ha":958,"o":"m 168 1013 l 239 1013 l 239 0 l 168 0 l 168 1013 m 442 1013 l 513 1013 l 513 0 l 442 0 l 442 1013 m 716 1013 l 787 1013 l 787 0 l 716 0 l 716 1013 "},"Ḻ":{"x_min":170,"x_max":731.03125,"ha":774,"o":"m 241 -117 l 647 -117 l 647 -177 l 241 -177 l 241 -117 m 170 1013 l 238 1013 l 238 56 l 731 56 l 731 0 l 170 0 l 170 1013 "},"⁒":{"x_min":119.65625,"x_max":543.65625,"ha":624,"o":"m 471 1012 l 543 1012 l 191 -128 l 119 -128 l 471 1012 m 455 85 l 524 85 l 524 0 l 455 0 l 455 85 m 159 829 l 228 829 l 228 744 l 159 744 l 159 829 "},"ƃ":{"x_min":159,"x_max":771,"ha":882,"o":"m 298 643 q 220 379 220 564 q 298 114 220 193 q 461 35 377 35 q 626 114 548 35 q 705 379 705 194 q 626 643 705 563 q 461 723 548 723 q 298 643 377 723 m 159 1055 l 740 1055 l 740 1003 l 220 1003 l 220 586 q 312 721 262 685 q 457 778 389 778 q 681 668 592 778 q 771 379 771 558 q 681 89 771 199 q 457 -19 592 -19 q 312 36 389 -19 q 220 172 262 73 l 220 0 l 159 0 l 159 1055 "},"ἂ":{"x_min":111,"x_max":827,"ha":915,"o":"m 503 1111 l 694 857 l 639 857 l 418 1111 l 503 1111 m 333 950 q 207 829 333 829 l 207 883 q 266 949 266 883 l 266 990 l 209 990 l 209 1120 l 333 1120 l 333 950 m 595 353 l 561 531 q 387 724 524 724 q 233 639 288 724 q 173 381 173 543 q 232 120 173 203 q 387 34 292 34 q 548 204 493 34 l 595 353 m 392 777 q 637 475 602 777 l 732 760 l 797 760 l 658 348 l 686 199 q 728 77 702 107 q 784 54 748 54 l 827 54 l 827 0 l 774 0 q 667 55 707 0 q 616 225 647 82 q 513 35 590 116 q 392 -16 465 -16 q 182 85 250 -16 q 111 379 111 191 q 201 687 111 565 q 392 777 268 777 "},"ᾉ":{"x_min":40.96875,"x_max":903.703125,"ha":950,"o":"m 542 -289 l 501 -289 q 418 -164 418 -289 l 418 -62 l 469 -62 l 469 -173 q 521 -244 469 -244 l 542 -244 l 542 -289 m 102 950 q 102 1120 102 950 l 225 1120 l 225 990 l 168 990 l 168 949 q 227 883 168 883 l 227 829 q 102 950 102 829 m 471 944 l 253 374 l 684 374 l 471 944 m 427 1012 l 516 1012 l 903 0 l 826 0 l 705 318 l 232 318 l 112 0 l 40 0 l 427 1012 "},"ṟ":{"x_min":57,"x_max":569.921875,"ha":571,"o":"m 57 -117 l 463 -117 l 463 -177 l 57 -177 l 57 -117 m 569 706 q 529 719 555 713 q 470 723 506 723 q 279 637 355 723 q 220 400 220 568 l 220 0 l 159 0 l 159 760 l 220 760 l 220 617 q 305 720 250 678 q 484 778 381 778 q 530 776 511 778 q 569 771 550 776 l 569 706 "},"Ԓ":{"x_min":70.90625,"x_max":873,"ha":1045,"o":"m 70 -19 l 70 40 q 259 239 193 72 q 339 821 339 437 l 339 1012 l 873 1012 l 873 28 q 828 -213 873 -138 q 683 -289 783 -289 l 616 -289 l 616 -233 l 674 -233 q 774 -176 744 -233 q 804 28 804 -121 l 804 956 l 407 956 l 407 753 q 325 218 407 420 q 70 -19 245 19 "},"ў":{"x_min":74.734375,"x_max":747.5,"ha":822,"o":"m 202 1055 l 252 1055 q 300 952 261 986 q 411 918 340 918 q 519 951 480 918 q 569 1055 558 985 l 620 1055 q 565 908 620 957 q 411 860 511 860 q 256 908 310 860 q 202 1055 202 957 m 413 -71 q 326 -210 373 -172 q 202 -263 263 -263 l 110 -263 l 110 -210 l 189 -210 q 275 -178 238 -210 q 355 -56 324 -136 l 377 0 l 74 759 l 141 759 l 411 82 l 681 759 l 747 759 l 413 -71 "},"Ꙫ":{"x_min":78,"x_max":1110,"ha":1188,"o":"m 416 544 l 487 544 l 487 459 l 416 459 l 416 544 m 701 544 l 772 544 l 772 459 l 701 459 l 701 544 m 270 159 q 594 33 390 33 q 917 159 797 33 q 1038 505 1038 286 q 917 851 1038 724 q 594 978 797 978 q 270 851 390 978 q 150 505 150 724 q 270 159 150 286 m 969 122 q 594 -20 828 -20 q 218 122 359 -20 q 78 505 78 264 q 218 888 78 745 q 594 1031 359 1031 q 969 888 828 1031 q 1110 505 1110 745 q 969 122 1110 264 "},"ţ":{"x_min":69,"x_max":480,"ha":544,"o":"m 371 0 q 424 -76 406 -41 q 441 -142 441 -110 q 403 -232 441 -201 q 289 -262 364 -262 q 232 -257 259 -262 q 176 -246 204 -253 l 176 -183 q 228 -202 201 -196 q 290 -208 255 -208 q 355 -189 333 -208 q 378 -135 378 -171 q 361 -80 378 -112 q 313 0 346 -46 l 371 0 m 223 975 l 223 760 l 480 760 l 480 707 l 223 707 l 223 250 q 245 128 223 163 q 380 52 291 52 l 480 52 l 480 0 l 383 0 q 225 54 290 0 q 160 250 160 108 l 160 707 l 69 707 l 69 760 l 160 760 l 160 975 l 223 975 "},"ꙥ":{"x_min":65.453125,"x_max":1146.46875,"ha":1201,"o":"m 65 -19 l 65 35 q 227 149 186 56 q 294 616 294 304 l 294 760 l 1146 760 l 1146 706 l 747 706 l 747 0 l 685 0 l 684 0 l 684 709 l 356 709 l 356 565 q 290 140 356 316 q 65 -19 237 0 "},"⇆":{"x_min":68,"x_max":1096,"ha":1164,"o":"m 79 673 l 979 673 l 781 871 l 829 919 l 1096 652 l 1096 625 l 829 358 l 781 407 l 979 605 l 79 605 l 79 673 m 1085 198 l 184 198 l 382 0 l 334 -48 l 68 218 l 68 245 l 334 512 l 382 463 l 184 266 l 1085 266 l 1085 198 "},"ϼ":{"x_min":58,"x_max":770,"ha":882,"o":"m 642 125 q 708 378 708 217 q 642 631 708 539 q 463 723 577 723 q 285 631 350 723 q 220 378 220 539 q 285 125 220 217 q 463 34 350 34 q 642 125 577 34 m 213 624 q 328 743 259 707 q 494 778 395 778 q 693 668 617 778 q 770 379 770 558 q 693 89 770 199 q 494 -20 617 -20 q 332 26 400 -20 q 220 167 264 72 l 220 -130 l 581 -130 l 581 -180 l 220 -180 l 220 -289 l 157 -289 l 157 -180 l 58 -180 l 58 -130 l 157 -130 l 157 372 q 213 624 157 521 "},"‪":{"x_min":0,"x_max":0,"ha":0},"":{"x_min":271,"x_max":677,"ha":950,"o":"m 539 1243 l 601 1243 l 601 1161 l 539 1161 l 539 1243 m 347 1243 l 411 1243 l 411 1161 l 347 1161 l 347 1243 m 271 1426 l 677 1426 l 677 1366 l 271 1366 l 271 1426 "},"í":{"x_min":97.671875,"x_max":374.359375,"ha":386,"o":"m 287 1111 l 374 1111 l 153 856 l 97 856 l 287 1111 m 156 760 l 218 760 l 218 0 l 156 0 l 156 760 "},"ņ":{"x_min":157,"x_max":731,"ha":880,"o":"m 429 -110 l 501 -110 l 408 -326 l 364 -326 l 429 -110 m 731 458 l 731 0 l 668 0 l 668 454 q 621 662 668 602 q 481 723 573 723 q 296 657 373 723 q 219 429 219 592 l 219 0 l 157 0 l 157 760 l 219 760 l 219 617 q 306 723 252 686 q 484 778 386 778 q 663 701 596 778 q 731 458 731 625 "},"ǜ":{"x_min":157,"x_max":731,"ha":880,"o":"m 306 1388 l 498 1135 l 442 1135 l 221 1388 l 306 1388 m 157 301 l 157 760 l 219 760 l 219 305 q 266 97 219 157 q 406 36 314 36 q 591 102 514 36 q 668 330 668 167 l 668 760 l 731 760 l 731 0 l 668 0 l 668 142 q 581 36 635 73 q 403 -18 501 -18 q 224 58 291 -18 q 157 301 157 134 m 494 1053 l 558 1053 l 558 972 l 494 972 l 494 1053 m 304 1053 l 366 1053 l 366 972 l 304 972 l 304 1053 "},"Ⅽ":{"x_min":115,"x_max":894,"ha":969,"o":"m 894 928 l 894 850 q 746 943 824 913 q 580 975 668 975 q 287 854 388 975 q 186 505 186 733 q 287 155 186 276 q 580 34 388 34 q 746 65 668 34 q 894 160 824 97 l 894 78 q 741 4 822 29 q 571 -20 661 -20 q 237 120 359 -20 q 115 505 115 261 q 237 889 115 749 q 571 1031 359 1031 q 742 1005 662 1031 q 894 928 823 979 "},"ỳ":{"x_min":74.734375,"x_max":747.484375,"ha":822,"o":"m 246 1115 l 437 861 l 381 861 l 160 1115 l 246 1115 m 413 -70 q 326 -209 373 -171 q 202 -262 263 -262 l 110 -262 l 110 -209 l 189 -209 q 276 -177 238 -209 q 355 -55 324 -135 l 377 0 l 74 760 l 141 760 l 411 83 l 681 760 l 747 760 l 413 -70 "},"Ҫ":{"x_min":115,"x_max":894,"ha":969,"o":"m 596 0 q 649 -76 631 -41 q 666 -142 666 -110 q 628 -232 666 -201 q 514 -262 589 -262 q 457 -257 484 -262 q 401 -246 429 -253 l 401 -183 q 453 -202 426 -196 q 515 -208 480 -208 q 580 -189 558 -208 q 603 -136 603 -171 q 586 -80 603 -112 q 538 0 571 -47 l 596 0 m 894 928 l 894 850 q 746 943 824 913 q 580 975 668 975 q 287 854 388 975 q 186 505 186 733 q 287 155 186 276 q 580 33 388 33 q 746 65 668 33 q 894 160 824 96 l 894 78 q 741 4 822 29 q 571 -20 661 -20 q 237 120 359 -20 q 115 505 115 261 q 237 889 115 749 q 572 1031 359 1031 q 743 1005 663 1031 q 894 928 823 979 "},"Ύ":{"x_min":-21.1875,"x_max":1105.0625,"ha":1146,"o":"m 168 1111 l 255 1111 l 34 856 l -21 856 l 168 1111 m 319 1013 l 398 1013 l 714 546 l 1027 1013 l 1105 1013 l 747 482 l 747 0 l 678 0 l 678 482 l 319 1013 "},"Ḟ":{"x_min":170,"x_max":682.890625,"ha":799,"o":"m 170 1013 l 682 1013 l 682 957 l 238 957 l 238 567 l 639 567 l 639 513 l 238 513 l 238 0 l 170 0 l 170 1013 m 396 1217 l 459 1217 l 459 1130 l 396 1130 l 396 1217 "},"ѕ":{"x_min":104,"x_max":621,"ha":723,"o":"m 586 737 l 586 669 q 504 709 520 705 q 386 722 456 722 q 218 680 279 722 q 171 559 171 645 q 215 469 171 502 q 349 415 262 434 l 391 405 q 555 338 499 382 q 621 209 621 289 q 559 40 621 101 q 340 -20 491 -20 q 213 -8 256 -20 q 104 27 161 6 l 104 105 q 210 51 186 58 q 343 34 277 34 q 505 79 453 34 q 558 200 558 125 q 523 291 558 262 q 361 357 472 331 l 317 367 q 172 430 222 390 q 109 554 109 481 q 184 725 109 673 q 371 778 260 778 q 501 767 465 778 q 586 737 545 755 "},"Ш":{"x_min":170,"x_max":1314,"ha":1484,"o":"m 170 0 l 170 1012 l 239 1012 l 239 54 l 708 54 l 708 1012 l 777 1012 l 777 54 l 1246 54 l 1246 1012 l 1314 1012 l 1314 0 l 170 0 "},"Ḏ":{"x_min":169,"x_max":954,"ha":1070,"o":"m 302 -117 l 708 -117 l 708 -177 l 302 -177 l 302 -117 m 238 955 l 238 54 l 438 54 q 774 163 668 54 q 882 505 882 272 q 774 847 882 738 q 438 955 668 955 l 238 955 m 169 1013 l 418 1013 q 824 890 694 1013 q 954 507 954 768 q 823 122 954 245 q 418 0 693 0 l 169 0 l 169 1013 "},"Ψ":{"x_min":115,"x_max":981,"ha":1094,"o":"m 514 1013 l 585 1013 l 585 298 q 825 398 748 298 q 912 762 912 511 l 912 1013 l 981 1013 l 981 730 q 871 357 981 483 q 585 242 771 242 l 585 0 l 514 0 l 514 242 q 224 358 325 242 q 115 731 115 484 l 115 1013 l 184 1013 l 184 762 q 270 398 184 511 q 514 297 348 297 l 514 1013 "},"Ἴ":{"x_min":18,"x_max":621,"ha":792,"o":"m 368 1111 l 455 1111 l 234 856 l 178 856 l 368 1111 m 144 950 q 18 829 144 829 l 18 883 q 77 949 77 883 l 77 990 l 20 990 l 20 1120 l 144 1120 l 144 950 m 550 1013 l 621 1013 l 621 0 l 550 0 l 550 1013 "},"ŭ":{"x_min":157,"x_max":731,"ha":880,"o":"m 227 1091 l 277 1091 q 325 988 286 1022 q 436 954 365 954 q 544 987 505 954 q 594 1091 583 1021 l 645 1091 q 590 944 645 993 q 436 896 536 896 q 281 944 335 896 q 227 1091 227 993 m 157 301 l 157 760 l 219 760 l 219 305 q 266 97 219 157 q 406 36 314 36 q 591 102 514 36 q 668 330 668 167 l 668 760 l 731 760 l 731 0 l 668 0 l 668 142 q 581 36 635 73 q 404 -18 501 -18 q 224 58 291 -18 q 157 301 157 134 "},"―":{"x_min":0,"x_max":1389,"ha":1389,"o":"m 0 409 l 1389 409 l 1389 353 l 0 353 l 0 409 "},"{":{"x_min":235,"x_max":599,"ha":884,"o":"m 599 -169 l 599 -227 l 571 -227 q 434 -177 472 -227 q 396 22 396 -126 l 396 194 q 349 359 396 310 q 285 384 326 384 l 235 384 l 235 444 l 285 444 q 349 468 313 444 q 396 632 396 500 l 396 804 q 434 1004 396 954 q 571 1055 472 1055 l 599 1055 l 599 997 l 568 997 q 484 965 503 997 q 465 830 465 933 l 465 633 q 444 479 465 527 q 373 414 423 431 q 444 347 423 395 q 465 193 465 299 l 465 -2 q 484 -137 465 -105 q 568 -169 503 -169 l 599 -169 "},"ɭ":{"x_min":159,"x_max":377,"ha":538,"o":"m 220 1055 l 220 -98 q 236 -205 220 -178 q 314 -237 255 -237 l 377 -237 l 377 -289 l 303 -289 q 189 -242 219 -289 q 159 -96 159 -196 l 159 1055 l 220 1055 "},"Ĳ":{"x_min":168,"x_max":647,"ha":819,"o":"m 579 1013 l 647 1013 l 647 70 q 602 -171 647 -96 q 458 -247 557 -247 l 417 -247 l 417 -191 l 450 -191 q 549 -133 520 -191 q 579 70 579 -76 l 579 1013 m 168 1013 l 239 1013 l 239 0 l 168 0 l 168 1013 "},"⁍":{"x_min":206,"x_max":548,"ha":695,"o":"m 265 305 l 206 305 l 206 707 l 265 707 l 265 305 m 345 707 q 489 648 430 707 q 548 506 548 590 q 489 363 548 421 q 346 305 431 305 l 345 305 l 345 707 "},"ǭ":{"x_min":110,"x_max":739.390625,"ha":850,"o":"m 222 1035 l 628 1035 l 628 975 l 222 975 l 222 1035 m 397 -11 l 455 -11 q 407 -91 422 -57 q 391 -146 391 -123 q 413 -200 391 -182 q 478 -219 435 -219 q 540 -213 513 -219 q 592 -194 567 -207 l 592 -257 q 536 -268 564 -264 q 479 -273 509 -273 q 365 -243 404 -273 q 328 -153 328 -212 q 344 -87 328 -121 q 397 -11 362 -52 m 609 629 q 426 723 542 723 q 242 630 310 723 q 175 380 175 537 q 242 126 175 218 q 426 33 309 33 q 609 126 542 33 q 677 380 677 220 q 609 629 677 535 m 425 778 q 654 669 570 778 q 739 379 739 560 q 654 85 739 193 q 425 -23 570 -23 q 194 84 278 -23 q 110 379 110 192 q 194 670 110 562 q 425 778 279 778 "},"ἣ":{"x_min":157,"x_max":731,"ha":880,"o":"m 474 1111 l 665 857 l 610 857 l 389 1111 l 474 1111 m 182 950 q 182 1120 182 950 l 305 1120 l 305 990 l 248 990 l 248 949 q 307 883 248 883 l 307 829 q 182 950 182 829 m 731 458 l 731 -289 l 668 -289 l 668 454 q 621 662 668 602 q 481 723 573 723 q 296 657 373 723 q 219 429 219 592 l 219 0 l 157 0 l 157 760 l 219 760 l 219 617 q 307 723 252 686 q 484 778 387 778 q 663 701 596 778 q 731 458 731 625 "},"ᾨ":{"x_min":18,"x_max":1035,"ha":1114,"o":"m 652 -289 l 611 -289 q 528 -164 528 -289 l 528 -62 l 579 -62 l 579 -173 q 631 -244 579 -244 l 652 -244 l 652 -289 m 144 950 q 18 829 144 829 l 18 883 q 77 949 77 883 l 77 990 l 20 990 l 20 1120 l 144 1120 l 144 950 m 152 552 q 272 898 152 762 q 582 1033 392 1033 q 893 898 773 1033 q 1014 552 1014 763 q 952 283 1014 399 q 752 57 891 167 l 1035 57 l 1035 0 l 642 0 l 642 54 q 862 261 783 130 q 942 549 942 391 q 843 861 942 744 q 582 979 744 979 q 322 861 421 979 q 223 549 223 743 q 302 261 223 394 q 529 54 379 130 l 529 0 l 132 0 l 132 57 l 418 57 q 212 283 276 162 q 152 552 152 399 "},"ẚ":{"x_min":114,"x_max":934,"ha":851,"o":"m 748 683 q 748 766 748 724 q 821 795 791 766 q 851 869 851 825 q 821 942 851 912 q 748 972 791 972 q 748 1055 748 1013 q 880 1000 826 1055 q 934 869 934 947 q 880 737 934 791 q 748 683 826 683 m 461 429 q 244 375 310 429 q 178 218 178 321 q 232 76 178 118 q 363 34 287 34 q 567 154 505 34 q 630 382 630 275 l 630 429 l 461 429 m 694 433 l 694 0 l 632 0 l 632 206 q 493 13 579 55 q 357 -20 425 -20 q 179 40 244 -20 q 114 219 114 101 q 198 408 114 338 q 476 480 283 480 l 630 480 l 630 492 q 573 658 630 593 q 384 723 516 723 q 251 698 319 723 q 139 635 208 683 l 139 702 q 251 755 199 739 q 397 778 327 778 q 618 696 531 778 q 694 433 694 626 "},"Я":{"x_min":117.09375,"x_max":794,"ha":966,"o":"m 242 736 q 297 570 242 626 q 481 514 353 514 l 726 514 l 726 957 l 481 957 q 297 901 353 957 q 242 736 242 845 m 117 0 l 388 464 q 223 554 276 476 q 170 736 170 631 q 246 940 170 867 q 498 1013 323 1013 l 794 1013 l 794 0 l 726 0 l 726 458 l 467 458 l 200 0 l 117 0 "},"Ɲ":{"x_min":7,"x_max":827,"ha":1039,"o":"m 165 11 l 165 1013 l 166 1013 l 236 1013 l 268 1013 l 759 86 l 759 1013 l 827 1013 l 827 0 l 730 0 l 233 932 l 233 0 q 195 -171 233 -113 q 49 -247 147 -247 l 7 -247 l 7 -191 l 40 -191 q 141 -133 110 -191 q 165 11 165 -89 "},"ὤ":{"x_min":123,"x_max":1021,"ha":1163,"o":"m 770 1111 l 857 1111 l 636 856 l 580 856 l 770 1111 m 546 950 q 420 829 546 829 l 420 883 q 479 949 479 883 l 479 990 l 422 990 l 422 1120 l 546 1120 l 546 950 m 372 -20 q 123 383 123 -20 q 204 759 123 692 l 292 759 q 189 379 189 724 q 380 34 189 34 q 545 451 545 34 l 598 451 q 762 34 598 34 q 955 379 955 34 q 851 759 955 724 l 939 759 q 1021 383 1021 692 q 768 -20 1021 -20 q 570 183 610 -20 q 372 -20 533 -20 "},"ᴔ":{"x_min":110,"x_max":1316,"ha":1420,"o":"m 173 330 q 244 96 173 172 q 408 31 307 31 q 598 99 522 31 q 683 330 669 162 l 173 330 m 110 343 l 110 383 l 686 383 q 614 639 686 566 q 381 721 536 721 q 273 703 340 721 q 139 650 205 685 l 139 716 q 276 759 206 744 q 388 775 347 775 q 652 679 562 775 q 718 573 694 635 q 771 670 738 627 q 1000 779 856 779 q 1231 670 1147 779 q 1316 375 1316 563 q 1231 84 1316 192 q 1000 -23 1146 -23 q 771 85 855 -23 q 718 181 738 128 q 660 81 696 122 q 410 -23 570 -23 q 185 75 259 -23 q 110 343 110 175 m 1000 33 q 1183 125 1115 33 q 1251 374 1251 218 q 1183 628 1251 536 q 999 722 1116 722 q 816 628 883 722 q 749 379 749 536 q 749 374 749 376 q 816 126 749 220 q 1000 33 884 33 "},"Ȓ":{"x_min":171,"x_max":890.3125,"ha":965,"o":"m 222 1088 q 282 1210 228 1169 q 434 1252 336 1252 q 585 1209 530 1252 q 646 1088 639 1168 l 585 1088 q 535 1168 573 1142 q 434 1195 497 1195 q 331 1166 369 1195 q 282 1088 291 1138 l 222 1088 m 587 474 q 669 411 629 460 q 748 276 697 375 l 890 0 l 817 0 l 673 278 q 565 422 616 387 q 422 458 512 458 l 239 458 l 239 0 l 171 0 l 171 1013 l 445 1013 q 677 940 600 1013 q 754 721 754 867 q 713 562 754 626 q 587 474 675 499 m 239 957 l 239 514 l 462 514 q 626 570 570 514 q 682 736 682 626 q 626 901 682 845 q 462 957 570 957 l 239 957 "},"k":{"x_min":220,"x_max":759.078125,"ha":804,"o":"m 220 1055 l 283 1055 l 283 414 l 660 760 l 746 760 l 353 401 l 759 0 l 678 0 l 283 389 l 283 0 l 220 0 l 220 1055 "},"Ά":{"x_min":41.375,"x_max":904,"ha":962,"o":"m 242 1110 l 328 1110 l 107 856 l 52 856 l 242 1110 m 471 943 l 254 374 l 684 374 l 471 943 m 427 1012 l 516 1012 l 904 0 l 826 0 l 705 318 l 233 318 l 113 0 l 41 0 l 427 1012 "},"ȇ":{"x_min":110,"x_max":749,"ha":854,"o":"m 749 411 l 749 372 l 173 372 q 244 115 173 188 q 478 34 323 34 q 586 51 519 34 q 720 104 654 69 l 720 38 q 582 -4 652 10 q 470 -20 511 -20 q 206 75 295 -20 q 110 371 110 176 q 198 674 110 574 q 449 778 288 778 q 674 679 598 778 q 749 411 749 576 m 686 425 q 615 658 686 584 q 450 723 554 723 q 260 655 337 723 q 175 425 190 592 l 686 425 m 666 896 l 615 896 q 567 998 606 964 q 457 1034 527 1034 q 348 1000 387 1034 q 298 896 309 966 l 248 896 q 302 1042 248 993 q 457 1091 356 1091 q 611 1042 557 1091 q 666 896 666 993 "},"ί":{"x_min":125.78125,"x_max":402.09375,"ha":470,"o":"m 315 1111 l 402 1111 l 181 856 l 125 856 l 315 1111 m 220 760 l 220 190 q 236 83 220 111 q 314 52 255 52 l 377 52 l 377 0 l 303 0 q 189 46 219 0 q 159 192 159 92 l 159 760 l 220 760 "},"Ù":{"x_min":155,"x_max":861,"ha":1016,"o":"m 155 1012 l 223 1012 l 223 397 q 290 120 223 204 q 508 36 357 36 q 725 120 658 36 q 793 397 793 204 l 793 1012 l 861 1012 l 861 380 q 771 81 861 182 q 508 -20 682 -20 q 244 81 333 -20 q 155 380 155 182 l 155 1012 m 445 1288 l 578 1109 l 523 1109 l 368 1288 l 445 1288 "},"ὓ":{"x_min":128,"x_max":691,"ha":803,"o":"m 420 1111 l 612 857 l 556 857 l 335 1111 l 420 1111 m 128 949 q 128 1120 128 949 l 251 1120 l 251 990 l 194 990 l 194 949 q 253 882 194 882 l 253 828 q 128 949 128 828 m 196 759 l 196 270 q 239 95 196 148 q 375 51 275 51 q 576 192 505 51 q 625 434 625 289 q 608 590 625 507 q 515 759 591 670 l 593 759 q 664 615 637 698 q 691 432 691 537 q 611 142 691 280 q 357 -1 529 -1 q 192 64 240 -1 q 133 274 133 144 l 133 759 l 196 759 "},"⁯":{"x_min":0,"x_max":0,"ha":0},"ᚌ":{"x_min":-13,"x_max":1012,"ha":999,"o":"m -13 426 l 320 426 l 489 968 l 556 968 l 387 426 l 626 426 l 795 968 l 862 968 l 693 426 l 1012 426 l 1012 370 l 676 370 l 510 -173 l 442 -173 l 608 370 l 370 370 l 204 -173 l 136 -173 l 302 370 l -13 370 l -13 426 "},"В":{"x_min":171,"x_max":815,"ha":909,"o":"m 239 504 l 239 54 l 493 54 q 684 110 622 54 q 747 279 747 165 q 684 449 747 394 q 493 504 622 504 l 239 504 m 239 957 l 239 560 l 476 560 q 650 608 593 560 q 707 759 707 657 q 650 907 707 859 q 476 957 593 957 l 239 957 m 171 1013 l 486 1013 q 700 947 625 1013 q 776 762 776 882 q 737 614 776 663 q 634 540 694 560 q 765 455 721 516 q 815 283 815 386 q 732 73 815 147 q 499 0 650 0 l 171 0 l 171 1013 "},"ᚘ":{"x_min":-13,"x_max":1687,"ha":1674,"o":"m -13 426 l 1687 426 l 1687 370 l 1435 370 l 1058 13 l 1424 -334 l 1337 -334 l 1015 -28 l 880 -155 l 1069 -334 l 981 -334 l 837 -197 l 692 -334 l 604 -334 l 793 -155 l 659 -28 l 336 -334 l 249 -334 l 615 13 l 238 370 l -13 370 l -13 426 m 326 370 l 659 54 l 793 181 l 593 370 l 326 370 m 682 370 l 836 222 l 991 370 l 682 370 m 703 13 l 837 -113 l 970 13 l 837 139 l 703 13 m 880 181 l 1015 54 l 1347 370 l 1080 370 l 880 181 "},"ꜟ":{"x_min":155,"x_max":196,"ha":351,"o":"m 196 518 l 155 518 l 155 567 l 196 567 l 196 518 m 192 0 l 159 0 l 159 249 l 159 385 l 192 385 l 192 249 l 192 0 "},"ᾗ":{"x_min":157,"x_max":731.390625,"ha":881,"o":"m 281 -289 l 240 -289 q 157 -164 157 -289 l 157 -62 l 208 -62 l 208 -173 q 260 -244 208 -244 l 281 -244 l 281 -289 m 436 1221 l 397 1258 q 371 1278 388 1267 q 351 1285 360 1285 q 313 1260 325 1285 q 301 1180 301 1235 l 236 1180 q 265 1299 236 1257 q 347 1342 295 1342 q 394 1332 373 1342 q 441 1300 420 1321 l 480 1263 q 506 1243 489 1254 q 526 1237 517 1237 q 565 1261 552 1237 q 577 1342 577 1286 l 640 1342 q 610 1225 640 1270 q 530 1180 582 1180 q 483 1189 504 1180 q 436 1221 457 1200 m 377 950 q 377 1120 377 950 l 500 1120 l 500 990 l 443 990 l 443 949 q 502 883 443 883 l 502 829 q 377 950 377 829 m 731 458 l 731 -289 l 669 -289 l 669 454 q 621 662 669 602 q 481 723 574 723 q 297 657 373 723 q 220 429 220 592 l 220 0 l 157 0 l 157 760 l 220 760 l 220 617 q 307 723 253 686 q 484 778 387 778 q 664 701 597 778 q 731 458 731 625 "},"Ẹ":{"x_min":169,"x_max":753.421875,"ha":878,"o":"m 423 -167 l 486 -167 l 486 -256 l 423 -256 l 423 -167 m 169 1013 l 741 1013 l 741 957 l 238 957 l 238 567 l 720 567 l 720 513 l 238 513 l 238 54 l 753 54 l 753 0 l 169 0 l 169 1013 "},"ṱ":{"x_min":69,"x_max":526.125,"ha":544,"o":"m 223 975 l 223 760 l 480 760 l 480 707 l 223 707 l 223 250 q 245 128 223 163 q 379 53 291 53 l 480 53 l 480 0 l 383 0 q 225 54 290 0 q 160 250 160 108 l 160 707 l 69 707 l 69 760 l 160 760 l 160 975 l 223 975 m 303 -79 l 360 -79 l 526 -333 l 472 -333 l 332 -144 l 191 -333 l 136 -333 l 303 -79 "},"β":{"x_min":161,"x_max":753,"ha":886,"o":"m 223 77 l 223 -287 l 161 -287 l 161 753 q 441 1055 161 1055 q 685 803 685 1055 q 538 533 685 616 q 753 260 753 478 q 458 -20 753 -20 q 223 77 288 -20 m 223 192 q 456 34 285 34 q 691 261 691 34 q 345 497 691 497 l 345 549 q 621 801 621 549 q 433 1003 621 1003 q 223 750 223 1003 l 223 192 "},"Ό":{"x_min":-9.875,"x_max":1007,"ha":1128,"o":"m 180 1111 l 266 1111 l 45 856 l -9 856 l 180 1111 m 838 851 q 574 978 740 978 q 309 851 408 978 q 212 505 212 724 q 309 160 212 287 q 574 34 408 34 q 838 160 740 34 q 935 505 935 287 q 838 851 935 724 m 574 1031 q 888 888 770 1031 q 1007 505 1007 745 q 888 123 1007 265 q 574 -20 770 -20 q 258 122 376 -20 q 140 505 140 264 q 258 888 140 745 q 574 1031 376 1031 "},"ƀ":{"x_min":98,"x_max":772,"ha":883,"o":"m 299 643 q 221 379 221 564 q 299 114 221 193 q 462 35 377 35 q 627 114 549 35 q 706 379 706 194 q 627 643 706 563 q 462 723 549 723 q 299 643 377 723 m 220 586 q 313 721 262 685 q 457 778 389 778 q 682 668 592 778 q 772 379 772 558 q 682 89 772 199 q 457 -19 592 -19 q 313 36 389 -19 q 220 172 262 73 l 220 0 l 159 0 l 159 904 l 98 904 l 98 956 l 159 956 l 159 1055 l 220 1055 l 220 956 l 516 956 l 516 904 l 220 904 l 220 586 "},"Ĥ":{"x_min":169,"x_max":873,"ha":1045,"o":"m 493 1289 l 551 1289 l 716 1109 l 663 1109 l 522 1223 l 381 1109 l 327 1109 l 493 1289 m 169 1013 l 238 1013 l 238 567 l 804 567 l 804 1013 l 873 1013 l 873 0 l 804 0 l 804 513 l 238 513 l 238 0 l 169 0 l 169 1013 "},"U":{"x_min":155,"x_max":861,"ha":1016,"o":"m 155 1012 l 223 1012 l 223 397 q 290 120 223 204 q 508 36 357 36 q 725 120 658 36 q 793 397 793 204 l 793 1012 l 861 1012 l 861 380 q 771 81 861 182 q 508 -20 682 -20 q 244 81 333 -20 q 155 380 155 182 l 155 1012 "},"ɼ":{"x_min":159,"x_max":569.921875,"ha":571,"o":"m 569 706 q 529 718 552 714 q 470 723 506 723 q 279 637 353 723 q 220 400 220 568 l 220 -288 l 159 -288 l 159 759 l 220 759 l 220 617 q 305 720 250 678 q 484 776 381 776 q 530 776 490 776 q 569 771 556 776 l 569 706 "},"ả":{"x_min":114,"x_max":694,"ha":851,"o":"m 398 1176 q 528 1054 528 1176 q 515 986 528 1024 q 434 918 501 940 l 434 858 l 374 858 l 374 931 q 451 973 427 942 q 466 1041 466 992 q 383 1128 466 1128 q 278 1101 322 1128 l 278 1150 q 398 1176 324 1176 m 461 429 q 244 375 310 429 q 178 218 178 321 q 232 76 178 118 q 363 34 287 34 q 567 154 505 34 q 630 382 630 275 l 630 429 l 461 429 m 694 433 l 694 0 l 632 0 l 632 206 q 493 13 580 55 q 357 -20 425 -20 q 179 40 244 -20 q 114 219 114 101 q 198 408 114 338 q 476 480 283 480 l 630 480 l 630 492 q 573 658 630 593 q 384 723 516 723 q 251 698 319 723 q 139 635 208 683 l 139 702 q 251 755 199 740 q 397 778 327 778 q 618 696 531 778 q 694 433 694 626 "},"ϴ":{"x_min":113,"x_max":980,"ha":1093,"o":"m 547 1031 q 861 888 743 1031 q 980 505 980 745 q 861 123 980 265 q 547 -20 743 -20 q 231 122 349 -20 q 113 505 113 264 q 231 888 113 745 q 547 1031 349 1031 m 815 851 q 547 978 716 978 q 278 851 378 978 q 193 567 193 742 l 899 567 q 815 851 899 742 m 908 511 l 185 511 q 185 504 185 508 q 282 160 185 287 q 547 34 381 34 q 811 160 713 34 q 908 504 908 287 q 908 511 908 508 "},"ᾞ":{"x_min":25,"x_max":1125,"ha":1297,"o":"m 831 -289 l 790 -289 q 707 -164 707 -289 l 707 -62 l 758 -62 l 758 -173 q 810 -244 758 -244 l 831 -244 l 831 -289 m 225 1221 l 186 1258 q 160 1278 177 1267 q 140 1285 149 1285 q 102 1260 114 1285 q 90 1180 90 1235 l 25 1180 q 54 1299 25 1257 q 136 1342 84 1342 q 184 1332 162 1342 q 230 1300 209 1321 l 269 1263 q 296 1243 278 1254 q 315 1237 306 1237 q 354 1261 341 1237 q 366 1342 366 1286 l 429 1342 q 399 1225 429 1270 q 319 1180 371 1180 q 272 1189 293 1180 q 225 1221 247 1200 m 285 950 q 159 829 285 829 l 159 883 q 218 949 218 883 l 218 990 l 161 990 l 161 1120 l 285 1120 l 285 950 m 421 1013 l 490 1013 l 490 567 l 1056 567 l 1056 1013 l 1125 1013 l 1125 0 l 1056 0 l 1056 513 l 490 513 l 490 0 l 421 0 l 421 1013 "},"ɴ":{"x_min":159,"x_max":726.390625,"ha":880,"o":"m 159 760 l 251 760 l 664 67 l 664 760 l 726 760 l 726 0 l 635 0 l 221 693 l 221 0 l 159 0 l 159 760 "},"∕":{"x_min":21.703125,"x_max":446.234375,"ha":468,"o":"m 374 1013 l 446 1013 l 93 -129 l 21 -129 l 374 1013 "},"Ᾰ":{"x_min":41.375,"x_max":904,"ha":950,"o":"m 471 943 l 254 374 l 684 374 l 471 943 m 427 1012 l 516 1012 l 904 0 l 826 0 l 705 318 l 233 318 l 113 0 l 41 0 l 427 1012 m 261 1289 l 321 1289 q 370 1210 330 1238 q 473 1182 408 1182 q 575 1208 537 1182 q 625 1289 613 1234 l 685 1289 q 624 1167 678 1208 q 473 1125 570 1125 q 321 1166 375 1125 q 261 1289 267 1207 "},"ờ":{"x_min":113,"x_max":940,"ha":1051,"o":"m 678 599 l 678 657 q 758 609 725 625 q 814 593 791 593 q 867 615 849 593 q 886 680 886 637 q 880 742 886 715 q 861 794 874 769 l 924 794 q 935 738 931 766 q 940 681 940 711 q 910 567 940 606 q 820 530 879 530 q 754 546 789 530 q 678 599 719 564 m 612 629 q 429 723 545 723 q 245 630 313 723 q 178 380 178 537 q 245 126 178 219 q 429 34 312 34 q 612 126 545 34 q 680 380 680 220 q 612 629 680 535 m 428 778 q 657 669 573 778 q 742 379 742 560 q 657 85 742 193 q 428 -23 573 -23 q 197 84 281 -23 q 113 379 113 192 q 197 670 113 562 q 428 778 282 778 m 301 1111 l 492 857 l 437 857 l 215 1111 l 301 1111 "},"̿":{"x_min":-708,"x_max":14,"ha":1,"o":"m 14 1005 l 14 952 l -708 952 l -708 1005 l 14 1005 m 14 787 l 14 734 l -708 734 l -708 787 l 14 787 "},"Ϋ":{"x_min":30.84375,"x_max":815.234375,"ha":848,"o":"m 487 1268 l 549 1268 l 549 1186 l 487 1186 l 487 1268 m 296 1268 l 360 1268 l 360 1186 l 296 1186 l 296 1268 m 30 1013 l 109 1013 l 425 546 l 737 1013 l 815 1013 l 458 482 l 458 0 l 389 0 l 389 482 l 30 1013 "},"ɋ":{"x_min":159,"x_max":959,"ha":882,"o":"m 631 114 q 709 379 709 193 q 631 643 709 564 q 468 723 552 723 q 303 643 381 723 q 225 379 225 563 q 303 114 225 194 q 468 35 381 35 q 631 114 552 35 m 710 586 l 710 760 l 771 760 l 771 -13 q 809 -202 771 -168 q 925 -236 849 -236 l 959 -236 l 959 -289 l 912 -289 q 756 -228 804 -289 q 710 -13 710 -168 l 710 172 q 617 36 667 73 q 472 -19 540 -19 q 248 89 337 -19 q 159 379 159 199 q 248 668 159 558 q 472 778 337 778 q 617 721 540 778 q 710 586 667 685 "},"ō":{"x_min":110,"x_max":739.390625,"ha":850,"o":"m 222 1035 l 628 1035 l 628 975 l 222 975 l 222 1035 m 609 629 q 426 723 542 723 q 242 630 310 723 q 175 380 175 537 q 242 126 175 219 q 426 34 309 34 q 609 126 542 34 q 677 380 677 220 q 609 629 677 535 m 425 778 q 654 669 570 778 q 739 379 739 560 q 654 85 739 193 q 425 -23 570 -23 q 194 84 278 -23 q 110 379 110 192 q 194 670 110 562 q 425 778 279 778 "},"ḕ":{"x_min":110,"x_max":749,"ha":854,"o":"m 233 992 l 639 992 l 639 932 l 233 932 l 233 992 m 334 1230 l 467 1051 l 411 1051 l 256 1230 l 334 1230 m 749 411 l 749 372 l 173 372 q 244 115 173 188 q 478 34 323 34 q 586 51 519 34 q 720 104 654 69 l 720 38 q 582 -4 652 10 q 470 -20 511 -20 q 206 75 295 -20 q 110 371 110 176 q 198 674 110 574 q 449 778 288 778 q 674 679 598 778 q 749 411 749 576 m 686 425 q 615 658 686 584 q 450 723 554 723 q 260 655 337 723 q 175 425 190 592 l 686 425 "},"Ӕ":{"x_min":38.390625,"x_max":1264.34375,"ha":1353,"o":"m 1252 1013 l 1252 957 l 753 957 l 753 567 l 1231 567 l 1231 513 l 753 513 l 753 54 l 1264 54 l 1264 0 l 684 0 l 684 318 l 244 318 l 111 0 l 38 0 l 462 1013 l 1252 1013 m 512 957 l 267 374 l 684 374 l 684 957 l 512 957 "},"ö":{"x_min":110,"x_max":739.390625,"ha":850,"o":"m 609 629 q 426 723 542 723 q 242 630 310 723 q 175 380 175 537 q 242 126 175 219 q 426 34 309 34 q 609 126 542 34 q 677 380 677 220 q 609 629 677 535 m 425 778 q 654 669 570 778 q 739 379 739 560 q 654 85 739 193 q 425 -23 570 -23 q 194 84 278 -23 q 110 379 110 192 q 194 670 110 562 q 425 778 279 778 m 489 1053 l 553 1053 l 553 972 l 489 972 l 489 1053 m 299 1053 l 361 1053 l 361 972 l 299 972 l 299 1053 "},"ꜱ":{"x_min":104,"x_max":621,"ha":723,"o":"m 586 737 l 586 669 q 504 709 520 705 q 386 722 456 722 q 218 680 279 722 q 171 559 171 645 q 215 469 171 502 q 349 415 262 434 l 391 405 q 555 338 499 382 q 621 209 621 289 q 559 40 621 101 q 340 -20 491 -20 q 213 -8 256 -20 q 104 27 161 6 l 104 105 q 210 51 186 58 q 343 34 277 34 q 505 79 453 34 q 558 200 558 125 q 523 291 558 262 q 361 357 472 331 l 317 367 q 172 430 222 390 q 109 554 109 481 q 184 725 109 673 q 371 778 260 778 q 501 767 465 778 q 586 737 545 755 "},"ẉ":{"x_min":88.328125,"x_max":1007.9375,"ha":1136,"o":"m 540 -167 l 602 -167 l 602 -256 l 540 -256 l 540 -167 m 88 760 l 152 760 l 331 82 l 508 760 l 587 760 l 765 79 l 943 760 l 1007 760 l 809 0 l 722 0 l 547 666 l 373 0 l 287 0 l 88 760 "},"Ȧ":{"x_min":41.421875,"x_max":904.046875,"ha":950,"o":"m 471 943 l 254 374 l 685 374 l 471 943 m 427 1012 l 516 1012 l 904 0 l 826 0 l 706 318 l 233 318 l 113 0 l 41 0 l 427 1012 m 449 1220 l 511 1220 l 511 1131 l 449 1131 l 449 1220 "},"Ḽ":{"x_min":170,"x_max":731.03125,"ha":774,"o":"m 170 1013 l 238 1013 l 238 56 l 731 56 l 731 0 l 170 0 l 170 1013 m 422 -79 l 480 -79 l 645 -333 l 592 -333 l 451 -144 l 310 -333 l 256 -333 l 422 -79 "},"А":{"x_min":41.375,"x_max":904,"ha":950,"o":"m 471 943 l 254 374 l 684 374 l 471 943 m 427 1012 l 516 1012 l 904 0 l 826 0 l 705 318 l 233 318 l 113 0 l 41 0 l 427 1012 "},"ĭ":{"x_min":-16,"x_max":402,"ha":386,"o":"m -16 1091 l 34 1091 q 82 988 43 1022 q 192 954 122 954 q 301 987 262 954 q 351 1091 340 1021 l 402 1091 q 347 944 402 993 q 192 896 293 896 q 38 944 92 896 q -16 1091 -16 993 m 155 760 l 218 760 l 218 0 l 155 0 l 155 760 "},"8":{"x_min":131,"x_max":752,"ha":884,"o":"m 441 504 q 263 441 328 504 q 199 268 199 378 q 263 96 199 159 q 441 34 328 34 q 620 96 555 34 q 686 269 686 159 q 620 441 686 378 q 441 504 555 504 m 304 538 q 196 620 238 562 q 153 767 153 681 q 230 960 153 889 q 441 1031 307 1031 q 653 960 576 1031 q 731 767 731 889 q 686 620 731 677 q 579 538 640 561 q 702 448 655 513 q 752 284 752 381 q 672 59 752 137 q 441 -20 591 -20 q 211 59 291 -20 q 131 284 131 137 q 180 448 131 381 q 304 538 235 515 m 279 919 q 222 766 222 864 q 279 613 222 668 q 441 558 337 558 q 603 613 544 558 q 662 766 662 668 q 603 919 662 864 q 441 975 544 975 q 279 919 337 975 "},"⁆":{"x_min":157.546875,"x_max":389,"ha":542,"o":"m 389 -184 l 157 -184 l 157 -113 l 321 -113 l 321 411 l 169 411 l 169 461 l 321 461 l 321 998 l 157 998 l 157 1055 l 389 1055 l 389 -184 "},"Ữ":{"x_min":152,"x_max":1107,"ha":1220,"o":"m 846 859 l 846 917 q 925 869 892 884 q 981 853 958 853 q 1034 875 1016 853 q 1053 940 1053 896 q 1047 1001 1053 974 q 1028 1054 1041 1028 l 1091 1054 q 1102 998 1098 1026 q 1107 941 1107 971 q 1077 827 1107 866 q 987 790 1046 790 q 921 806 956 790 q 846 859 887 824 m 152 1026 l 220 1026 l 220 411 q 287 134 220 218 q 505 50 354 50 q 722 134 655 50 q 790 411 790 218 l 790 1026 l 858 1026 l 858 394 q 768 95 858 196 q 505 -6 679 -6 q 241 95 330 -6 q 152 394 152 196 l 152 1026 m 545 1213 q 572 1199 557 1206 q 592 1195 583 1195 q 630 1212 617 1195 q 643 1269 643 1229 l 707 1269 q 677 1165 707 1202 q 596 1129 648 1129 q 548 1137 570 1129 q 501 1164 542 1140 l 469 1184 q 442 1198 459 1190 q 422 1204 431 1204 q 384 1186 396 1204 q 372 1130 372 1168 l 307 1130 q 337 1233 307 1196 q 418 1270 366 1270 q 466 1261 444 1270 q 513 1234 488 1249 l 545 1213 "},"R":{"x_min":171,"x_max":890.3125,"ha":965,"o":"m 587 474 q 669 411 629 460 q 748 276 697 375 l 890 0 l 817 0 l 673 278 q 565 422 616 387 q 422 458 512 458 l 239 458 l 239 0 l 171 0 l 171 1013 l 445 1013 q 677 940 600 1013 q 754 721 754 867 q 713 562 754 626 q 587 474 675 499 m 239 957 l 239 514 l 462 514 q 626 570 570 514 q 682 736 682 626 q 626 901 682 845 q 462 957 570 957 l 239 957 "},"Ὗ":{"x_min":23,"x_max":1215.0625,"ha":1247,"o":"m 223 1221 l 184 1258 q 158 1278 175 1267 q 138 1285 147 1285 q 100 1260 112 1285 q 88 1180 88 1235 l 23 1180 q 52 1299 23 1257 q 134 1342 82 1342 q 182 1332 160 1342 q 228 1300 207 1321 l 267 1263 q 293 1243 276 1254 q 313 1237 304 1237 q 352 1261 339 1237 q 364 1342 364 1286 l 427 1342 q 397 1225 427 1270 q 317 1180 369 1180 q 270 1189 291 1180 q 223 1221 244 1200 m 164 950 q 164 1120 164 950 l 287 1120 l 287 990 l 230 990 l 230 949 q 289 883 230 883 l 289 829 q 164 950 164 829 m 429 1013 l 508 1013 l 824 546 l 1137 1013 l 1215 1013 l 857 482 l 857 0 l 788 0 l 788 482 l 429 1013 "},"Ż":{"x_min":62,"x_max":889,"ha":951,"o":"m 429 1205 l 492 1205 l 492 1118 l 429 1118 l 429 1205 m 77 1013 l 873 1013 l 873 958 l 142 56 l 889 56 l 889 0 l 62 0 l 62 55 l 790 957 l 77 957 l 77 1013 "},"Ṷ":{"x_min":155,"x_max":861,"ha":1016,"o":"m 469 -79 l 527 -79 l 692 -334 l 639 -334 l 498 -144 l 357 -334 l 303 -334 l 469 -79 m 155 1012 l 223 1012 l 223 397 q 290 120 223 204 q 508 36 357 36 q 725 120 658 36 q 793 397 793 204 l 793 1012 l 861 1012 l 861 380 q 771 81 861 182 q 508 -20 682 -20 q 244 81 333 -20 q 155 380 155 182 l 155 1012 "},"ħ":{"x_min":98,"x_max":772,"ha":965,"o":"m 772 458 l 772 0 l 709 0 l 709 454 q 660 662 709 600 q 510 723 610 723 q 328 655 395 723 q 261 429 261 587 l 261 0 l 198 0 l 198 904 l 98 904 l 98 956 l 198 956 l 198 1055 l 261 1055 l 261 956 l 516 956 l 516 904 l 261 904 l 261 619 q 338 723 282 676 q 525 778 405 778 q 704 697 637 778 q 772 458 772 615 "},"Ⅻ":{"x_min":81.828125,"x_max":1400,"ha":1572,"o":"m 122 1013 l 199 1013 l 483 587 l 768 1013 l 846 1013 l 521 529 l 873 0 l 795 0 l 478 476 l 159 0 l 81 0 l 439 535 l 122 1013 m 1055 1013 l 1126 1013 l 1126 0 l 1055 0 l 1055 1013 m 1329 1013 l 1400 1013 l 1400 0 l 1329 0 l 1329 1013 "},"ἵ":{"x_min":-11,"x_max":460.421875,"ha":470,"o":"m 373 1111 l 460 1111 l 239 856 l 184 856 l 373 1111 m -11 950 q -11 1120 -11 950 l 112 1120 l 112 990 l 55 990 l 55 949 q 114 883 55 883 l 114 829 q -11 950 -11 829 m 220 760 l 220 190 q 236 83 220 111 q 314 52 255 52 l 377 52 l 377 0 l 303 0 q 189 46 219 0 q 159 192 159 92 l 159 760 l 220 760 "},"˙":{"x_min":316,"x_max":378.390625,"ha":694,"o":"m 316 1003 l 378 1003 l 378 914 l 316 914 l 316 1003 "},"„":{"x_min":158.875,"x_max":533,"ha":719,"o":"m 186 161 l 255 161 l 255 58 l 201 -162 l 158 -162 l 186 58 l 186 161 m 464 160 l 533 160 l 533 57 l 479 -163 l 437 -163 l 464 57 l 464 160 "},"δ":{"x_min":106,"x_max":740,"ha":849,"o":"m 680 899 q 449 975 590 975 q 246 847 246 975 q 454 735 246 779 q 658 619 590 707 q 740 372 740 515 q 655 86 740 192 q 424 -20 571 -20 q 190 86 276 -20 q 106 378 106 192 q 183 629 106 528 q 298 713 222 681 q 175 846 175 767 q 449 1031 175 1031 q 680 970 599 1031 l 680 899 m 362 690 q 244 607 294 671 q 179 364 179 521 q 244 122 179 209 q 424 34 310 34 q 603 122 537 34 q 670 357 670 211 q 597 595 670 522 q 439 676 531 659 q 362 690 372 689 "},"Â":{"x_min":41.375,"x_max":904,"ha":950,"o":"m 471 943 l 254 374 l 684 374 l 471 943 m 427 1012 l 516 1012 l 904 0 l 826 0 l 705 318 l 233 318 l 113 0 l 41 0 l 427 1012 m 445 1289 l 503 1289 l 668 1109 l 615 1109 l 474 1223 l 333 1109 l 279 1109 l 445 1289 "},"Į":{"x_min":135,"x_max":399.40625,"ha":410,"o":"m 204 0 l 262 0 q 214 -80 230 -46 q 198 -135 198 -112 q 220 -189 198 -171 q 285 -208 242 -208 q 347 -202 320 -208 q 399 -183 374 -196 l 399 -246 q 343 -257 371 -253 q 286 -262 316 -262 q 172 -232 211 -262 q 135 -142 135 -201 q 151 -76 135 -110 q 204 0 169 -41 m 168 1012 l 239 1012 l 239 0 l 168 0 l 168 1012 "},"∼":{"x_min":111,"x_max":772,"ha":883,"o":"m 772 575 l 772 509 q 671 432 717 455 q 575 410 625 410 q 443 450 523 410 q 435 454 437 452 q 424 459 431 456 q 295 501 344 501 q 205 475 249 501 q 111 393 161 449 l 111 458 q 211 535 165 512 q 307 559 257 559 q 439 518 358 559 q 447 513 445 515 q 458 508 452 511 q 587 467 538 467 q 675 492 631 467 q 772 575 719 518 "},"ω":{"x_min":123,"x_max":1021,"ha":1163,"o":"m 372 -20 q 123 383 123 -20 q 204 759 123 692 l 292 759 q 189 379 189 724 q 380 34 189 34 q 545 451 545 34 l 598 451 q 762 34 598 34 q 955 379 955 34 q 851 759 955 724 l 939 759 q 1021 383 1021 692 q 768 -20 1021 -20 q 570 183 610 -20 q 372 -20 533 -20 "},"ꟿ":{"x_min":111.21875,"x_max":1521.8125,"ha":1666,"o":"m 683 110 l 906 1013 l 992 1013 l 1221 85 l 1451 1013 l 1521 1013 l 1270 0 l 1173 0 l 949 902 l 726 0 l 640 0 l 411 927 l 181 0 l 111 0 l 362 1013 l 459 1013 l 683 110 "},"´":{"x_min":251.59375,"x_max":528.296875,"ha":671,"o":"m 441 1111 l 528 1111 l 307 856 l 251 856 l 441 1111 "},"ǥ":{"x_min":112,"x_max":830,"ha":833,"o":"m 662 388 q 597 633 662 546 q 417 721 533 721 q 239 633 303 721 q 175 388 175 546 q 239 144 175 231 q 417 57 303 57 q 597 144 533 57 q 662 388 662 231 m 705 -87 q 634 -215 683 -175 q 405 -289 543 -289 q 281 -279 339 -289 q 168 -248 223 -269 l 168 -177 q 276 -221 223 -207 q 385 -236 330 -236 q 580 -187 499 -236 q 645 -87 624 -161 l 164 -87 l 164 -40 l 654 -40 q 662 71 662 8 l 662 190 q 585 67 634 112 q 417 0 511 0 q 192 102 273 0 q 112 389 112 204 q 192 675 112 573 q 417 778 273 778 q 576 719 510 778 q 662 598 628 674 l 662 759 l 724 759 l 724 94 q 714 -40 724 19 l 830 -40 l 830 -87 l 705 -87 "},"Ɛ":{"x_min":106,"x_max":738,"ha":813,"o":"m 280 545 q 168 626 206 567 q 129 767 129 687 q 203 959 129 888 q 433 1030 277 1030 q 562 1012 493 1030 q 708 963 629 997 l 708 893 q 565 954 630 934 q 445 974 501 974 q 261 916 326 974 q 198 754 198 859 q 260 616 198 664 q 439 570 322 570 l 563 570 l 563 513 l 444 513 q 245 454 317 513 q 175 294 175 397 q 251 102 175 168 q 475 36 328 36 q 613 61 545 36 q 738 136 681 86 l 738 62 q 598 0 666 20 q 467 -20 531 -20 q 192 62 278 -20 q 106 293 106 144 q 152 458 106 391 q 280 545 198 525 "},"ℴ":{"x_min":72,"x_max":573,"ha":642,"o":"m 504 333 q 460 459 504 413 q 379 504 428 493 q 343 509 361 509 q 184 428 242 509 q 149 335 160 387 q 137 197 137 274 q 179 71 137 116 q 260 26 211 37 q 296 22 277 22 q 450 107 393 22 q 490 200 478 148 q 504 333 504 259 m 333 548 q 389 541 362 548 q 504 474 455 526 q 573 289 573 400 q 562 200 573 242 q 497 68 545 124 q 311 -18 421 -18 q 255 -11 282 -18 q 140 56 188 3 q 72 240 72 130 q 81 330 72 288 q 147 461 99 405 q 333 548 223 548 "},"ỏ":{"x_min":110,"x_max":739.390625,"ha":850,"o":"m 422 1176 q 552 1054 552 1176 q 539 986 552 1024 q 459 918 525 940 l 459 858 l 399 858 l 399 931 q 475 973 452 942 q 490 1041 490 992 q 408 1128 490 1128 q 302 1101 346 1128 l 302 1150 q 422 1176 348 1176 m 609 629 q 426 723 542 723 q 242 630 310 723 q 175 380 175 537 q 242 126 175 219 q 426 34 309 34 q 609 126 542 34 q 677 380 677 220 q 609 629 677 535 m 425 778 q 654 669 570 778 q 739 379 739 560 q 654 85 739 193 q 425 -23 570 -23 q 194 84 278 -23 q 110 379 110 192 q 194 670 110 562 q 425 778 279 778 "},"Ƈ":{"x_min":115,"x_max":1081,"ha":969,"o":"m 894 928 l 894 850 q 746 943 825 912 q 580 975 667 975 q 287 854 388 975 q 186 505 186 732 q 287 155 186 277 q 580 34 388 34 q 746 65 668 34 q 894 160 824 97 l 894 78 q 741 4 822 29 q 571 -20 661 -20 q 237 120 359 -20 q 115 505 115 261 q 237 889 115 748 q 571 1031 359 1031 q 742 1005 662 1031 q 833 967 788 990 q 877 1164 833 1107 q 1033 1225 924 1225 l 1081 1225 l 1081 1172 l 1047 1172 q 932 1138 971 1172 q 894 949 894 1104 l 894 928 "},"Ϗ":{"x_min":240,"x_max":894.296875,"ha":911,"o":"m 240 1013 l 307 1013 l 307 576 l 770 1013 l 861 1013 l 357 538 l 894 0 l 646 -289 l 602 -289 l 805 0 l 307 500 l 307 0 l 240 0 l 240 1013 "},"Ĉ":{"x_min":115,"x_max":894,"ha":969,"o":"m 542 1289 l 600 1289 l 765 1109 l 712 1109 l 571 1223 l 430 1109 l 376 1109 l 542 1289 m 894 928 l 894 850 q 746 943 824 913 q 580 975 668 975 q 287 854 388 975 q 186 505 186 733 q 287 155 186 276 q 580 34 388 34 q 746 65 668 34 q 894 160 824 97 l 894 78 q 741 4 822 29 q 571 -20 661 -20 q 237 120 359 -20 q 115 505 115 261 q 237 889 115 749 q 571 1031 359 1031 q 742 1005 662 1031 q 894 928 823 979 "},"Љ":{"x_min":71,"x_max":1385,"ha":1521,"o":"m 71 -18 l 71 40 q 260 239 193 72 q 340 821 340 438 l 340 1013 l 806 1013 l 874 1013 l 874 559 l 1069 559 q 1302 487 1220 559 q 1385 283 1385 416 q 1302 73 1385 147 q 1069 0 1220 0 l 874 0 l 806 0 l 805 0 l 805 957 l 408 957 l 408 754 q 326 218 408 424 q 71 -18 246 19 m 874 54 l 1062 54 q 1253 110 1190 54 q 1316 280 1316 165 q 1253 450 1316 395 q 1062 505 1190 505 l 874 505 l 874 54 "},"р":{"x_min":159,"x_max":771,"ha":882,"o":"m 220 172 l 220 -289 l 159 -289 l 159 760 l 220 760 l 220 586 q 312 721 262 685 q 457 778 389 778 q 681 668 592 778 q 771 379 771 558 q 681 89 771 199 q 457 -19 592 -19 q 312 36 389 -19 q 220 172 262 73 m 626 114 q 705 379 705 193 q 626 643 705 564 q 461 723 548 723 q 298 643 377 723 q 220 379 220 564 q 298 114 220 193 q 461 35 377 35 q 626 114 548 35 "},"т":{"x_min":47,"x_max":714,"ha":761,"o":"m 47 706 l 47 760 l 714 760 l 714 706 l 412 706 l 412 0 l 349 0 l 349 706 l 47 706 "},"П":{"x_min":171,"x_max":874,"ha":1045,"o":"m 171 0 l 171 1012 l 874 1012 l 874 0 l 806 0 l 806 958 l 239 958 l 239 0 l 171 0 "},"Ö":{"x_min":113,"x_max":980,"ha":1093,"o":"m 811 851 q 547 978 713 978 q 282 851 381 978 q 185 505 185 724 q 282 160 185 287 q 547 34 381 34 q 811 160 713 34 q 908 505 908 287 q 811 851 908 724 m 547 1031 q 861 888 743 1031 q 980 505 980 745 q 861 123 980 265 q 547 -20 743 -20 q 231 122 349 -20 q 113 505 113 264 q 231 888 113 745 q 547 1031 349 1031 m 610 1268 l 673 1268 l 673 1186 l 610 1186 l 610 1268 m 419 1268 l 483 1268 l 483 1186 l 419 1186 l 419 1268 "},"":{"x_min":106,"x_max":740,"ha":849,"o":"m 680 899 q 449 975 590 975 q 246 847 246 975 q 454 735 246 779 q 658 619 590 707 q 740 372 740 515 q 655 86 740 192 q 424 -20 571 -20 q 190 86 276 -20 q 106 378 106 192 q 183 629 106 528 q 298 713 222 681 q 175 846 175 767 q 449 1031 175 1031 q 680 970 599 1031 l 680 899 m 362 690 q 244 607 294 671 q 179 364 179 521 q 244 122 179 209 q 424 34 310 34 q 603 122 537 34 q 670 357 670 211 q 597 595 670 522 q 439 676 531 659 q 362 690 372 689 "},"Θ":{"x_min":113,"x_max":980,"ha":1093,"o":"m 307 568 l 786 568 l 786 510 l 307 510 l 307 568 m 811 851 q 547 978 713 978 q 282 851 381 978 q 185 505 185 724 q 282 160 185 287 q 547 34 381 34 q 811 160 713 34 q 908 505 908 287 q 811 851 908 724 m 547 1031 q 861 888 743 1031 q 980 505 980 745 q 861 123 980 265 q 547 -20 743 -20 q 231 122 349 -20 q 113 505 113 264 q 231 888 113 745 q 547 1031 349 1031 "},"Ř":{"x_min":171,"x_max":890.3125,"ha":965,"o":"m 587 474 q 669 411 629 460 q 748 276 697 375 l 890 0 l 817 0 l 673 278 q 565 422 616 387 q 422 458 512 458 l 239 458 l 239 0 l 171 0 l 171 1013 l 445 1013 q 677 940 600 1013 q 754 721 754 867 q 713 562 754 626 q 587 474 675 499 m 239 957 l 239 514 l 462 514 q 626 570 570 514 q 682 736 682 626 q 626 901 682 845 q 462 957 570 957 l 239 957 m 402 1100 l 236 1280 l 291 1280 l 432 1165 l 572 1280 l 625 1280 l 460 1100 l 402 1100 "},"ϙ":{"x_min":110,"x_max":739.609375,"ha":850,"o":"m 425 778 q 654 668 570 778 q 739 377 739 558 q 654 80 739 189 q 456 -17 579 -17 l 456 -287 l 393 -287 l 393 -21 q 194 84 269 -10 q 110 379 110 192 q 194 670 110 562 q 425 778 279 778 m 426 723 q 242 630 310 723 q 175 380 175 537 q 242 126 175 219 q 426 34 309 34 q 609 126 542 34 q 677 380 677 220 q 609 629 677 535 q 426 723 542 723 "},"ừ":{"x_min":159,"x_max":971,"ha":1082,"o":"m 710 599 l 710 657 q 789 609 756 625 q 845 593 822 593 q 898 615 880 593 q 917 680 917 637 q 911 742 917 715 q 892 794 905 769 l 955 794 q 966 738 962 766 q 971 681 971 711 q 941 567 971 606 q 852 530 910 530 q 785 546 820 530 q 710 599 751 564 m 159 301 l 159 760 l 221 760 l 221 305 q 268 97 221 157 q 408 36 316 36 q 593 101 516 36 q 670 330 670 167 l 670 760 l 733 760 l 733 0 l 670 0 l 670 142 q 583 36 637 73 q 406 -18 503 -18 q 226 58 293 -18 q 159 301 159 134 m 307 1111 l 498 857 l 443 857 l 222 1111 l 307 1111 "},"Ợ":{"x_min":105,"x_max":1072,"ha":1297,"o":"m 516 -167 l 578 -167 l 578 -256 l 516 -256 l 516 -167 m 810 857 l 810 915 q 890 867 857 882 q 946 851 923 851 q 999 873 981 851 q 1018 938 1018 895 q 1012 1000 1018 973 q 993 1052 1006 1027 l 1056 1052 q 1067 996 1063 1024 q 1072 939 1072 969 q 1042 825 1072 864 q 952 788 1011 788 q 886 804 920 788 q 810 857 851 822 m 803 851 q 539 978 705 978 q 274 851 373 978 q 177 505 177 724 q 274 160 177 287 q 539 34 373 34 q 803 160 705 34 q 900 505 900 287 q 803 851 900 724 m 539 1031 q 853 888 735 1031 q 972 505 972 745 q 853 123 972 265 q 539 -20 735 -20 q 223 122 341 -20 q 105 505 105 264 q 223 888 105 745 q 539 1031 341 1031 "},"ᾝ":{"x_min":23,"x_max":1287,"ha":1459,"o":"m 994 -289 l 953 -289 q 870 -164 870 -289 l 870 -62 l 921 -62 l 921 -173 q 973 -244 921 -244 l 994 -244 l 994 -289 m 407 1111 l 494 1111 l 272 856 l 217 856 l 407 1111 m 23 950 q 23 1120 23 950 l 146 1120 l 146 990 l 89 990 l 89 949 q 148 883 89 883 l 148 829 q 23 950 23 829 m 584 1013 l 653 1013 l 653 567 l 1218 567 l 1218 1013 l 1287 1013 l 1287 0 l 1218 0 l 1218 513 l 653 513 l 653 0 l 584 0 l 584 1013 "},"ƴ":{"x_min":74.734375,"x_max":936.015625,"ha":1118,"o":"m 663 551 l 413 -70 q 326 -209 373 -171 q 202 -262 263 -262 l 110 -262 l 110 -209 l 189 -209 q 276 -177 238 -209 q 355 -55 323 -136 l 377 0 l 74 760 l 141 760 l 411 83 l 605 573 q 725 757 663 720 q 801 778 758 778 q 891 759 842 778 l 936 743 l 917 693 l 885 705 q 807 722 841 722 q 766 713 784 722 q 663 551 715 690 "},"É":{"x_min":169,"x_max":753.421875,"ha":878,"o":"m 169 1013 l 741 1013 l 741 957 l 238 957 l 238 567 l 720 567 l 720 513 l 238 513 l 238 54 l 753 54 l 753 0 l 169 0 l 169 1013 m 513 1288 l 590 1288 l 436 1109 l 380 1109 l 513 1288 "},"ṅ":{"x_min":157,"x_max":731,"ha":880,"o":"m 731 458 l 731 0 l 668 0 l 668 454 q 621 662 668 602 q 481 723 573 723 q 296 657 373 723 q 219 429 219 592 l 219 0 l 157 0 l 157 760 l 219 760 l 219 617 q 306 723 252 686 q 484 778 386 778 q 663 701 596 778 q 731 458 731 625 m 412 1003 l 475 1003 l 475 914 l 412 914 l 412 1003 "},"и":{"x_min":157,"x_max":757,"ha":914,"o":"m 157 0 l 157 760 l 219 760 l 219 67 l 664 760 l 757 760 l 757 0 l 694 0 l 694 693 l 247 0 l 157 0 "},"³":{"x_min":66.15625,"x_max":472,"ha":557,"o":"m 371 776 q 444 730 416 765 q 472 642 472 693 q 414 521 472 565 q 237 480 360 480 q 155 486 198 480 q 66 506 113 493 l 66 571 q 142 542 101 551 q 227 532 182 532 q 362 562 314 532 q 410 643 410 591 q 366 720 410 693 q 235 746 322 746 l 176 746 l 176 798 l 239 798 q 354 820 315 798 q 394 885 394 842 q 353 951 394 928 q 236 975 313 975 q 175 965 210 975 q 86 932 140 956 l 86 996 q 179 1022 135 1013 q 259 1031 222 1031 q 407 994 358 1031 q 457 893 457 956 q 434 818 457 850 q 371 776 413 787 "},"Ṧ":{"x_min":123,"x_max":768,"ha":881,"o":"m 735 961 l 735 897 q 587 957 668 930 q 454 975 534 975 q 259 920 334 975 q 192 749 192 870 q 243 630 192 674 q 409 555 298 583 l 490 534 q 657 466 598 505 q 768 277 768 391 q 671 48 768 112 q 453 -20 565 -20 q 246 12 337 -20 q 126 76 188 35 l 126 142 q 258 70 220 86 q 416 36 343 36 q 622 90 540 36 q 700 271 700 142 q 652 391 700 347 q 474 480 583 454 l 393 500 q 226 566 295 524 q 123 744 123 631 q 207 960 123 884 q 446 1030 286 1030 q 591 1013 540 1030 q 735 961 720 972 "},"Ӿ":{"x_min":81,"x_max":873.515625,"ha":952,"o":"m 121 1012 l 199 1012 l 482 587 l 767 1012 l 846 1012 l 547 567 l 824 567 l 824 513 l 532 513 l 873 0 l 795 0 l 477 476 l 159 0 l 81 0 l 424 513 l 140 513 l 140 567 l 417 567 l 121 1012 "},"Ӫ":{"x_min":113,"x_max":980,"ha":1093,"o":"m 610 1268 l 673 1268 l 673 1186 l 610 1186 l 610 1268 m 419 1268 l 483 1268 l 483 1186 l 419 1186 l 419 1268 m 547 1031 q 861 888 743 1031 q 980 505 980 745 q 861 123 980 265 q 547 -20 743 -20 q 231 122 349 -20 q 113 505 113 264 q 231 888 113 745 q 547 1031 349 1031 m 815 851 q 547 978 716 978 q 278 851 378 978 q 193 567 193 742 l 899 567 q 815 851 899 742 m 908 511 l 185 511 q 185 504 185 508 q 282 160 185 287 q 547 34 381 34 q 811 160 713 34 q 908 504 908 287 q 908 511 908 508 "},"Ꚍ":{"x_min":31,"x_max":818,"ha":849,"o":"m 31 1013 l 818 1013 l 818 957 l 460 957 l 460 348 q 505 120 460 184 q 661 56 550 56 l 704 56 l 704 0 l 651 0 q 452 82 514 0 q 390 348 390 166 l 390 957 l 31 957 l 31 1013 "},"[":{"x_min":157,"x_max":388.4375,"ha":542,"o":"m 157 1055 l 388 1055 l 388 984 l 225 984 l 225 -127 l 388 -127 l 388 -184 l 157 -184 l 157 1055 "},"͘":{"x_min":-378,"x_max":-315.609375,"ha":0,"o":"m -378 1003 l -315 1003 l -315 914 l -378 914 l -378 1003 "},"ζ":{"x_min":94,"x_max":689,"ha":755,"o":"m 484 38 q 606 -5 560 38 q 655 -121 655 -51 q 612 -234 655 -192 q 470 -291 555 -291 q 470 -231 470 -270 q 563 -198 526 -231 q 591 -137 591 -173 q 563 -55 591 -92 q 484 -20 535 -20 q 94 361 94 -20 q 580 1003 94 687 l 99 1003 l 99 1055 l 689 1055 l 689 1003 q 159 361 159 718 q 484 38 159 38 "},"˨":{"x_min":144.859375,"x_max":517,"ha":685,"o":"m 448 0 l 448 209 l 144 209 l 144 267 l 448 267 l 448 928 l 517 928 l 517 0 l 448 0 "},"︍":{"x_min":0,"x_max":0,"ha":0},"ῇ":{"x_min":157,"x_max":731.390625,"ha":881,"o":"m 281 -289 l 240 -289 q 157 -164 157 -289 l 157 -62 l 208 -62 l 208 -173 q 260 -244 208 -244 l 281 -244 l 281 -289 m 731 458 l 731 -289 l 669 -289 l 669 454 q 621 662 669 602 q 481 723 574 723 q 297 657 373 723 q 220 429 220 592 l 220 0 l 157 0 l 157 760 l 220 760 l 220 617 q 307 723 253 686 q 484 778 387 778 q 664 701 597 778 q 731 458 731 625 m 442 944 l 403 981 q 377 1001 394 990 q 357 1008 366 1008 q 319 983 331 1008 q 307 903 307 958 l 242 903 q 271 1022 242 980 q 353 1065 301 1065 q 401 1055 379 1065 q 448 1023 426 1044 l 486 986 q 513 966 496 977 q 533 960 524 960 q 571 984 559 960 q 583 1065 583 1009 l 646 1065 q 616 948 646 993 q 536 903 588 903 q 489 912 511 903 q 442 944 464 923 "},"ḥ":{"x_min":157,"x_max":731,"ha":880,"o":"m 731 458 l 731 0 l 668 0 l 668 454 q 619 662 668 600 q 469 723 569 723 q 286 655 353 723 q 219 429 219 587 l 219 0 l 157 0 l 157 1055 l 219 1055 l 219 619 q 296 723 241 677 q 484 778 363 778 q 663 697 596 778 q 731 458 731 615 m 412 -167 l 475 -167 l 475 -256 l 412 -256 l 412 -167 "},"Ἅ":{"x_min":23,"x_max":1066.25,"ha":1112,"o":"m 407 1110 l 493 1110 l 272 856 l 217 856 l 407 1110 m 23 950 q 23 1120 23 950 l 146 1120 l 146 990 l 89 990 l 89 949 q 148 883 89 883 l 148 829 q 23 950 23 829 m 633 944 l 416 374 l 847 374 l 633 944 m 590 1012 l 679 1012 l 1066 0 l 988 0 l 868 318 l 395 318 l 275 0 l 203 0 l 590 1012 "},"Ρ":{"x_min":170,"x_max":752,"ha":837,"o":"m 238 957 l 238 491 l 445 491 q 620 551 559 491 q 683 724 683 611 q 620 896 683 835 q 445 957 559 957 l 238 957 m 170 1013 l 445 1013 q 674 939 596 1013 q 752 724 752 866 q 674 508 752 581 q 445 435 596 435 l 238 435 l 238 0 l 170 0 l 170 1013 "},"ῌ":{"x_min":169,"x_max":873,"ha":1045,"o":"m 589 -289 l 548 -289 q 465 -164 465 -289 l 465 -62 l 516 -62 l 516 -173 q 568 -244 516 -244 l 589 -244 l 589 -289 m 169 1013 l 238 1013 l 238 567 l 804 567 l 804 1013 l 873 1013 l 873 0 l 804 0 l 804 513 l 238 513 l 238 0 l 169 0 l 169 1013 "},"ᾎ":{"x_min":25,"x_max":936.71875,"ha":983,"o":"m 575 -289 l 534 -289 q 451 -164 451 -289 l 451 -62 l 502 -62 l 502 -173 q 554 -244 502 -244 l 575 -244 l 575 -289 m 225 1221 l 186 1258 q 160 1278 177 1267 q 140 1285 149 1285 q 102 1260 114 1285 q 90 1180 90 1235 l 25 1180 q 54 1299 25 1257 q 136 1342 84 1342 q 184 1332 162 1342 q 230 1300 209 1321 l 269 1263 q 296 1243 278 1254 q 315 1237 306 1237 q 354 1261 341 1237 q 366 1342 366 1286 l 429 1342 q 399 1225 429 1270 q 319 1180 371 1180 q 272 1189 293 1180 q 225 1221 247 1200 m 285 950 q 159 829 285 829 l 159 883 q 218 949 218 883 l 218 990 l 161 990 l 161 1120 l 285 1120 l 285 950 m 504 944 l 287 374 l 717 374 l 504 944 m 460 1012 l 549 1012 l 936 0 l 859 0 l 738 318 l 266 318 l 146 0 l 74 0 l 460 1012 "},"Ṙ":{"x_min":171,"x_max":890.3125,"ha":965,"o":"m 587 474 q 669 411 629 460 q 748 276 697 375 l 890 0 l 817 0 l 673 278 q 565 422 617 387 q 422 458 512 458 l 239 458 l 239 0 l 171 0 l 171 1013 l 445 1013 q 677 940 600 1013 q 754 721 754 867 q 713 562 754 626 q 587 474 675 499 m 239 957 l 239 514 l 462 514 q 626 570 570 514 q 682 736 682 626 q 626 901 682 845 q 462 957 570 957 l 239 957 m 405 1216 l 467 1216 l 467 1129 l 405 1129 l 405 1216 "},"ª":{"x_min":94,"x_max":561,"ha":655,"o":"m 94 402 l 561 402 l 561 346 l 94 346 l 94 402 m 542 790 l 542 486 l 480 486 l 480 625 q 392 519 446 555 q 267 479 331 479 q 156 513 205 479 q 96 638 96 555 q 155 786 96 739 q 334 834 216 834 l 475 834 l 475 836 q 432 939 475 903 q 299 976 387 976 q 211 962 257 976 q 119 920 165 948 l 119 984 q 218 1019 168 1007 q 313 1031 266 1031 q 486 971 429 1031 q 542 790 542 911 m 380 781 q 208 752 259 781 q 157 659 157 723 q 179 574 157 595 q 297 537 216 537 q 429 597 378 537 q 478 756 478 657 l 478 781 l 380 781 "},"Ἓ":{"x_min":24,"x_max":1229.40625,"ha":1354,"o":"m 316 1111 l 508 857 l 452 857 l 231 1111 l 316 1111 m 24 950 q 24 1120 24 950 l 147 1120 l 147 990 l 90 990 l 90 949 q 149 883 90 883 l 149 829 q 24 950 24 829 m 645 1013 l 1217 1013 l 1217 957 l 714 957 l 714 567 l 1196 567 l 1196 513 l 714 513 l 714 54 l 1229 54 l 1229 0 l 645 0 l 645 1013 "},"ᴄ":{"x_min":95,"x_max":678,"ha":764,"o":"m 678 723 l 678 656 q 585 703 621 691 q 464 723 521 723 q 228 638 299 723 q 157 379 157 554 q 228 118 157 202 q 464 34 299 34 q 571 48 518 34 q 678 92 625 63 l 678 29 q 570 -7 625 4 q 458 -20 513 -20 q 193 70 291 -20 q 95 379 95 161 q 193 687 95 596 q 458 778 291 778 q 574 762 513 778 q 678 723 635 747 "},"ї":{"x_min":67,"x_max":321,"ha":386,"o":"m 156 760 l 218 760 l 218 0 l 156 0 l 156 760 m 257 1053 l 321 1053 l 321 972 l 257 972 l 257 1053 m 67 1053 l 129 1053 l 129 972 l 67 972 l 67 1053 "},"ﬀ":{"x_min":63,"x_max":951,"ha":957,"o":"m 484 1055 l 484 1002 l 395 1002 q 289 966 326 1002 q 245 826 245 922 l 245 760 l 649 760 l 649 812 q 706 996 649 937 q 864 1055 763 1055 l 951 1055 l 951 1002 l 862 1002 q 756 966 793 1002 q 712 826 712 922 l 712 760 l 917 760 l 917 707 l 712 707 l 712 0 l 649 0 l 649 707 l 245 707 l 245 0 l 182 0 l 182 707 l 63 707 l 63 760 l 182 760 l 182 812 q 239 996 182 939 q 397 1055 296 1055 l 484 1055 "},"š":{"x_min":104,"x_max":621,"ha":723,"o":"m 586 737 l 586 669 q 504 709 520 705 q 386 722 456 722 q 218 680 279 722 q 171 559 171 645 q 215 469 171 502 q 349 415 262 434 l 391 405 q 555 338 499 382 q 621 209 621 289 q 559 40 621 101 q 340 -20 491 -20 q 213 -8 256 -20 q 104 27 161 6 l 104 105 q 210 51 186 58 q 343 34 277 34 q 505 79 453 34 q 558 200 558 125 q 523 291 558 262 q 361 357 472 331 l 317 367 q 172 430 222 390 q 109 554 109 481 q 184 725 109 673 q 371 778 260 778 q 501 767 465 778 q 586 737 545 755 m 391 856 l 333 856 l 168 1111 l 221 1111 l 361 921 l 503 1111 l 557 1111 l 391 856 "},"ꝇ":{"x_min":193,"x_max":351.390625,"ha":544,"o":"m 193 1055 l 255 1055 l 255 537 l 351 567 l 351 0 l 289 0 l 289 502 l 193 472 l 193 1055 "},"⁪":{"x_min":0,"x_max":0,"ha":0},"1":{"x_min":152.640625,"x_max":721,"ha":883,"o":"m 206 56 l 430 56 l 430 950 l 152 839 l 152 901 l 428 1013 l 498 1013 l 498 56 l 721 56 l 721 0 l 206 0 l 206 56 "},"խ":{"x_min":157,"x_max":1109,"ha":1241,"o":"m 598 760 l 598 305 q 645 97 598 157 q 785 36 692 36 q 969 102 892 36 q 1046 330 1046 167 l 1046 760 l 1109 760 l 1109 0 l 1046 0 l 1046 142 q 959 36 1013 74 q 782 -18 878 -18 q 602 58 669 -18 q 535 301 535 134 l 535 707 l 219 707 l 219 -289 l 157 -289 l 157 1055 l 219 1055 l 219 760 l 598 760 "},"ᚁ":{"x_min":-13,"x_max":698,"ha":685,"o":"m -13 426 l 698 426 l 698 370 l 374 370 l 374 -173 l 312 -173 l 312 370 l -13 370 l -13 426 "},"ɩ":{"x_min":159,"x_max":377,"ha":538,"o":"m 220 760 l 220 190 q 236 83 220 111 q 314 52 255 52 l 377 52 l 377 0 l 303 0 q 189 46 219 0 q 159 192 159 92 l 159 760 l 220 760 "},"Ǜ":{"x_min":155,"x_max":861,"ha":1016,"o":"m 446 1545 l 578 1366 l 523 1366 l 368 1545 l 446 1545 m 155 1012 l 223 1012 l 223 397 q 290 120 223 204 q 508 36 357 36 q 725 120 658 36 q 793 397 793 204 l 793 1012 l 861 1012 l 861 380 q 771 81 861 182 q 508 -20 682 -20 q 244 81 333 -20 q 155 380 155 182 l 155 1012 m 572 1268 l 634 1268 l 634 1186 l 572 1186 l 572 1268 m 381 1268 l 445 1268 l 445 1186 l 381 1186 l 381 1268 "},"ǒ":{"x_min":110,"x_max":739.390625,"ha":850,"o":"m 609 629 q 426 723 542 723 q 242 630 310 723 q 175 380 175 537 q 242 126 175 219 q 426 34 309 34 q 609 126 542 34 q 677 380 677 220 q 609 629 677 535 m 425 778 q 654 669 570 778 q 739 379 739 560 q 654 85 739 193 q 425 -23 570 -23 q 194 84 278 -23 q 110 379 110 192 q 194 670 110 562 q 425 778 279 778 m 456 856 l 398 856 l 233 1111 l 286 1111 l 427 921 l 568 1111 l 622 1111 l 456 856 "},"ἥ":{"x_min":157,"x_max":731,"ha":880,"o":"m 623 1111 l 710 1111 l 489 856 l 433 856 l 623 1111 m 239 950 q 239 1120 239 950 l 363 1120 l 363 990 l 305 990 l 305 949 q 364 883 305 883 l 364 829 q 239 950 239 829 m 731 458 l 731 -289 l 668 -289 l 668 454 q 621 662 668 602 q 481 723 573 723 q 296 657 373 723 q 219 429 219 592 l 219 0 l 157 0 l 157 760 l 219 760 l 219 617 q 307 723 252 686 q 484 778 387 778 q 663 701 596 778 q 731 458 731 625 "},"ḽ":{"x_min":-1,"x_max":388.25,"ha":386,"o":"m 157 1055 l 219 1055 l 219 0 l 157 0 l 157 1055 m 165 -79 l 222 -79 l 388 -334 l 334 -334 l 194 -144 l 53 -334 l -1 -334 l 165 -79 "},"ⅹ":{"x_min":77.3125,"x_max":744.625,"ha":822,"o":"m 724 760 l 449 394 l 744 0 l 670 0 l 412 346 l 151 0 l 77 0 l 374 397 l 104 760 l 178 760 l 412 444 l 649 760 l 724 760 "},"ī":{"x_min":-9,"x_max":397,"ha":387,"o":"m -9 1035 l 397 1035 l 397 975 l -9 975 l -9 1035 m 156 760 l 219 760 l 219 0 l 156 0 l 156 760 "},"ӹ":{"x_min":157,"x_max":902.390625,"ha":1063,"o":"m 590 1053 l 654 1053 l 654 972 l 590 972 l 590 1053 m 400 1053 l 463 1053 l 463 972 l 400 972 l 400 1053 m 219 53 l 434 53 q 589 91 539 53 q 640 210 640 130 q 588 332 640 293 q 434 371 537 371 l 219 371 l 219 53 m 157 0 l 157 759 l 219 759 l 219 424 l 439 424 q 632 371 562 424 q 703 211 703 318 q 634 52 703 104 q 439 0 566 0 l 157 0 m 840 760 l 902 760 l 902 0 l 840 0 l 840 760 "},"ṻ":{"x_min":157,"x_max":731,"ha":880,"o":"m 157 301 l 157 760 l 219 760 l 219 305 q 266 97 219 157 q 406 36 314 36 q 591 102 514 36 q 668 330 668 167 l 668 760 l 731 760 l 731 0 l 668 0 l 668 142 q 581 36 635 73 q 403 -18 501 -18 q 224 58 291 -18 q 157 301 157 134 "},"G":{"x_min":116,"x_max":928,"ha":1076,"o":"m 861 85 l 861 441 l 602 441 l 602 497 l 928 497 l 928 53 q 768 0 855 17 q 582 -19 681 -19 q 240 119 363 -19 q 116 505 116 257 q 240 892 116 753 q 583 1031 363 1031 q 754 1012 674 1031 q 904 955 836 993 l 904 889 q 757 947 835 927 q 594 966 679 966 q 288 849 390 966 q 186 505 186 734 q 288 155 186 272 q 594 37 390 37 q 743 48 677 37 q 861 85 808 60 "},"`":{"x_min":138.34375,"x_max":415.046875,"ha":694,"o":"m 223 1111 l 415 857 l 359 857 l 138 1111 l 223 1111 "},"ꞁ":{"x_min":157,"x_max":219.390625,"ha":386,"o":"m 157 760 l 219 760 l 219 -289 l 157 -289 l 157 760 m 193 778 l 193 778 "},"Ễ":{"x_min":169,"x_max":753.421875,"ha":878,"o":"m 493 1393 q 520 1379 505 1386 q 540 1375 531 1375 q 578 1392 565 1375 q 591 1449 591 1409 l 655 1449 q 625 1345 655 1382 q 544 1309 596 1309 q 496 1317 518 1309 q 449 1344 490 1320 l 417 1364 q 390 1378 407 1370 q 370 1384 379 1384 q 332 1366 344 1384 q 320 1310 320 1348 l 255 1310 q 285 1413 255 1376 q 366 1450 314 1450 q 414 1440 392 1450 q 461 1413 436 1428 l 493 1393 m 433 1289 l 491 1289 l 656 1109 l 603 1109 l 462 1223 l 321 1109 l 267 1109 l 433 1289 m 169 1013 l 741 1013 l 741 957 l 238 957 l 238 567 l 720 567 l 720 513 l 238 513 l 238 54 l 753 54 l 753 0 l 169 0 l 169 1013 "},"ằ":{"x_min":114,"x_max":694,"ha":851,"o":"m 290 1198 l 423 1019 l 367 1019 l 213 1198 l 290 1198 m 181 1022 l 241 1022 q 290 943 251 971 q 393 915 329 915 q 495 941 457 915 q 545 1022 533 967 l 605 1022 q 544 900 598 941 q 393 858 490 858 q 241 899 295 858 q 181 1022 188 940 m 461 429 q 244 375 310 429 q 178 218 178 321 q 232 76 178 118 q 363 34 287 34 q 567 154 505 34 q 630 382 630 275 l 630 429 l 461 429 m 694 433 l 694 0 l 632 0 l 632 206 q 493 13 579 55 q 357 -20 425 -20 q 179 40 244 -20 q 114 219 114 101 q 198 408 114 338 q 476 480 283 480 l 630 480 l 630 492 q 573 658 630 593 q 384 723 516 723 q 251 698 319 723 q 139 635 208 683 l 139 702 q 251 755 199 740 q 397 778 327 778 q 618 696 531 778 q 694 433 694 626 "},"ŏ":{"x_min":110,"x_max":739.390625,"ha":850,"o":"m 216 1091 l 266 1091 q 314 988 275 1022 q 425 954 354 954 q 533 987 494 954 q 583 1091 572 1021 l 634 1091 q 579 944 634 993 q 424 896 525 896 q 270 944 324 896 q 216 1091 216 993 m 609 629 q 426 723 542 723 q 242 630 310 723 q 175 380 175 537 q 242 126 175 219 q 426 34 309 34 q 609 126 542 34 q 677 380 677 220 q 609 629 677 535 m 425 778 q 654 669 570 778 q 739 379 739 560 q 654 85 739 193 q 425 -23 570 -23 q 194 84 278 -23 q 110 379 110 192 q 194 670 110 562 q 425 778 279 778 "},"ý":{"x_min":74.734375,"x_max":747.484375,"ha":822,"o":"m 413 -70 q 326 -209 373 -171 q 202 -262 263 -262 l 110 -262 l 110 -209 l 189 -209 q 276 -177 238 -209 q 355 -55 324 -135 l 377 0 l 74 760 l 141 760 l 411 83 l 681 760 l 747 760 l 413 -70 m 505 1112 l 592 1112 l 371 857 l 315 857 l 505 1112 "},"ᴍ":{"x_min":190,"x_max":857,"ha":1048,"o":"m 190 760 l 289 760 l 524 202 l 760 760 l 857 760 l 857 0 l 796 0 l 796 686 l 565 146 l 481 146 l 252 689 l 252 0 l 190 0 l 190 760 "},"º":{"x_min":87,"x_max":566,"ha":654,"o":"m 94 402 l 561 402 l 561 346 l 94 346 l 94 402 m 151 957 q 327 1031 215 1031 q 502 957 438 1031 q 566 755 566 883 q 502 554 566 627 q 327 481 438 481 q 151 554 215 481 q 87 755 87 627 q 151 957 87 883 m 326 977 q 198 915 246 977 q 151 753 151 855 q 199 593 151 653 q 326 533 247 533 q 453 593 406 533 q 502 753 502 653 q 454 916 502 856 q 326 977 407 977 "},"ȑ":{"x_min":112.203125,"x_max":569.921875,"ha":571,"o":"m 569 706 q 529 719 555 713 q 470 723 506 723 q 279 637 355 723 q 220 400 220 568 l 220 0 l 159 0 l 159 760 l 220 760 l 220 617 q 305 720 250 678 q 484 778 381 778 q 530 776 510 778 q 569 771 550 776 l 569 706 m 198 1107 l 327 853 l 272 853 l 112 1107 l 198 1107 m 415 1109 l 544 854 l 489 854 l 329 1109 l 415 1109 "},"∇":{"x_min":42.046875,"x_max":904,"ha":950,"o":"m 471 69 l 806 957 l 134 957 l 471 69 m 904 1013 l 517 0 l 427 0 l 42 1013 l 904 1013 "},"꜒":{"x_min":145,"x_max":517.140625,"ha":685,"o":"m 214 0 l 145 0 l 145 928 l 517 928 l 517 871 l 214 871 l 214 0 "},"ԛ":{"x_min":159,"x_max":771,"ha":882,"o":"m 303 643 q 225 379 225 564 q 303 114 225 193 q 468 35 381 35 q 631 114 552 35 q 709 379 709 193 q 631 643 709 564 q 468 723 552 723 q 303 643 381 723 m 710 172 q 617 36 667 73 q 472 -19 540 -19 q 248 89 337 -19 q 159 379 159 199 q 248 668 159 558 q 472 778 337 778 q 617 721 540 778 q 710 586 667 685 l 710 760 l 771 760 l 771 -289 l 710 -289 l 710 172 "},"Ί":{"x_min":-12.765625,"x_max":398,"ha":568,"o":"m 177 1111 l 263 1111 l 42 856 l -12 856 l 177 1111 m 327 1013 l 398 1013 l 398 0 l 327 0 l 327 1013 "},"ӛ":{"x_min":110,"x_max":749,"ha":854,"o":"m 468 1052 l 532 1052 l 532 971 l 468 971 l 468 1052 m 278 1052 l 340 1052 l 340 971 l 278 971 l 278 1052 m 110 346 l 110 386 l 686 386 q 614 642 686 569 q 381 724 536 724 q 273 706 340 724 q 139 653 205 688 l 139 719 q 276 762 206 747 q 388 778 347 778 q 652 683 563 778 q 749 386 749 581 q 660 83 749 183 q 410 -20 570 -20 q 185 78 261 -20 q 110 346 110 181 m 173 333 q 244 99 173 173 q 408 34 305 34 q 598 102 522 34 q 683 333 669 165 l 173 333 "},"ń":{"x_min":157,"x_max":731,"ha":880,"o":"m 486 1115 l 572 1115 l 351 861 l 296 861 l 486 1115 m 731 458 l 731 0 l 668 0 l 668 454 q 621 662 668 602 q 481 723 573 723 q 296 657 373 723 q 219 429 219 592 l 219 0 l 157 0 l 157 760 l 219 760 l 219 617 q 306 723 252 686 q 484 778 386 778 q 663 701 596 778 q 731 458 731 625 "},"ἒ":{"x_min":123,"x_max":656,"ha":750,"o":"m 425 1111 l 615 857 l 560 857 l 339 1111 l 425 1111 m 254 949 q 128 828 254 828 l 128 882 q 187 949 187 882 l 187 990 l 130 990 l 130 1120 l 254 1120 l 254 949 m 267 408 q 174 469 208 423 q 142 576 142 512 q 207 723 142 667 q 396 779 273 779 q 505 766 448 779 q 630 729 563 754 l 630 667 q 510 709 564 696 q 407 723 455 723 q 235 668 275 723 q 205 563 205 626 q 258 470 205 506 q 402 434 311 434 l 508 434 l 508 381 l 404 381 q 244 339 299 381 q 185 220 185 293 q 241 82 185 130 q 429 34 296 34 q 566 63 489 34 q 656 102 623 84 l 656 44 q 538 -4 595 12 q 396 -20 480 -20 q 194 41 265 -20 q 123 220 123 103 q 161 343 123 290 q 267 408 197 393 "}," ":{"x_min":0,"x_max":0,"ha":347},"ἑ":{"x_min":123,"x_max":656,"ha":750,"o":"m 323 949 q 323 1120 323 949 l 446 1120 l 446 990 l 389 990 l 389 949 q 448 882 389 882 l 448 828 q 323 949 323 828 m 267 408 q 174 469 208 423 q 142 576 142 512 q 207 723 142 667 q 396 779 273 779 q 505 766 448 779 q 630 729 563 754 l 630 667 q 510 709 564 696 q 407 723 455 723 q 235 668 275 723 q 205 563 205 626 q 258 470 205 506 q 401 434 311 434 l 508 434 l 508 381 l 403 381 q 244 339 299 381 q 185 220 185 293 q 241 82 185 130 q 429 34 296 34 q 566 63 489 34 q 656 102 623 84 l 656 44 q 538 -4 595 12 q 396 -20 480 -20 q 194 41 265 -20 q 123 220 123 103 q 161 343 123 290 q 267 408 197 393 "},"Ь":{"x_min":170,"x_max":815,"ha":953,"o":"m 170 0 l 170 1012 l 239 1012 l 239 559 l 500 559 q 733 487 651 559 q 815 282 815 416 q 732 73 815 147 q 499 0 650 0 l 170 0 m 239 54 l 493 54 q 684 110 622 54 q 747 280 747 165 q 684 450 747 395 q 493 505 622 505 l 239 505 l 239 54 "},"̅":{"x_min":-708,"x_max":14,"ha":1,"o":"m 14 1005 l 14 952 l -708 952 l -708 1005 l 14 1005 "},"̸":{"x_min":-1017.9375,"x_max":-86.8125,"ha":0,"o":"m -1017 0 l -134 1047 l -86 1005 l -969 -40 l -1017 0 "},"ᾯ":{"x_min":23,"x_max":1243,"ha":1322,"o":"m 860 -289 l 819 -289 q 736 -164 736 -289 l 736 -62 l 787 -62 l 787 -173 q 839 -244 787 -244 l 860 -244 l 860 -289 m 223 1221 l 184 1258 q 158 1278 175 1267 q 138 1285 147 1285 q 100 1260 112 1285 q 88 1180 88 1235 l 23 1180 q 52 1299 23 1257 q 134 1342 82 1342 q 182 1332 160 1342 q 228 1300 207 1321 l 267 1263 q 293 1243 276 1254 q 313 1237 304 1237 q 352 1261 339 1237 q 364 1342 364 1286 l 427 1342 q 397 1225 427 1270 q 317 1180 369 1180 q 270 1189 291 1180 q 223 1221 244 1200 m 164 950 q 164 1120 164 950 l 287 1120 l 287 990 l 230 990 l 230 949 q 289 883 230 883 l 289 829 q 164 950 164 829 m 361 552 q 480 898 361 762 q 791 1033 600 1033 q 1101 898 981 1033 q 1222 552 1222 763 q 1160 283 1222 399 q 959 57 1099 167 l 1243 57 l 1243 0 l 850 0 l 850 54 q 1070 261 991 130 q 1150 549 1150 391 q 1051 861 1150 744 q 791 979 952 979 q 530 861 629 979 q 432 549 432 743 q 511 261 432 394 q 737 54 588 130 l 737 0 l 340 0 l 340 57 l 627 57 q 421 283 485 162 q 361 552 361 399 "},"¤":{"x_min":83.453125,"x_max":800.65625,"ha":883,"o":"m 602 645 l 753 796 l 800 746 l 652 597 q 687 536 675 567 q 706 437 706 487 q 688 338 706 382 q 650 275 673 304 l 800 125 l 753 75 l 600 228 q 544 196 573 207 q 440 176 494 176 q 337 196 383 176 q 282 227 307 208 l 130 75 l 83 125 l 232 274 q 194 338 206 306 q 175 437 175 386 q 193 536 175 482 q 230 597 206 574 l 83 746 l 130 796 l 280 646 q 337 679 307 667 q 440 700 387 700 q 544 679 502 700 q 602 645 583 661 m 644 436 q 583 586 644 523 q 440 646 526 646 q 299 586 359 646 q 237 436 237 528 q 299 288 237 352 q 440 228 357 228 q 583 288 520 228 q 644 436 644 347 "},"Ǣ":{"x_min":37.5,"x_max":1264.34375,"ha":1353,"o":"m 637 1251 l 1043 1251 l 1043 1191 l 637 1191 l 637 1251 m 1251 1013 l 1251 957 l 752 957 l 752 567 l 1230 567 l 1230 513 l 753 513 l 753 54 l 1264 54 l 1264 0 l 684 0 l 684 318 l 243 318 l 110 0 l 37 0 l 461 1013 l 1251 1013 m 511 957 l 266 374 l 683 374 l 683 957 l 511 957 "},"Ɨ":{"x_min":33,"x_max":376,"ha":409,"o":"m 168 1013 l 239 1013 l 239 553 l 376 553 l 376 499 l 239 499 l 239 0 l 168 0 l 168 499 l 33 499 l 33 553 l 168 553 l 168 1013 "},"p":{"x_min":159,"x_max":771,"ha":882,"o":"m 220 172 l 220 -289 l 159 -289 l 159 760 l 220 760 l 220 586 q 312 721 262 685 q 457 778 389 778 q 681 668 592 778 q 771 379 771 558 q 681 89 771 199 q 457 -19 592 -19 q 312 36 389 -19 q 220 172 262 73 m 626 114 q 705 379 705 193 q 626 643 705 564 q 461 723 548 723 q 298 643 377 723 q 220 379 220 564 q 298 114 220 193 q 461 35 377 35 q 626 114 548 35 "},"Ἤ":{"x_min":18,"x_max":1254,"ha":1426,"o":"m 368 1111 l 455 1111 l 234 856 l 178 856 l 368 1111 m 144 950 q 18 829 144 829 l 18 883 q 77 949 77 883 l 77 990 l 20 990 l 20 1120 l 144 1120 l 144 950 m 550 1013 l 619 1013 l 619 567 l 1185 567 l 1185 1013 l 1254 1013 l 1254 0 l 1185 0 l 1185 513 l 619 513 l 619 0 l 550 0 l 550 1013 "},"ր":{"x_min":157,"x_max":731,"ha":880,"o":"m 731 458 l 731 0 l 668 0 l 668 454 q 621 662 668 602 q 481 723 573 723 q 296 657 373 723 q 219 429 219 592 l 219 -289 l 157 -289 l 157 760 l 219 760 l 219 617 q 306 723 252 686 q 484 778 386 778 q 663 701 596 778 q 731 458 731 625 "},"ο":{"x_min":110,"x_max":739.390625,"ha":850,"o":"m 609 629 q 426 723 542 723 q 242 630 310 723 q 175 380 175 537 q 242 126 175 219 q 426 34 309 34 q 609 126 542 34 q 677 380 677 220 q 609 629 677 535 m 425 778 q 654 669 570 778 q 739 379 739 560 q 654 85 739 193 q 425 -23 570 -23 q 194 84 278 -23 q 110 379 110 192 q 194 670 110 562 q 425 778 279 778 "},"Ḛ":{"x_min":169,"x_max":753.421875,"ha":878,"o":"m 465 -195 l 427 -158 q 400 -138 417 -149 q 380 -132 389 -132 q 342 -156 354 -132 q 330 -236 330 -181 l 265 -236 q 294 -116 265 -159 q 376 -75 324 -75 q 424 -84 402 -75 q 471 -116 449 -95 l 509 -153 q 536 -173 519 -162 q 556 -180 547 -180 q 594 -155 582 -180 q 607 -75 607 -130 l 669 -75 q 640 -191 669 -146 q 560 -236 611 -236 q 512 -227 534 -236 q 465 -195 487 -216 m 169 1013 l 741 1013 l 741 957 l 238 957 l 238 567 l 720 567 l 720 513 l 238 513 l 238 54 l 753 54 l 753 0 l 169 0 l 169 1013 "},"ɉ":{"x_min":-25,"x_max":367,"ha":386,"o":"m 162 1055 l 225 1055 l 225 970 l 162 970 l 162 1055 m 162 760 l 225 760 l 225 425 l 367 425 l 367 372 l 225 372 l 225 -13 q 178 -228 225 -168 q 22 -289 130 -289 l -25 -289 l -25 -236 l 8 -236 q 123 -202 84 -236 q 162 -13 162 -168 l 162 372 l 10 372 l 10 425 l 162 425 l 162 760 "},"ϲ":{"x_min":95,"x_max":678,"ha":764,"o":"m 678 723 l 678 656 q 585 703 621 691 q 464 723 521 723 q 228 638 299 723 q 157 379 157 554 q 228 118 157 202 q 464 34 299 34 q 571 48 518 34 q 678 92 625 63 l 678 29 q 570 -7 625 4 q 458 -20 513 -20 q 193 70 291 -20 q 95 379 95 161 q 193 687 95 596 q 458 778 291 778 q 574 762 513 778 q 678 723 635 747 "},"̨":{"x_min":-454,"x_max":-189.578125,"ha":0,"o":"m -384 0 l -326 0 q -374 -80 -359 -47 q -391 -136 -391 -113 q -368 -189 -391 -171 q -303 -208 -346 -208 q -241 -202 -268 -208 q -189 -183 -214 -196 l -189 -246 q -245 -257 -217 -253 q -302 -262 -272 -262 q -416 -232 -377 -262 q -454 -142 -454 -201 q -437 -76 -454 -110 q -384 0 -419 -41 "},"Ӭ":{"x_min":115,"x_max":894,"ha":969,"o":"m 115 78 l 115 159 q 438 34 254 34 q 721 155 622 34 q 821 478 821 276 l 247 478 l 247 531 l 818 531 q 720 857 818 740 q 429 975 621 975 q 115 850 251 975 l 115 928 q 437 1031 254 1031 q 771 889 649 1031 q 894 505 894 748 q 771 120 894 261 q 437 -20 649 -20 q 115 78 258 -20 m 480 1268 l 542 1268 l 542 1186 l 480 1186 l 480 1268 m 289 1268 l 353 1268 l 353 1186 l 289 1186 l 289 1268 "},"ʦ":{"x_min":96,"x_max":1024.390625,"ha":1145,"o":"m 989 737 l 989 669 q 907 709 924 705 q 789 722 860 722 q 621 680 682 722 q 575 559 575 645 q 619 469 575 502 q 752 415 665 434 l 795 405 q 959 338 903 382 q 1024 209 1024 288 q 962 40 1024 101 q 744 -20 894 -20 q 617 -8 660 -20 q 507 27 564 6 l 507 0 l 410 0 q 252 54 317 0 q 187 250 187 108 l 187 707 l 96 707 l 96 760 l 187 760 l 187 975 l 250 975 l 250 760 l 507 760 l 507 707 l 250 707 l 250 250 q 272 128 250 163 q 406 53 318 53 l 507 53 l 507 105 q 614 51 589 58 q 747 34 681 34 q 909 79 856 34 q 962 200 962 125 q 926 291 962 262 q 764 357 876 331 l 721 367 q 575 430 625 390 q 512 554 512 481 q 588 725 512 673 q 774 778 664 778 q 905 768 869 778 q 989 737 948 755 "},"῭":{"x_min":138.265625,"x_max":475,"ha":695,"o":"m 411 1052 l 475 1052 l 475 971 l 411 971 l 411 1052 m 221 1052 l 283 1052 l 283 971 l 221 971 l 221 1052 m 223 1358 l 415 1104 l 359 1104 l 138 1358 l 223 1358 "},"ђ":{"x_min":57,"x_max":744,"ha":868,"o":"m 57 708 l 57 760 l 157 760 l 157 1055 l 220 1055 l 220 760 l 591 760 l 591 708 l 220 708 l 220 423 q 303 531 241 480 q 486 582 364 582 q 676 500 609 582 q 744 196 744 419 q 652 -118 744 12 q 421 -288 561 -248 l 421 -236 q 599 -91 516 -199 q 681 196 681 16 q 632 466 681 404 q 468 527 582 527 q 287 459 354 527 q 220 233 220 391 l 220 0 l 157 0 l 157 708 l 57 708 "},"ϕ":{"x_min":113,"x_max":803,"ha":917,"o":"m 427 32 l 427 727 q 254 641 344 727 q 174 379 174 563 q 250 117 174 209 q 427 32 322 32 m 490 1048 l 490 776 q 723 672 644 776 q 803 380 803 569 q 720 87 803 196 q 490 -16 642 -16 l 490 -289 l 426 -289 l 426 -17 q 192 86 270 -17 q 113 379 113 192 q 194 671 113 562 q 426 775 271 775 l 426 1048 l 490 1048 m 489 32 q 661 117 573 32 q 742 379 742 194 q 664 641 742 548 q 489 727 592 727 l 489 32 "},"y":{"x_min":74.734375,"x_max":747.484375,"ha":822,"o":"m 413 -70 q 326 -209 373 -171 q 202 -262 263 -262 l 110 -262 l 110 -209 l 189 -209 q 276 -177 238 -209 q 355 -55 324 -135 l 377 0 l 74 760 l 141 760 l 411 83 l 681 760 l 747 760 l 413 -70 "},"‗":{"x_min":-13,"x_max":709,"ha":696,"o":"m 709 -275 l 709 -328 l -13 -328 l -13 -275 l 709 -275 m 709 -57 l 709 -110 l -13 -110 l -13 -57 l 709 -57 "},"ˊ":{"x_min":251.59375,"x_max":528.296875,"ha":671,"o":"m 441 1111 l 528 1111 l 307 856 l 251 856 l 441 1111 "},"ḓ":{"x_min":159,"x_max":771,"ha":882,"o":"m 710 586 l 710 1055 l 771 1055 l 771 0 l 710 0 l 710 172 q 617 36 667 73 q 472 -19 540 -19 q 248 89 337 -19 q 159 379 159 199 q 248 668 159 558 q 472 778 337 778 q 617 721 540 778 q 710 586 667 685 m 303 643 q 225 379 225 564 q 303 114 225 193 q 468 35 381 35 q 631 114 552 35 q 709 379 709 193 q 631 643 709 564 q 468 723 552 723 q 303 643 381 723 m 383 -79 l 441 -79 l 606 -334 l 552 -334 l 412 -144 l 271 -334 l 217 -334 l 383 -79 "},"∵":{"x_min":18,"x_max":612,"ha":884,"o":"m 18 780 l 89 780 l 89 695 l 18 695 l 18 780 m 279 253 l 350 253 l 350 168 l 279 168 l 279 253 m 541 780 l 612 780 l 612 695 l 541 695 l 541 780 "},"ë":{"x_min":110,"x_max":749,"ha":854,"o":"m 749 411 l 749 372 l 173 372 q 244 115 173 188 q 478 34 322 34 q 585 51 518 34 q 720 104 653 69 l 720 38 q 582 -4 652 10 q 470 -20 511 -20 q 206 75 295 -20 q 110 371 110 176 q 198 674 110 574 q 448 778 288 778 q 673 679 597 778 q 749 411 749 576 m 686 425 q 614 658 686 584 q 450 723 554 723 q 260 655 337 723 q 175 425 189 592 l 686 425 m 505 1053 l 569 1053 l 569 972 l 505 972 l 505 1053 m 315 1053 l 378 1053 l 378 972 l 315 972 l 315 1053 "},"꜔":{"x_min":145,"x_max":517.140625,"ha":685,"o":"m 214 0 l 145 0 l 145 928 l 214 928 l 214 510 l 517 510 l 517 452 l 214 452 l 214 0 "},"б":{"x_min":110,"x_max":739.390625,"ha":850,"o":"m 110 379 l 110 519 q 125 802 110 722 q 283 1011 152 937 q 569 1066 379 1066 q 689 1078 652 1066 l 711 1014 q 659 991 678 991 q 518 991 641 991 q 337 953 396 991 q 181 689 181 876 l 181 648 l 194 670 q 424 778 279 778 q 654 669 570 778 q 739 377 739 560 q 654 85 739 194 q 424 -23 569 -23 q 194 84 278 -23 q 110 379 110 192 m 175 378 q 242 126 175 219 q 426 34 309 34 q 609 127 542 34 q 677 377 677 220 q 609 629 677 535 q 426 723 542 723 q 242 630 310 723 q 175 378 175 537 "},"ȟ":{"x_min":0.34375,"x_max":731,"ha":880,"o":"m 731 458 l 731 0 l 668 0 l 668 454 q 619 662 668 600 q 469 723 569 723 q 286 655 353 723 q 219 429 219 587 l 219 0 l 157 0 l 157 1055 l 219 1055 l 219 619 q 296 723 241 677 q 484 778 363 778 q 663 697 596 778 q 731 458 731 615 m 166 1109 l 0 1289 l 54 1289 l 195 1174 l 336 1289 l 389 1289 l 224 1109 l 166 1109 "},"Ẏ":{"x_min":30.9375,"x_max":816.078125,"ha":849,"o":"m 30 1013 l 109 1013 l 424 546 l 738 1013 l 816 1013 l 458 482 l 458 0 l 389 0 l 389 482 l 30 1013 m 391 1216 l 454 1216 l 454 1129 l 391 1129 l 391 1216 "},"⇈":{"x_min":98.8125,"x_max":1066.171875,"ha":1165,"o":"m 772 1017 l 799 1017 l 1066 750 l 1018 702 l 820 900 l 820 0 l 752 0 l 752 900 l 582 730 l 413 900 l 413 0 l 345 0 l 345 900 l 146 702 l 98 750 l 365 1017 l 392 1017 l 582 827 l 772 1017 "},"ṝ":{"x_min":159,"x_max":569.921875,"ha":571,"o":"m 569 706 q 529 719 555 713 q 471 723 506 723 q 279 637 355 723 q 220 400 220 568 l 220 0 l 159 0 l 159 760 l 220 760 l 220 617 q 305 720 250 678 q 484 778 381 778 q 531 776 511 778 q 569 771 551 776 l 569 706 m 164 -167 l 227 -167 l 227 -256 l 164 -256 l 164 -167 m 161 1035 l 567 1035 l 567 975 l 161 975 l 161 1035 "},"‐":{"x_min":68,"x_max":434,"ha":502,"o":"m 68 409 l 434 409 l 434 353 l 68 353 l 68 409 "},"Ȥ":{"x_min":62.3125,"x_max":889,"ha":951,"o":"m 78 1013 l 874 1013 l 874 958 l 143 56 l 889 56 l 889 -10 q 842 -225 889 -165 q 687 -286 794 -286 l 640 -286 l 640 -233 l 673 -233 q 788 -199 743 -233 q 826 -10 826 -170 l 826 0 l 62 0 l 62 55 l 790 957 l 78 957 l 78 1013 "},"Ꙭ":{"x_min":113,"x_max":1775,"ha":1886,"o":"m 511 544 l 582 544 l 582 459 l 511 459 l 511 544 m 1303 544 l 1374 544 l 1374 459 l 1303 459 l 1303 544 m 547 1031 q 861 888 743 1031 q 944 740 914 824 q 1026 888 973 824 q 1342 1031 1144 1031 q 1656 888 1538 1031 q 1775 505 1775 745 q 1656 123 1775 265 q 1342 -20 1538 -20 q 1026 122 1144 -20 q 944 270 973 186 q 861 123 914 187 q 547 -20 743 -20 q 231 122 349 -20 q 113 505 113 264 q 231 888 113 745 q 547 1031 349 1031 m 811 851 q 547 978 713 978 q 282 851 381 978 q 185 505 185 724 q 282 160 185 287 q 547 34 381 34 q 811 160 713 34 q 908 505 908 287 q 811 851 908 724 m 1606 851 q 1342 978 1508 978 q 1077 851 1176 978 q 980 505 980 724 q 1077 160 980 287 q 1342 34 1176 34 q 1606 160 1508 34 q 1703 505 1703 287 q 1606 851 1703 724 "},"ⅷ":{"x_min":88.609375,"x_max":1458.828125,"ha":1626,"o":"m 88 760 l 153 760 l 411 68 l 668 760 l 734 760 l 451 0 l 371 0 l 88 760 m 897 760 l 959 760 l 959 0 l 897 0 l 897 760 m 897 1055 l 959 1055 l 959 970 l 897 970 l 897 1055 m 1146 760 l 1209 760 l 1209 0 l 1146 0 l 1146 760 m 1146 1055 l 1209 1055 l 1209 970 l 1146 970 l 1146 1055 m 1396 760 l 1458 760 l 1458 0 l 1396 0 l 1396 760 m 1396 1055 l 1458 1055 l 1458 970 l 1396 970 l 1396 1055 "},"ʋ":{"x_min":159,"x_max":689,"ha":831,"o":"m 377 0 l 304 0 q 189 46 219 0 q 159 192 159 92 l 159 760 l 220 760 l 220 190 q 236 83 220 111 q 314 52 255 52 l 377 52 q 553 132 495 52 q 622 347 622 225 q 572 550 622 454 q 474 668 534 623 l 552 668 q 639 551 607 612 q 689 345 689 459 q 602 99 689 216 q 377 0 529 0 "},"":{"x_min":262.015625,"x_max":686.84375,"ha":949,"o":"m 468 1534 q 598 1411 598 1534 q 585 1343 598 1382 q 505 1276 571 1298 l 505 1216 l 445 1216 l 445 1289 q 521 1331 498 1300 q 536 1399 536 1350 q 454 1486 536 1486 q 348 1459 392 1486 l 348 1508 q 468 1534 394 1534 m 262 1274 l 322 1274 q 371 1195 331 1224 q 474 1167 409 1167 q 576 1193 538 1167 q 626 1274 614 1220 l 686 1274 q 625 1152 680 1193 q 474 1110 571 1110 q 322 1151 376 1110 q 262 1274 268 1192 "},"ц":{"x_min":156,"x_max":848,"ha":946,"o":"m 156 759 l 218 759 l 218 53 l 691 53 l 691 759 l 753 759 l 753 53 l 848 53 l 848 -192 l 795 -192 l 795 0 l 156 0 l 156 759 "},"w":{"x_min":88.15625,"x_max":1007.765625,"ha":1136,"o":"m 88 760 l 152 760 l 330 82 l 507 760 l 587 760 l 765 79 l 943 760 l 1007 760 l 809 0 l 722 0 l 547 666 l 373 0 l 287 0 l 88 760 "},"Ԕ":{"x_min":71,"x_max":1546.640625,"ha":1625,"o":"m 71 -18 l 71 40 q 260 239 193 72 q 340 821 340 438 l 340 1013 l 872 1013 l 1156 587 l 1440 1013 l 1519 1013 l 1194 530 l 1546 0 l 1468 0 l 1151 476 l 832 0 l 754 0 l 1112 535 l 832 957 l 408 957 l 408 754 q 326 218 408 421 q 71 -18 246 19 "},"о":{"x_min":110,"x_max":739.390625,"ha":850,"o":"m 609 629 q 426 723 542 723 q 242 630 310 723 q 175 380 175 537 q 242 126 175 219 q 426 34 309 34 q 609 126 542 34 q 677 380 677 220 q 609 629 677 535 m 425 778 q 654 669 570 778 q 739 379 739 560 q 654 85 739 193 q 425 -23 570 -23 q 194 84 278 -23 q 110 379 110 192 q 194 670 110 562 q 425 778 279 778 "},"Д":{"x_min":111,"x_max":967,"ha":1078,"o":"m 275 54 l 803 54 l 803 957 l 407 957 l 407 738 q 317 134 407 379 q 275 54 301 91 m 111 -217 l 111 54 l 166 54 q 272 189 242 96 q 340 821 340 405 l 340 1013 l 872 1013 l 872 54 l 967 54 l 967 -218 l 911 -218 l 911 0 l 167 0 l 167 -217 l 111 -217 "},"Ⅴ":{"x_min":42.046875,"x_max":904,"ha":950,"o":"m 428 0 l 42 1013 l 119 1013 l 474 67 l 832 1013 l 904 1013 l 518 0 l 428 0 "},"↙":{"x_min":207,"x_max":960.265625,"ha":1164,"o":"m 912 804 l 960 756 l 324 120 l 603 120 l 603 52 l 226 52 l 207 71 l 207 448 l 276 448 l 276 168 l 912 804 "},"ꜧ":{"x_min":157,"x_max":731,"ha":880,"o":"m 668 454 q 619 662 668 601 q 469 723 569 723 q 286 655 353 723 q 219 429 219 587 l 219 0 l 157 0 l 157 1055 l 219 1055 l 219 619 q 296 723 241 676 q 484 778 363 778 q 663 697 596 778 q 731 458 731 615 l 731 0 q 684 -214 731 -154 q 528 -275 636 -275 l 481 -275 l 481 -222 l 514 -222 q 629 -188 590 -222 q 668 0 668 -154 l 668 454 "},"ӣ":{"x_min":157,"x_max":757,"ha":914,"o":"m 238 1035 l 644 1035 l 644 975 l 238 975 l 238 1035 m 157 0 l 157 760 l 219 760 l 219 67 l 664 760 l 757 760 l 757 0 l 694 0 l 694 693 l 247 0 l 157 0 "},"Ḯ":{"x_min":79,"x_max":385.96875,"ha":409,"o":"m 270 1243 l 332 1243 l 332 1161 l 270 1161 l 270 1243 m 79 1243 l 143 1243 l 143 1161 l 79 1161 l 79 1243 m 308 1449 l 385 1449 l 232 1271 l 176 1271 l 308 1449 m 168 1013 l 239 1013 l 239 0 l 168 0 l 168 1013 "},"Ӂ":{"x_min":79.6875,"x_max":1363.3125,"ha":1443,"o":"m 506 1289 l 566 1289 q 615 1210 576 1238 q 718 1182 654 1182 q 820 1208 782 1182 q 870 1289 858 1234 l 930 1289 q 869 1167 923 1208 q 718 1125 815 1125 q 566 1166 620 1125 q 506 1289 513 1207 m 79 0 l 489 609 l 95 1013 l 185 1013 l 688 499 l 688 1013 l 755 1013 l 755 499 l 1257 1013 l 1347 1013 l 953 609 l 1363 0 l 1274 0 l 900 555 l 755 407 l 755 0 l 688 0 l 688 407 l 542 555 l 168 0 l 79 0 "},"Ḁ":{"x_min":41.140625,"x_max":903.515625,"ha":950,"o":"m 473 -268 q 529 -244 506 -268 q 553 -187 553 -221 q 529 -131 553 -154 q 473 -108 506 -108 q 416 -131 439 -108 q 393 -187 393 -154 q 416 -244 393 -221 q 473 -268 439 -268 m 618 -188 q 575 -291 618 -249 q 473 -334 533 -334 q 370 -291 412 -334 q 328 -188 328 -249 q 370 -86 328 -128 q 473 -44 412 -44 q 575 -86 533 -44 q 618 -188 618 -128 m 470 943 l 254 374 l 684 374 l 470 943 m 427 1012 l 516 1012 l 903 0 l 826 0 l 705 318 l 233 318 l 113 0 l 41 0 l 427 1012 "},"Ὁ":{"x_min":25,"x_max":1065,"ha":1178,"o":"m 25 950 q 25 1120 25 950 l 148 1120 l 148 990 l 91 990 l 91 949 q 150 883 91 883 l 150 829 q 25 950 25 829 m 896 851 q 632 978 798 978 q 367 851 466 978 q 270 505 270 724 q 367 160 270 287 q 632 34 466 34 q 896 160 798 34 q 993 505 993 287 q 896 851 993 724 m 632 1031 q 946 888 828 1031 q 1065 505 1065 745 q 946 123 1065 265 q 632 -20 828 -20 q 316 122 434 -20 q 198 505 198 264 q 316 888 198 745 q 632 1031 434 1031 "},"Ĵ":{"x_min":7,"x_max":398.40625,"ha":409,"o":"m 175 1289 l 232 1289 l 398 1109 l 344 1109 l 204 1223 l 63 1109 l 9 1109 l 175 1289 m 169 1013 l 237 1013 l 237 70 q 192 -171 237 -96 q 48 -247 147 -247 l 7 -247 l 7 -191 l 40 -191 q 139 -133 110 -191 q 169 70 169 -76 l 169 1013 "},"Ẻ":{"x_min":169,"x_max":753.421875,"ha":878,"o":"m 460 1428 q 590 1306 590 1428 q 577 1238 590 1276 q 497 1170 563 1192 l 497 1110 l 437 1110 l 437 1183 q 513 1225 490 1194 q 528 1293 528 1244 q 446 1380 528 1380 q 340 1353 384 1380 l 340 1402 q 460 1428 386 1428 m 169 1013 l 741 1013 l 741 957 l 238 957 l 238 567 l 720 567 l 720 513 l 238 513 l 238 54 l 753 54 l 753 0 l 169 0 l 169 1013 "},"ô":{"x_min":110,"x_max":739.390625,"ha":850,"o":"m 609 629 q 426 723 542 723 q 242 630 310 723 q 175 380 175 537 q 242 126 175 219 q 426 34 309 34 q 609 126 542 34 q 677 380 677 220 q 609 629 677 535 m 425 778 q 654 669 570 778 q 739 379 739 560 q 654 85 739 193 q 425 -23 570 -23 q 194 84 278 -23 q 110 379 110 192 q 194 670 110 562 q 425 778 279 778 m 397 1111 l 455 1111 l 620 856 l 567 856 l 426 1045 l 285 856 l 231 856 l 397 1111 "},"ᚚ":{"x_min":-13,"x_max":963,"ha":950,"o":"m 124 198 l 813 198 l 813 142 l 124 142 l 124 198 m -13 426 l 963 426 l 963 370 l -13 370 l -13 426 "},"г":{"x_min":167,"x_max":628.4375,"ha":683,"o":"m 167 0 l 167 760 l 628 760 l 628 707 l 229 707 l 229 0 l 167 0 "},"ấ":{"x_min":114,"x_max":754.359375,"ha":851,"o":"m 364 1037 l 421 1037 l 587 857 l 533 857 l 393 971 l 252 857 l 198 857 l 364 1037 m 676 1199 l 754 1199 l 599 1019 l 543 1019 l 676 1199 m 461 429 q 244 375 310 429 q 178 218 178 321 q 232 76 178 118 q 363 34 287 34 q 567 154 505 34 q 630 382 630 275 l 630 429 l 461 429 m 694 433 l 694 0 l 632 0 l 632 206 q 493 13 579 55 q 357 -20 425 -20 q 179 40 244 -20 q 114 219 114 101 q 198 408 114 338 q 476 480 283 480 l 630 480 l 630 492 q 573 658 630 593 q 384 723 516 723 q 251 698 319 723 q 139 635 208 683 l 139 702 q 251 755 199 740 q 397 778 327 778 q 618 696 531 778 q 694 433 694 626 "},"Ŀ":{"x_min":170,"x_max":731.03125,"ha":774,"o":"m 565 591 l 636 591 l 636 506 l 565 506 l 565 591 m 170 1013 l 238 1013 l 238 56 l 731 56 l 731 0 l 170 0 l 170 1013 "},"ᚓ":{"x_min":-13,"x_max":1611,"ha":1598,"o":"m -13 426 l 312 426 l 312 740 l 374 740 l 374 426 l 615 426 l 615 740 l 678 740 l 678 426 l 919 426 l 919 740 l 982 740 l 982 426 l 1223 426 l 1223 740 l 1285 740 l 1285 426 l 1611 426 l 1611 370 l 1285 370 l 1285 56 l 1223 56 l 1223 370 l 982 370 l 982 56 l 919 56 l 919 370 l 678 370 l 678 56 l 615 56 l 615 370 l 374 370 l 374 56 l 312 56 l 312 370 l -13 370 l -13 426 "},"ᾄ":{"x_min":111,"x_max":827,"ha":915,"o":"m 465 -289 l 424 -289 q 341 -164 341 -289 l 341 -62 l 392 -62 l 392 -173 q 444 -244 392 -244 l 465 -244 l 465 -289 m 575 1111 l 662 1111 l 441 856 l 385 856 l 575 1111 m 351 950 q 225 829 351 829 l 225 883 q 284 949 284 883 l 284 990 l 227 990 l 227 1120 l 351 1120 l 351 950 m 595 353 l 561 531 q 387 724 524 724 q 233 639 288 724 q 173 381 173 543 q 232 120 173 203 q 387 34 292 34 q 548 204 493 34 l 595 353 m 392 777 q 637 475 602 777 l 732 760 l 797 760 l 658 348 l 686 199 q 728 77 703 107 q 785 54 748 54 l 827 54 l 827 0 l 774 0 q 667 55 707 0 q 616 225 647 82 q 513 35 590 116 q 392 -16 465 -16 q 182 85 250 -16 q 111 379 111 191 q 201 687 111 565 q 392 777 268 777 "},"⸘":{"x_min":105,"x_max":609.953125,"ha":745,"o":"m 345 739 l 415 739 l 415 634 q 412 571 415 602 l 412 443 l 412 39 q 470 54 446 44 q 595 144 544 86 l 609 70 q 489 -1 542 13 q 350 -20 427 -20 q 180 45 256 -20 q 105 219 105 111 q 129 317 105 270 q 215 422 152 361 l 274 480 q 319 530 304 509 q 338 565 332 548 q 345 599 342 579 q 345 655 345 620 l 345 739 m 416 926 l 347 926 l 347 1011 l 416 1011 l 416 926 m 350 460 q 311 419 334 441 l 251 359 q 195 291 210 318 q 178 226 178 259 q 222 87 178 140 q 343 34 267 34 q 350 34 347 34 l 350 443 l 350 460 "},"ը":{"x_min":157,"x_max":731,"ha":880,"o":"m 731 458 l 731 0 l 668 0 l 668 454 q 621 662 668 602 q 481 723 573 723 q 296 657 373 723 q 219 429 219 592 l 219 -236 l 731 -236 l 731 -289 l 157 -289 l 157 759 l 219 759 l 219 617 q 306 723 252 685 q 484 778 387 778 q 663 701 596 778 q 731 458 731 625 "},"ᾙ":{"x_min":25,"x_max":988,"ha":1160,"o":"m 695 -289 l 654 -289 q 571 -164 571 -289 l 571 -62 l 622 -62 l 622 -173 q 674 -244 622 -244 l 695 -244 l 695 -289 m 25 950 q 25 1120 25 950 l 148 1120 l 148 990 l 91 990 l 91 949 q 150 883 91 883 l 150 829 q 25 950 25 829 m 284 1013 l 353 1013 l 353 567 l 919 567 l 919 1013 l 988 1013 l 988 0 l 919 0 l 919 513 l 353 513 l 353 0 l 284 0 l 284 1013 "},"ꜰ":{"x_min":190,"x_max":606.390625,"ha":682,"o":"m 190 760 l 606 760 l 606 707 l 252 707 l 252 455 l 570 455 l 570 402 l 252 402 l 252 0 l 190 0 l 190 760 "},"Ἇ":{"x_min":23,"x_max":985.125,"ha":1031,"o":"m 223 1221 l 184 1258 q 158 1278 175 1267 q 138 1285 147 1285 q 100 1260 112 1285 q 88 1180 88 1235 l 23 1180 q 52 1299 23 1257 q 134 1342 82 1342 q 182 1332 160 1342 q 228 1300 207 1321 l 267 1263 q 293 1243 276 1254 q 313 1237 304 1237 q 352 1261 339 1237 q 364 1342 364 1286 l 427 1342 q 397 1225 427 1270 q 317 1180 369 1180 q 270 1189 291 1180 q 223 1221 244 1200 m 164 950 q 164 1120 164 950 l 287 1120 l 287 990 l 230 990 l 230 949 q 289 883 230 883 l 289 829 q 164 950 164 829 m 552 944 l 335 374 l 766 374 l 552 944 m 509 1012 l 597 1012 l 985 0 l 907 0 l 787 318 l 314 318 l 194 0 l 122 0 l 509 1012 "},"Ἃ":{"x_min":24,"x_max":1171.671875,"ha":1218,"o":"m 316 1111 l 507 857 l 452 857 l 231 1111 l 316 1111 m 24 950 q 24 1120 24 950 l 147 1120 l 147 990 l 90 990 l 90 949 q 149 883 90 883 l 149 829 q 24 950 24 829 m 739 944 l 522 374 l 952 374 l 739 944 m 695 1012 l 784 1012 l 1171 0 l 1094 0 l 973 318 l 500 318 l 380 0 l 309 0 l 695 1012 "},"ṇ":{"x_min":157,"x_max":731,"ha":880,"o":"m 731 458 l 731 0 l 668 0 l 668 454 q 621 662 668 602 q 481 723 573 723 q 296 657 373 723 q 219 429 219 592 l 219 0 l 157 0 l 157 760 l 219 760 l 219 617 q 306 723 252 686 q 484 778 386 778 q 663 701 596 778 q 731 458 731 625 m 412 -167 l 475 -167 l 475 -256 l 412 -256 l 412 -167 "},"ʟ":{"x_min":173,"x_max":668.359375,"ha":810,"o":"m 173 778 l 235 778 l 235 53 l 668 53 l 668 0 l 173 0 l 173 778 "},"Ǟ":{"x_min":41.78125,"x_max":904.859375,"ha":951,"o":"m 471 943 l 254 374 l 685 374 l 471 943 m 428 1012 l 517 1012 l 904 0 l 827 0 l 706 318 l 233 318 l 113 0 l 41 0 l 428 1012 m 539 1243 l 601 1243 l 601 1161 l 539 1161 l 539 1243 m 347 1243 l 411 1243 l 411 1161 l 347 1161 l 347 1243 m 271 1426 l 677 1426 l 677 1366 l 271 1366 l 271 1426 "},"ь":{"x_min":157,"x_max":703,"ha":819,"o":"m 219 53 l 434 53 q 589 91 539 53 q 640 210 640 130 q 588 332 640 293 q 434 371 537 371 l 219 371 l 219 53 m 157 0 l 157 759 l 219 759 l 219 424 l 439 424 q 632 371 562 424 q 703 211 703 318 q 634 52 703 104 q 439 0 566 0 l 157 0 "},"˷":{"x_min":144,"x_max":548,"ha":695,"o":"m 344 -195 l 305 -158 q 279 -138 296 -149 q 259 -132 268 -132 q 221 -156 233 -132 q 209 -237 209 -181 l 144 -237 q 173 -117 144 -159 q 255 -75 203 -75 q 303 -84 281 -75 q 350 -116 328 -95 l 388 -153 q 415 -173 398 -162 q 435 -180 426 -180 q 473 -155 461 -180 q 485 -75 485 -130 l 548 -75 q 518 -191 548 -146 q 438 -237 490 -237 q 391 -227 413 -237 q 344 -195 366 -216 "},"ὑ":{"x_min":134,"x_max":692,"ha":804,"o":"m 304 949 q 304 1120 304 949 l 427 1120 l 427 990 l 370 990 l 370 949 q 429 882 370 882 l 429 828 q 304 949 304 828 m 196 759 l 196 270 q 239 95 196 148 q 376 51 275 51 q 577 192 506 51 q 626 434 626 289 q 609 590 626 507 q 515 759 592 670 l 594 759 q 665 615 638 698 q 692 432 692 537 q 612 142 692 280 q 358 -1 529 -1 q 192 64 241 -1 q 134 274 134 144 l 134 759 l 196 759 "},"€":{"x_min":38.21875,"x_max":796,"ha":884,"o":"m 796 934 l 796 857 q 680 942 738 914 q 555 971 622 971 q 321 851 409 971 q 243 639 262 769 l 651 639 l 626 583 l 234 583 q 234 504 234 519 q 237 429 237 483 l 557 429 l 531 373 l 243 373 q 324 159 262 241 q 561 40 415 40 q 682 68 626 40 q 795 154 737 96 l 795 77 q 677 4 739 28 q 545 -20 615 -20 q 264 120 367 -20 q 170 373 191 220 l 43 373 l 68 429 l 163 429 q 163 504 163 490 q 165 583 165 526 l 38 583 l 63 639 l 171 639 q 265 889 192 790 q 546 1031 367 1031 q 678 1006 616 1031 q 796 934 741 982 "},"։":{"x_min":199,"x_max":268,"ha":467,"o":"m 199 87 l 268 87 l 268 0 l 199 0 l 199 87 m 199 667 l 268 667 l 268 581 l 199 581 l 199 667 "},"ƶ":{"x_min":60,"x_max":670,"ha":730,"o":"m 77 760 l 670 760 l 670 687 l 442 425 l 605 425 l 605 372 l 396 372 l 120 53 l 670 53 l 670 0 l 60 0 l 60 69 l 321 372 l 145 372 l 145 425 l 366 425 l 609 706 l 77 706 l 77 760 "},"Ὦ":{"x_min":25,"x_max":1200,"ha":1279,"o":"m 225 1221 l 186 1258 q 160 1278 177 1267 q 140 1285 149 1285 q 102 1260 114 1285 q 90 1180 90 1235 l 25 1180 q 54 1299 25 1257 q 136 1342 84 1342 q 184 1332 162 1342 q 230 1300 209 1321 l 269 1263 q 296 1243 278 1254 q 315 1237 306 1237 q 354 1261 341 1237 q 366 1342 366 1286 l 429 1342 q 399 1225 429 1270 q 319 1180 371 1180 q 272 1189 293 1180 q 225 1221 247 1200 m 285 950 q 159 829 285 829 l 159 883 q 218 949 218 883 l 218 990 l 161 990 l 161 1120 l 285 1120 l 285 950 m 318 552 q 437 898 318 762 q 748 1033 557 1033 q 1058 898 938 1033 q 1179 552 1179 763 q 1117 283 1179 399 q 916 57 1056 167 l 1200 57 l 1200 0 l 807 0 l 807 54 q 1027 261 948 130 q 1107 549 1107 391 q 1008 861 1107 744 q 748 979 909 979 q 487 861 586 979 q 389 549 389 743 q 468 261 389 394 q 694 54 545 130 l 694 0 l 297 0 l 297 57 l 584 57 q 378 283 442 162 q 318 552 318 399 "},"Ἀ":{"x_min":41.203125,"x_max":903.6875,"ha":950,"o":"m 254 950 q 128 829 254 829 l 128 883 q 187 949 187 883 l 187 990 l 130 990 l 130 1120 l 254 1120 l 254 950 m 471 944 l 254 374 l 684 374 l 471 944 m 427 1012 l 516 1012 l 903 0 l 826 0 l 705 318 l 233 318 l 113 0 l 41 0 l 427 1012 "},"С":{"x_min":115,"x_max":894,"ha":969,"o":"m 894 928 l 894 850 q 746 943 824 913 q 580 975 668 975 q 287 854 388 975 q 186 505 186 733 q 287 155 186 276 q 580 34 388 34 q 746 65 668 34 q 894 160 824 97 l 894 78 q 741 4 822 29 q 571 -20 661 -20 q 237 120 359 -20 q 115 505 115 261 q 237 889 115 749 q 571 1031 359 1031 q 742 1005 662 1031 q 894 928 823 979 "},"ß":{"x_min":185,"x_max":799,"ha":939,"o":"m 185 770 q 250 980 185 906 q 436 1055 315 1055 q 608 976 549 1055 q 669 763 669 897 q 543 711 613 749 q 473 591 473 673 q 497 524 473 555 q 576 458 521 492 l 624 429 q 733 362 668 410 q 799 209 799 312 q 731 40 799 102 q 515 -20 667 -20 q 424 -8 453 -20 q 345 27 386 6 l 345 91 q 423 48 405 53 q 518 34 471 34 q 679 79 628 34 q 735 200 735 127 q 705 301 735 259 q 577 393 685 328 l 520 427 q 433 505 462 461 q 407 603 407 547 q 470 735 407 684 q 606 799 525 779 q 554 957 590 918 q 433 1008 509 1008 q 298 946 346 1008 q 248 768 248 881 l 248 0 l 185 0 l 185 770 "},"ǩ":{"x_min":57.234375,"x_max":759.078125,"ha":804,"o":"m 223 1109 l 57 1289 l 111 1289 l 252 1174 l 392 1289 l 446 1289 l 280 1109 l 223 1109 m 220 1055 l 283 1055 l 283 414 l 660 760 l 746 760 l 353 401 l 759 0 l 678 0 l 283 389 l 283 0 l 220 0 l 220 1055 "},"Ӓ":{"x_min":41.15625,"x_max":903.53125,"ha":950,"o":"m 471 943 l 254 374 l 684 374 l 471 943 m 427 1012 l 516 1012 l 903 0 l 826 0 l 705 318 l 233 318 l 113 0 l 41 0 l 427 1012 m 538 1268 l 600 1268 l 600 1186 l 538 1186 l 538 1268 m 347 1268 l 411 1268 l 411 1186 l 347 1186 l 347 1268 "},"Ὕ":{"x_min":23,"x_max":1373.078125,"ha":1406,"o":"m 407 1111 l 493 1111 l 272 856 l 217 856 l 407 1111 m 23 950 q 23 1120 23 950 l 146 1120 l 146 990 l 89 990 l 89 949 q 148 883 89 883 l 148 829 q 23 950 23 829 m 588 1013 l 666 1013 l 982 546 l 1295 1013 l 1373 1013 l 1015 482 l 1015 0 l 946 0 l 946 482 l 588 1013 "},"ẳ":{"x_min":114,"x_max":694,"ha":851,"o":"m 387 1282 q 517 1160 517 1282 q 504 1092 517 1131 q 423 1024 490 1047 l 423 964 l 363 964 l 363 1038 q 440 1079 416 1049 q 455 1147 455 1098 q 372 1234 455 1234 q 267 1207 311 1234 l 267 1256 q 387 1282 313 1282 m 181 1022 l 241 1022 q 290 943 250 972 q 393 915 328 915 q 495 941 457 915 q 545 1022 533 968 l 605 1022 q 544 900 598 941 q 393 858 490 858 q 241 899 295 858 q 181 1022 188 940 m 461 429 q 244 375 310 429 q 178 218 178 321 q 232 76 178 118 q 363 34 287 34 q 567 154 505 34 q 630 382 630 275 l 630 429 l 461 429 m 694 433 l 694 0 l 632 0 l 632 206 q 493 13 579 55 q 357 -20 425 -20 q 179 40 244 -20 q 114 219 114 101 q 198 408 114 338 q 476 480 283 480 l 630 480 l 630 492 q 573 658 630 593 q 384 723 516 723 q 251 698 319 723 q 139 635 208 683 l 139 702 q 251 755 199 740 q 397 778 327 778 q 618 696 531 778 q 694 433 694 626 "},"Ű":{"x_min":155,"x_max":861,"ha":1016,"o":"m 696 1288 l 774 1288 l 619 1109 l 563 1109 l 696 1288 m 473 1288 l 550 1288 l 395 1109 l 340 1109 l 473 1288 m 155 1012 l 223 1012 l 223 397 q 290 120 223 204 q 508 36 357 36 q 725 120 658 36 q 793 397 793 204 l 793 1012 l 861 1012 l 861 380 q 771 81 861 182 q 508 -20 682 -20 q 244 81 333 -20 q 155 380 155 182 l 155 1012 "},"պ":{"x_min":157,"x_max":1205,"ha":1353,"o":"m 658 165 q 547 27 623 75 q 376 -18 475 -18 q 217 51 278 -18 q 157 301 157 121 l 157 760 l 219 760 l 219 305 q 262 92 219 148 q 377 36 305 36 q 562 101 482 36 q 649 330 649 171 l 649 760 l 712 760 l 712 305 q 754 95 712 153 q 870 36 796 36 q 1055 102 973 36 q 1142 330 1142 171 l 1142 760 l 1205 760 l 1205 -288 l 1142 -288 l 1142 142 q 1039 24 1108 66 q 866 -18 969 -18 q 738 26 800 -18 q 658 165 690 61 "},"¶":{"x_min":117.046875,"x_max":716,"ha":884,"o":"m 429 1012 l 716 1012 l 716 -134 l 654 -134 l 654 958 l 491 958 l 491 -134 l 429 -134 l 429 470 q 194 542 271 470 q 117 736 117 615 q 202 935 117 859 q 429 1012 287 1012 "},"Ή":{"x_min":-9.296875,"x_max":1027,"ha":1210,"o":"m 180 1111 l 267 1111 l 46 856 l -9 856 l 180 1111 m 323 1013 l 392 1013 l 392 567 l 958 567 l 958 1013 l 1027 1013 l 1027 0 l 958 0 l 958 513 l 392 513 l 392 0 l 323 0 l 323 1013 "},"Ὅ":{"x_min":23,"x_max":1234,"ha":1347,"o":"m 407 1111 l 493 1111 l 272 856 l 217 856 l 407 1111 m 23 950 q 23 1120 23 950 l 146 1120 l 146 990 l 89 990 l 89 949 q 148 883 89 883 l 148 829 q 23 950 23 829 m 1065 851 q 801 978 967 978 q 536 851 635 978 q 439 505 439 724 q 536 160 439 287 q 801 34 635 34 q 1065 160 967 34 q 1162 505 1162 287 q 1065 851 1162 724 m 801 1031 q 1115 888 997 1031 q 1234 505 1234 745 q 1115 123 1234 265 q 801 -20 997 -20 q 485 122 603 -20 q 367 505 367 264 q 485 888 367 745 q 801 1031 603 1031 "},"Ụ":{"x_min":155,"x_max":861,"ha":1016,"o":"m 482 -167 l 544 -167 l 544 -256 l 482 -256 l 482 -167 m 155 1012 l 223 1012 l 223 397 q 290 120 223 204 q 508 36 357 36 q 725 120 658 36 q 793 397 793 204 l 793 1012 l 861 1012 l 861 380 q 771 81 861 182 q 508 -20 682 -20 q 244 81 333 -20 q 155 380 155 182 l 155 1012 "},"­":{"x_min":68,"x_max":434,"ha":502,"o":"m 68 409 l 434 409 l 434 353 l 68 353 l 68 409 "},"Ὴ":{"x_min":20.265625,"x_max":1120,"ha":1292,"o":"m 417 1013 l 485 1013 l 485 567 l 1052 567 l 1052 1013 l 1120 1013 l 1120 0 l 1052 0 l 1052 513 l 485 513 l 485 0 l 417 0 l 417 1013 m 105 1111 l 296 857 l 241 857 l 20 1111 l 105 1111 "},"ḳ":{"x_min":220,"x_max":759.1875,"ha":804,"o":"m 414 -167 l 476 -167 l 476 -256 l 414 -256 l 414 -167 m 220 1055 l 283 1055 l 283 414 l 660 760 l 746 760 l 353 401 l 759 0 l 678 0 l 283 389 l 283 0 l 220 0 l 220 1055 "},":":{"x_min":199,"x_max":268,"ha":467,"o":"m 199 87 l 268 87 l 268 0 l 199 0 l 199 87 m 199 667 l 268 667 l 268 581 l 199 581 l 199 667 "},"Ѝ":{"x_min":171,"x_max":878,"ha":1049,"o":"m 440 1288 l 573 1109 l 517 1109 l 363 1288 l 440 1288 m 171 0 l 171 1013 l 239 1013 l 239 86 l 777 1013 l 878 1013 l 878 0 l 809 0 l 809 932 l 267 0 l 171 0 "},"̯":{"x_min":-561,"x_max":-143,"ha":1,"o":"m -143 -311 l -193 -311 q -241 -208 -202 -242 q -351 -174 -281 -174 q -460 -207 -421 -174 q -510 -311 -499 -241 l -561 -311 q -506 -164 -561 -213 q -352 -116 -452 -116 q -197 -164 -251 -116 q -143 -311 -143 -213 "},"ǲ":{"x_min":169,"x_max":1682,"ha":1804,"o":"m 1089 760 l 1682 760 l 1682 687 l 1132 53 l 1682 53 l 1682 0 l 1072 0 l 1072 69 l 1620 706 l 1089 706 l 1089 760 m 238 955 l 238 54 l 438 54 q 774 163 668 54 q 882 505 882 272 q 774 847 882 738 q 438 955 668 955 l 238 955 m 169 1013 l 418 1013 q 824 890 694 1013 q 954 507 954 768 q 823 122 954 245 q 418 0 693 0 l 169 0 l 169 1013 "},"ẇ":{"x_min":88.375,"x_max":1007.96875,"ha":1136,"o":"m 538 1003 l 600 1003 l 600 914 l 538 914 l 538 1003 m 88 760 l 152 760 l 331 82 l 508 760 l 587 760 l 765 79 l 943 760 l 1007 760 l 809 0 l 722 0 l 547 666 l 373 0 l 287 0 l 88 760 "},"Ƨ":{"x_min":123,"x_max":768,"ha":881,"o":"m 437 -20 q 220 48 325 -20 q 123 277 123 112 q 233 466 123 391 q 401 534 295 507 l 482 555 q 647 630 591 583 q 699 749 699 674 q 631 922 699 869 q 437 973 556 973 q 303 958 348 973 q 156 897 223 930 l 156 961 q 300 1014 171 972 q 444 1030 352 1030 q 683 960 604 1030 q 768 744 768 884 q 664 566 768 631 q 498 500 597 524 l 417 480 q 239 391 307 453 q 192 271 192 347 q 269 90 192 142 q 475 36 351 36 q 765 142 590 36 l 765 76 q 437 -20 629 -20 "},"У":{"x_min":61.3125,"x_max":785.59375,"ha":846,"o":"m 61 1012 l 133 1012 l 423 330 l 713 1012 l 785 1012 l 407 122 q 314 11 373 44 q 184 -20 257 -20 l 121 -20 l 121 34 l 172 34 q 283 62 234 34 q 350 160 317 82 l 386 244 l 61 1012 "},"⁔":{"x_min":-62,"x_max":1176,"ha":1116,"o":"m -62 -335 l -62 -274 q 252 -134 98 -180 q 557 -88 405 -88 q 862 -134 708 -88 q 1176 -274 1016 -181 l 1176 -335 q 866 -200 1020 -244 q 556 -156 713 -156 q 247 -200 400 -156 q -62 -335 93 -244 "},"ᾢ":{"x_min":123,"x_max":1021,"ha":1163,"o":"m 650 -289 l 609 -289 q 526 -164 526 -289 l 526 -62 l 577 -62 l 577 -173 q 629 -244 577 -244 l 650 -244 l 650 -289 m 637 1111 l 828 857 l 772 857 l 551 1111 l 637 1111 m 466 950 q 340 829 466 829 l 340 883 q 399 949 399 883 l 399 990 l 342 990 l 342 1120 l 466 1120 l 466 950 m 372 -20 q 123 383 123 -20 q 204 759 123 692 l 292 759 q 189 379 189 724 q 380 34 189 34 q 545 451 545 34 l 598 451 q 762 34 598 34 q 955 379 955 34 q 852 759 955 724 l 939 759 q 1021 383 1021 692 q 768 -20 1021 -20 q 571 183 610 -20 q 372 -20 533 -20 "},"ү":{"x_min":74.8125,"x_max":747.5625,"ha":822,"o":"m 74 760 l 141 760 l 411 82 l 681 760 l 747 760 l 442 0 l 442 -293 l 380 -293 l 380 -5 l 74 760 "},"Ί":{"x_min":-12.765625,"x_max":398,"ha":568,"o":"m 177 1111 l 263 1111 l 42 856 l -12 856 l 177 1111 m 327 1013 l 398 1013 l 398 0 l 327 0 l 327 1013 "},"ᴎ":{"x_min":157,"x_max":757,"ha":902,"o":"m 157 0 l 157 760 l 219 760 l 219 67 l 664 760 l 757 760 l 757 0 l 694 0 l 694 693 l 247 0 l 157 0 "},"︄":{"x_min":0,"x_max":0,"ha":0},"⅓":{"x_min":93.171875,"x_max":1261,"ha":1346,"o":"m 106 552 l 256 552 l 256 958 l 93 914 l 93 973 l 249 1012 l 319 1012 l 319 552 l 481 552 l 481 499 l 106 499 l 106 552 m 953 1031 l 1024 1031 l 392 -19 l 321 -19 l 953 1031 m 1160 323 q 1233 277 1205 312 q 1261 189 1261 240 q 1203 68 1261 112 q 1026 27 1149 27 q 944 33 987 27 q 855 53 902 40 l 855 118 q 931 89 890 98 q 1016 79 971 79 q 1151 109 1103 79 q 1199 190 1199 138 q 1155 267 1199 240 q 1024 293 1111 293 l 965 293 l 965 345 l 1028 345 q 1143 367 1104 345 q 1183 432 1183 389 q 1142 498 1183 475 q 1025 522 1102 522 q 964 512 999 522 q 875 479 929 503 l 875 543 q 968 569 924 560 q 1048 578 1011 578 q 1196 541 1147 578 q 1246 440 1246 503 q 1223 365 1246 397 q 1160 323 1202 334 "},"Ģ":{"x_min":116,"x_max":928,"ha":1076,"o":"m 569 -129 l 641 -129 l 547 -346 l 504 -346 l 569 -129 m 861 85 l 861 441 l 602 441 l 602 497 l 928 497 l 928 53 q 768 0 855 17 q 582 -19 681 -19 q 240 119 363 -19 q 116 505 116 257 q 240 892 116 753 q 583 1031 363 1031 q 754 1012 674 1031 q 904 955 836 993 l 904 889 q 757 947 835 927 q 594 966 679 966 q 288 849 390 966 q 186 505 186 734 q 288 155 186 272 q 594 37 390 37 q 743 48 677 37 q 861 85 808 60 "},"ᾇ":{"x_min":111,"x_max":827,"ha":915,"o":"m 465 -289 l 424 -289 q 341 -164 341 -289 l 341 -62 l 392 -62 l 392 -173 q 444 -244 392 -244 l 465 -244 l 465 -289 m 390 1221 l 351 1258 q 325 1278 342 1267 q 305 1285 314 1285 q 267 1260 279 1285 q 255 1180 255 1235 l 190 1180 q 219 1299 190 1257 q 301 1342 249 1342 q 349 1332 327 1342 q 395 1300 374 1321 l 434 1263 q 460 1243 443 1254 q 480 1237 471 1237 q 519 1261 506 1237 q 531 1342 531 1286 l 594 1342 q 564 1225 594 1270 q 484 1180 536 1180 q 437 1189 458 1180 q 390 1221 411 1200 m 331 950 q 331 1120 331 950 l 454 1120 l 454 990 l 397 990 l 397 949 q 456 883 397 883 l 456 829 q 331 950 331 829 m 596 353 l 561 531 q 387 724 524 724 q 233 639 288 724 q 173 381 173 543 q 232 120 173 203 q 387 34 292 34 q 548 204 493 34 l 596 353 m 392 777 q 637 475 602 777 l 732 760 l 797 760 l 659 348 l 686 199 q 728 77 703 107 q 785 54 748 54 l 827 54 l 827 0 l 774 0 q 667 55 707 0 q 617 225 647 82 q 513 35 590 116 q 392 -16 465 -16 q 182 85 250 -16 q 111 379 111 191 q 201 687 111 565 q 392 777 268 777 "},"m":{"x_min":157,"x_max":1205,"ha":1353,"o":"m 703 594 q 814 732 738 685 q 985 778 886 778 q 1144 708 1084 778 q 1205 458 1205 638 l 1205 0 l 1143 0 l 1143 454 q 1099 667 1143 611 q 984 723 1056 723 q 799 658 879 723 q 712 429 712 588 l 712 0 l 650 0 l 650 454 q 607 664 650 606 q 491 723 565 723 q 306 657 386 723 q 219 429 219 588 l 219 0 l 157 0 l 157 760 l 219 760 l 219 617 q 322 735 252 691 q 495 778 393 778 q 623 733 561 778 q 703 594 671 698 "},"Ị":{"x_min":168,"x_max":239,"ha":410,"o":"m 173 -167 l 236 -167 l 236 -256 l 173 -256 l 173 -167 m 168 1013 l 239 1013 l 239 0 l 168 0 l 168 1013 "},"ǌ":{"x_min":157,"x_max":987,"ha":1107,"o":"m 924 760 l 987 760 l 987 -13 q 940 -228 987 -168 q 785 -289 892 -289 l 738 -289 l 738 -236 l 771 -236 q 886 -202 846 -236 q 924 -13 924 -168 l 924 760 m 924 1055 l 987 1055 l 987 970 l 924 970 l 924 1055 m 731 458 l 731 0 l 668 0 l 668 454 q 621 662 668 602 q 481 723 573 723 q 296 657 373 723 q 219 429 219 592 l 219 0 l 157 0 l 157 760 l 219 760 l 219 617 q 306 723 252 686 q 484 778 386 778 q 663 701 596 778 q 731 458 731 625 "},"ớ":{"x_min":113,"x_max":940,"ha":1051,"o":"m 678 599 l 678 657 q 758 609 725 625 q 814 593 791 593 q 867 615 849 593 q 886 680 886 637 q 880 742 886 715 q 861 794 874 769 l 924 794 q 935 738 931 766 q 940 681 940 711 q 910 567 940 606 q 820 530 879 530 q 754 546 789 530 q 678 599 719 564 m 612 629 q 429 723 545 723 q 245 630 313 723 q 178 380 178 537 q 245 126 178 219 q 429 34 312 34 q 612 126 545 34 q 680 380 680 220 q 612 629 680 535 m 428 778 q 657 669 573 778 q 742 379 742 560 q 657 85 742 193 q 428 -23 573 -23 q 197 84 281 -23 q 113 379 113 192 q 197 670 113 562 q 428 778 282 778 m 519 1111 l 605 1111 l 384 856 l 329 856 l 519 1111 "},"ὀ":{"x_min":110,"x_max":739.390625,"ha":850,"o":"m 486 950 q 360 829 486 829 l 360 883 q 419 949 419 883 l 419 990 l 362 990 l 362 1120 l 486 1120 l 486 950 m 609 629 q 426 723 542 723 q 242 630 310 723 q 175 380 175 537 q 242 126 175 219 q 426 34 309 34 q 609 126 542 34 q 677 380 677 220 q 609 629 677 535 m 425 778 q 654 669 570 778 q 739 379 739 560 q 654 85 739 193 q 425 -23 570 -23 q 194 84 278 -23 q 110 379 110 192 q 194 670 110 562 q 425 778 279 778 "},"á":{"x_min":114,"x_max":694,"ha":851,"o":"m 461 429 q 244 375 310 429 q 178 218 178 321 q 232 76 178 118 q 363 34 287 34 q 567 154 505 34 q 630 382 630 275 l 630 429 l 461 429 m 694 433 l 694 0 l 632 0 l 632 206 q 493 13 579 55 q 357 -20 425 -20 q 179 40 244 -20 q 114 219 114 101 q 198 408 114 338 q 476 480 283 480 l 630 480 l 630 492 q 573 658 630 593 q 384 723 516 723 q 251 698 319 723 q 139 635 208 683 l 139 702 q 251 755 199 740 q 397 778 327 778 q 618 696 531 778 q 694 433 694 626 m 527 1111 l 614 1111 l 393 856 l 337 856 l 527 1111 "},"ɍ":{"x_min":11,"x_max":570.25,"ha":572,"o":"m 570 706 q 529 718 555 713 q 471 723 506 723 q 279 637 355 723 q 221 411 221 570 l 368 411 l 368 358 l 220 358 l 220 0 l 159 0 l 159 358 l 11 358 l 11 411 l 159 411 l 159 760 l 220 760 l 220 617 q 305 720 250 678 q 484 778 381 778 q 530 776 511 778 q 570 771 551 776 l 570 706 "},"Ӱ":{"x_min":61.3125,"x_max":785.03125,"ha":846,"o":"m 61 1012 l 133 1012 l 423 330 l 712 1012 l 785 1012 l 406 122 q 314 11 373 44 q 184 -20 257 -20 l 121 -20 l 121 34 l 172 34 q 283 62 234 34 q 350 160 317 82 l 386 244 l 61 1012 m 488 1268 l 550 1268 l 550 1186 l 488 1186 l 488 1268 m 297 1268 l 361 1268 l 361 1186 l 297 1186 l 297 1268 "},"K":{"x_min":240,"x_max":894.296875,"ha":911,"o":"m 240 1013 l 307 1013 l 307 576 l 770 1013 l 861 1013 l 357 538 l 894 0 l 805 0 l 307 500 l 307 0 l 240 0 l 240 1013 "},"7":{"x_min":114,"x_max":730,"ha":884,"o":"m 114 1013 l 730 1013 l 730 954 l 362 0 l 290 0 l 658 957 l 114 957 l 114 1013 "},"ꟽ":{"x_min":223,"x_max":975,"ha":1198,"o":"m 223 0 l 223 1013 l 292 1013 l 292 123 l 551 818 l 645 818 l 906 123 l 906 1013 l 975 1013 l 975 0 l 881 0 l 598 750 l 317 0 l 223 0 "},"̈":{"x_min":-475,"x_max":-221,"ha":0,"o":"m -285 1052 l -221 1052 l -221 971 l -285 971 l -285 1052 m -475 1052 l -412 1052 l -412 971 l -475 971 l -475 1052 "},"¨":{"x_min":221,"x_max":475,"ha":695,"o":"m 411 1052 l 475 1052 l 475 971 l 411 971 l 411 1052 m 221 1052 l 283 1052 l 283 971 l 221 971 l 221 1052 "},"Y":{"x_min":30.9375,"x_max":816.078125,"ha":849,"o":"m 30 1013 l 109 1013 l 425 546 l 738 1013 l 816 1013 l 458 482 l 458 0 l 389 0 l 389 482 l 30 1013 "},"E":{"x_min":169,"x_max":753.421875,"ha":878,"o":"m 169 1013 l 741 1013 l 741 957 l 238 957 l 238 567 l 720 567 l 720 513 l 238 513 l 238 54 l 753 54 l 753 0 l 169 0 l 169 1013 "},"Ô":{"x_min":113,"x_max":980,"ha":1093,"o":"m 811 851 q 547 978 713 978 q 282 851 381 978 q 185 505 185 724 q 282 160 185 287 q 547 34 381 34 q 811 160 713 34 q 908 505 908 287 q 811 851 908 724 m 547 1031 q 861 888 743 1031 q 980 505 980 745 q 861 123 980 265 q 547 -20 743 -20 q 231 122 349 -20 q 113 505 113 264 q 231 888 113 745 q 547 1031 349 1031 m 518 1289 l 575 1289 l 741 1109 l 687 1109 l 547 1223 l 406 1109 l 351 1109 l 518 1289 "},"έ":{"x_min":123,"x_max":656,"ha":761,"o":"m 267 408 q 174 469 208 423 q 142 576 142 512 q 207 723 142 667 q 396 779 273 779 q 505 766 448 779 q 630 729 563 754 l 630 667 q 510 709 564 696 q 407 723 455 723 q 235 668 275 723 q 205 563 205 626 q 258 470 205 506 q 402 434 310 434 l 508 434 l 508 381 l 404 381 q 244 339 299 381 q 185 220 185 293 q 241 82 185 130 q 429 34 296 34 q 566 63 489 34 q 656 102 623 84 l 656 44 q 538 -4 595 12 q 396 -20 480 -20 q 194 41 265 -20 q 123 220 123 103 q 161 343 123 290 q 267 408 197 393 m 495 1110 l 582 1110 l 361 856 l 305 856 l 495 1110 "},"ὺ":{"x_min":134,"x_max":692,"ha":804,"o":"m 256 1111 l 448 857 l 392 857 l 171 1111 l 256 1111 m 196 759 l 196 270 q 239 95 196 148 q 376 51 275 51 q 577 192 506 51 q 626 434 626 289 q 609 590 626 507 q 516 759 592 670 l 594 759 q 665 615 638 698 q 692 432 692 537 q 612 142 692 280 q 358 -1 529 -1 q 192 64 241 -1 q 134 274 134 144 l 134 759 l 196 759 "},"Ƥ":{"x_min":-67,"x_max":753,"ha":906,"o":"m 169 956 q 33 913 73 956 q 0 777 0 880 l 0 733 l -67 733 l -67 780 q -11 958 -67 902 q 169 1013 43 1013 l 170 1009 l 170 1013 l 446 1013 q 675 939 597 1013 q 753 724 753 866 q 675 508 753 581 q 446 435 597 435 l 238 435 l 238 0 l 170 0 l 170 957 l 169 956 m 238 957 l 238 491 l 446 491 q 621 551 559 491 q 684 724 684 611 q 621 896 684 835 q 446 957 559 957 l 238 957 "},"Ⅎ":{"x_min":169.125,"x_max":683,"ha":799,"o":"m 683 0 l 169 0 l 169 56 l 614 56 l 614 445 l 212 445 l 212 499 l 614 499 l 614 1012 l 683 1012 l 683 0 "},"ᚃ":{"x_min":-13,"x_max":1307,"ha":1294,"o":"m -13 426 l 1307 426 l 1307 370 l 983 370 l 983 -173 l 921 -173 l 921 370 l 679 370 l 679 -173 l 616 -173 l 616 370 l 374 370 l 374 -173 l 312 -173 l 312 370 l -13 370 l -13 426 "},"Є":{"x_min":115,"x_max":894,"ha":969,"o":"m 237 120 q 115 505 115 261 q 237 889 115 748 q 571 1031 359 1031 q 894 928 754 1031 l 894 850 q 579 975 756 975 q 288 857 387 975 q 190 531 190 740 l 761 531 l 761 478 l 188 478 q 287 155 188 276 q 570 34 386 34 q 894 159 754 34 l 894 78 q 571 -20 750 -20 q 237 120 359 -20 "},"Ï":{"x_min":78,"x_max":331.390625,"ha":409,"o":"m 168 1013 l 239 1013 l 239 0 l 168 0 l 168 1013 m 269 1268 l 331 1268 l 331 1186 l 269 1186 l 269 1268 m 78 1268 l 142 1268 l 142 1186 l 78 1186 l 78 1268 "},"Ȅ":{"x_min":169,"x_max":753.421875,"ha":878,"o":"m 262 1291 l 395 1112 l 339 1112 l 185 1291 l 262 1291 m 490 1291 l 623 1112 l 567 1112 l 412 1291 l 490 1291 m 169 1013 l 741 1013 l 741 957 l 238 957 l 238 567 l 720 567 l 720 513 l 238 513 l 238 54 l 753 54 l 753 0 l 169 0 l 169 1013 "},"ῶ":{"x_min":123,"x_max":1021,"ha":1163,"o":"m 570 944 l 532 981 q 505 1001 522 990 q 486 1008 494 1008 q 448 983 460 1008 q 436 903 436 958 l 371 903 q 400 1022 371 980 q 482 1065 429 1065 q 529 1055 507 1065 q 576 1023 554 1044 l 615 986 q 641 966 624 977 q 661 960 652 960 q 700 984 687 960 q 712 1065 712 1009 l 775 1065 q 745 948 775 993 q 665 903 717 903 q 617 912 639 903 q 570 944 592 923 m 373 -20 q 123 383 123 -20 q 204 759 123 692 l 292 759 q 189 379 189 724 q 380 34 189 34 q 545 451 545 34 l 598 451 q 762 34 598 34 q 955 379 955 34 q 852 759 955 724 l 939 759 q 1021 383 1021 692 q 768 -20 1021 -20 q 570 183 610 -20 q 373 -20 533 -20 "},"ứ":{"x_min":159,"x_max":971,"ha":1082,"o":"m 710 599 l 710 657 q 789 609 756 625 q 845 593 822 593 q 898 615 880 593 q 917 680 917 637 q 911 742 917 715 q 892 794 905 769 l 955 794 q 966 738 962 766 q 971 681 971 711 q 941 567 971 606 q 852 530 910 530 q 785 546 820 530 q 710 599 751 564 m 159 301 l 159 760 l 221 760 l 221 305 q 268 97 221 157 q 408 36 316 36 q 593 101 516 36 q 670 330 670 167 l 670 760 l 733 760 l 733 0 l 670 0 l 670 142 q 583 36 637 73 q 406 -18 503 -18 q 226 58 293 -18 q 159 301 159 134 m 525 1111 l 612 1111 l 391 856 l 335 856 l 525 1111 "},"έ":{"x_min":123,"x_max":656,"ha":750,"o":"m 267 408 q 174 469 208 423 q 142 576 142 512 q 207 723 142 667 q 396 779 273 779 q 505 766 448 779 q 630 729 563 754 l 630 667 q 510 709 564 696 q 407 723 455 723 q 235 668 275 723 q 205 563 205 626 q 258 470 205 506 q 402 434 310 434 l 508 434 l 508 381 l 404 381 q 244 339 299 381 q 185 220 185 293 q 241 82 185 130 q 429 34 296 34 q 566 63 489 34 q 656 102 623 84 l 656 44 q 538 -4 595 12 q 396 -20 480 -20 q 194 41 265 -20 q 123 220 123 103 q 161 343 123 290 q 267 408 197 393 m 495 1110 l 582 1110 l 361 856 l 305 856 l 495 1110 "},"Ɖ":{"x_min":7,"x_max":954,"ha":1077,"o":"m 169 1013 l 418 1013 q 824 890 694 1013 q 954 507 954 768 q 823 122 954 245 q 418 0 693 0 l 169 0 l 169 480 l 7 480 l 7 534 l 169 534 l 169 1013 m 238 955 l 238 534 l 509 534 l 509 480 l 238 480 l 238 54 l 438 54 q 774 163 668 54 q 882 505 882 272 q 774 847 882 738 q 438 955 668 955 l 238 955 "},"K":{"x_min":240,"x_max":894.296875,"ha":911,"o":"m 240 1013 l 307 1013 l 307 576 l 770 1013 l 861 1013 l 357 538 l 894 0 l 805 0 l 307 500 l 307 0 l 240 0 l 240 1013 "},"ἰ":{"x_min":118.984375,"x_max":377,"ha":470,"o":"m 245 950 q 118 829 245 829 l 118 883 q 178 949 178 883 l 178 990 l 121 990 l 121 1120 l 245 1120 l 245 950 m 220 760 l 220 190 q 236 83 220 111 q 314 52 255 52 l 377 52 l 377 0 l 303 0 q 189 46 219 0 q 159 192 159 92 l 159 760 l 220 760 "},"ể":{"x_min":110,"x_max":796,"ha":854,"o":"m 666 1282 q 796 1159 796 1282 q 783 1092 796 1130 q 703 1024 769 1046 l 703 964 l 643 964 l 643 1037 q 719 1079 696 1048 q 734 1147 734 1098 q 652 1234 734 1234 q 546 1207 590 1234 l 546 1256 q 666 1282 592 1282 m 414 1037 l 471 1037 l 637 857 l 583 857 l 443 972 l 302 857 l 248 857 l 414 1037 m 749 411 l 749 372 l 173 372 q 244 115 173 188 q 478 34 322 34 q 585 51 518 34 q 720 104 653 69 l 720 38 q 582 -4 652 10 q 470 -20 511 -20 q 206 75 295 -20 q 110 371 110 176 q 198 674 110 574 q 448 778 288 778 q 673 679 598 778 q 749 411 749 576 m 686 425 q 614 658 686 584 q 450 723 553 723 q 260 655 336 723 q 175 425 189 592 l 686 425 "},"ϋ":{"x_min":134,"x_max":692,"ha":804,"o":"m 196 759 l 196 270 q 239 95 196 148 q 376 51 275 51 q 577 192 506 51 q 626 434 626 289 q 609 590 626 507 q 516 759 592 670 l 594 759 q 665 615 638 698 q 692 432 692 537 q 612 142 692 280 q 358 -1 529 -1 q 192 64 241 -1 q 134 274 134 144 l 134 759 l 196 759 m 431 1052 l 495 1052 l 495 971 l 431 971 l 431 1052 m 241 1052 l 303 1052 l 303 971 l 241 971 l 241 1052 "},"ἶ":{"x_min":-16,"x_max":388,"ha":469,"o":"m 184 1221 l 145 1258 q 119 1278 136 1267 q 99 1285 108 1285 q 61 1260 73 1285 q 49 1180 49 1235 l -16 1180 q 13 1299 -16 1257 q 95 1342 43 1342 q 143 1332 121 1342 q 189 1300 168 1321 l 228 1263 q 255 1243 237 1254 q 274 1237 266 1237 q 313 1261 300 1237 q 325 1342 325 1286 l 388 1342 q 358 1225 388 1270 q 278 1180 330 1180 q 231 1189 252 1180 q 184 1221 206 1200 m 244 950 q 117 829 244 829 l 117 883 q 177 949 177 883 l 177 990 l 120 990 l 120 1120 l 244 1120 l 244 950 m 219 760 l 219 190 q 235 83 219 111 q 314 52 254 52 l 377 52 l 377 0 l 303 0 q 188 46 218 0 q 158 192 158 92 l 158 760 l 219 760 "},"ἳ":{"x_min":-27,"x_max":457.03125,"ha":470,"o":"m 266 1111 l 457 857 l 401 857 l 180 1111 l 266 1111 m -27 950 q -27 1120 -27 950 l 96 1120 l 96 990 l 39 990 l 39 949 q 98 883 39 883 l 98 829 q -27 950 -27 829 m 220 760 l 220 190 q 236 83 220 111 q 314 52 255 52 l 377 52 l 377 0 l 303 0 q 189 46 219 0 q 159 192 159 92 l 159 760 l 220 760 "},"͜":{"x_min":-620,"x_max":618,"ha":0,"o":"m 618 -81 l 618 -142 q 303 -282 458 -236 q 0 -329 150 -329 q -306 -282 -152 -329 q -620 -142 -460 -236 l -620 -81 q -310 -216 -464 -172 q 0 -261 -157 -261 q 308 -216 155 -261 q 618 -81 462 -172 "},"ⅰ":{"x_min":156,"x_max":218.390625,"ha":386,"o":"m 156 760 l 218 760 l 218 0 l 156 0 l 156 760 m 156 1055 l 218 1055 l 218 970 l 156 970 l 156 1055 "},"Ἐ":{"x_min":18,"x_max":863.40625,"ha":988,"o":"m 144 950 q 18 829 144 829 l 18 883 q 77 949 77 883 l 77 990 l 20 990 l 20 1120 l 144 1120 l 144 950 m 279 1013 l 851 1013 l 851 957 l 348 957 l 348 567 l 830 567 l 830 513 l 348 513 l 348 54 l 863 54 l 863 0 l 279 0 l 279 1013 "},"b":{"x_min":159,"x_max":771,"ha":882,"o":"m 626 114 q 705 379 705 193 q 626 643 705 564 q 461 723 548 723 q 298 643 377 723 q 220 379 220 564 q 298 114 220 193 q 461 35 377 35 q 626 114 548 35 m 220 586 q 312 721 262 685 q 457 778 389 778 q 681 668 592 778 q 771 379 771 558 q 681 89 771 199 q 457 -19 592 -19 q 312 36 389 -19 q 220 172 262 73 l 220 0 l 159 0 l 159 1055 l 220 1055 l 220 586 "},"̃":{"x_min":-552,"x_max":-148,"ha":0,"o":"m -351 944 l -390 981 q -416 1001 -399 990 q -436 1008 -427 1008 q -474 983 -462 1008 q -487 903 -487 958 l -552 903 q -522 1022 -552 980 q -440 1065 -492 1065 q -392 1055 -414 1065 q -345 1023 -367 1044 l -307 986 q -280 966 -297 977 q -260 960 -269 960 q -222 984 -235 960 q -210 1065 -210 1009 l -148 1065 q -177 948 -148 993 q -257 903 -205 903 q -304 912 -282 903 q -351 944 -329 923 "},"ύ":{"x_min":134,"x_max":692,"ha":804,"o":"m 196 759 l 196 270 q 239 95 196 148 q 376 51 275 51 q 577 192 506 51 q 626 434 626 289 q 609 590 626 507 q 516 759 592 670 l 594 759 q 665 615 638 698 q 692 432 692 537 q 612 142 692 280 q 358 -1 529 -1 q 192 64 241 -1 q 134 274 134 144 l 134 759 l 196 759 m 465 1111 l 552 1111 l 330 856 l 275 856 l 465 1111 "},"ﬂ":{"x_min":63,"x_max":712,"ha":875,"o":"m 649 1003 l 395 1003 q 289 967 326 1003 q 245 827 245 922 l 245 760 l 450 760 l 450 707 l 245 707 l 245 0 l 182 0 l 182 707 l 63 707 l 63 760 l 182 760 l 182 812 q 239 997 182 938 q 397 1055 296 1055 l 712 1055 l 712 0 l 649 0 l 649 1003 "},"ῦ":{"x_min":134,"x_max":692,"ha":804,"o":"m 371 943 l 332 981 q 306 1001 323 990 q 286 1008 295 1008 q 248 983 260 1008 q 236 902 236 957 l 171 902 q 200 1022 171 979 q 282 1065 230 1065 q 330 1055 308 1065 q 377 1023 355 1044 l 415 985 q 442 965 425 976 q 462 959 453 959 q 500 983 488 959 q 512 1065 512 1009 l 575 1065 q 545 948 575 993 q 465 902 517 902 q 418 912 440 902 q 371 943 393 922 m 196 759 l 196 270 q 239 95 196 148 q 376 51 275 51 q 577 192 506 51 q 626 434 626 289 q 609 590 626 507 q 516 759 592 670 l 594 759 q 665 615 638 698 q 692 432 692 537 q 612 142 692 280 q 358 -1 529 -1 q 192 64 241 -1 q 134 274 134 144 l 134 759 l 196 759 "},"̲":{"x_min":-708,"x_max":14,"ha":1,"o":"m 14 -275 l 14 -328 l -708 -328 l -708 -275 l 14 -275 "},"ᾱ":{"x_min":111,"x_max":827,"ha":915,"o":"m 226 1035 l 632 1035 l 632 975 l 226 975 l 226 1035 m 596 353 l 561 531 q 387 724 524 724 q 233 639 288 724 q 173 381 173 543 q 232 120 173 203 q 386 34 291 34 q 548 204 493 34 l 596 353 m 392 777 q 637 475 602 777 l 732 760 l 797 760 l 659 348 l 686 199 q 728 77 703 107 q 785 54 748 54 l 827 54 l 827 0 l 774 0 q 667 55 707 0 q 617 225 647 82 q 513 35 590 116 q 392 -16 465 -16 q 182 85 250 -16 q 111 379 111 191 q 201 687 111 565 q 392 777 268 777 "},"ƞ":{"x_min":157,"x_max":731,"ha":880,"o":"m 731 458 l 731 -289 l 668 -289 l 668 454 q 621 662 668 602 q 481 723 573 723 q 296 657 373 723 q 219 429 219 592 l 219 0 l 157 0 l 157 760 l 219 760 l 219 617 q 306 723 252 686 q 484 778 386 778 q 663 701 596 778 q 731 458 731 625 "},"ꚍ":{"x_min":47,"x_max":714,"ha":761,"o":"m 47 706 l 47 760 l 714 760 l 714 706 l 411 706 l 411 190 q 427 83 411 110 q 506 52 446 52 l 569 52 l 569 0 l 495 0 q 380 46 410 0 q 350 192 350 92 l 350 706 l 47 706 "},"Ǌ":{"x_min":168,"x_max":1170,"ha":1293,"o":"m 1102 1013 l 1170 1013 l 1170 70 q 1125 -171 1170 -96 q 981 -247 1080 -247 l 940 -247 l 940 -191 l 973 -191 q 1072 -133 1043 -191 q 1102 70 1102 -76 l 1102 1013 m 168 1013 l 268 1013 l 759 86 l 759 1013 l 827 1013 l 827 0 l 730 0 l 237 932 l 237 0 l 168 0 l 168 1013 "},"ῼ":{"x_min":79,"x_max":982,"ha":1061,"o":"m 599 -289 l 558 -289 q 475 -164 475 -289 l 475 -62 l 526 -62 l 526 -173 q 578 -244 526 -244 l 599 -244 l 599 -289 m 99 552 q 219 898 99 762 q 529 1033 339 1033 q 840 897 720 1033 q 961 551 961 762 q 899 283 961 399 q 698 57 838 167 l 982 57 l 982 0 l 589 0 l 589 54 q 809 261 730 130 q 889 549 889 391 q 790 861 889 744 q 529 979 691 979 q 269 861 368 979 q 170 549 170 743 q 249 261 170 394 q 476 54 326 130 l 476 0 l 79 0 l 79 57 l 365 57 q 159 283 223 162 q 99 552 99 399 "},"Ʈ":{"x_min":31,"x_max":818,"ha":849,"o":"m 31 1013 l 818 1013 l 818 957 l 459 957 l 459 70 q 488 -134 459 -77 q 586 -191 517 -191 l 620 -191 l 620 -247 l 578 -247 q 435 -171 478 -247 q 391 70 391 -93 l 391 956 l 391 957 l 31 957 l 31 1013 "},"Ὢ":{"x_min":17,"x_max":1434,"ha":1513,"o":"m 313 1111 l 505 857 l 449 857 l 228 1111 l 313 1111 m 143 950 q 17 829 143 829 l 17 883 q 76 949 76 883 l 76 990 l 19 990 l 19 1120 l 143 1120 l 143 950 m 552 552 q 671 898 552 762 q 982 1033 791 1033 q 1292 898 1172 1033 q 1413 552 1413 763 q 1351 283 1413 399 q 1150 57 1290 167 l 1434 57 l 1434 0 l 1041 0 l 1041 54 q 1261 261 1182 130 q 1341 549 1341 391 q 1242 861 1341 744 q 982 979 1143 979 q 721 861 820 979 q 623 549 623 743 q 702 261 623 394 q 928 54 779 130 l 928 0 l 531 0 l 531 57 l 818 57 q 612 283 676 162 q 552 552 552 399 "},"Ḡ":{"x_min":116,"x_max":928,"ha":1076,"o":"m 352 1232 l 758 1232 l 758 1172 l 352 1172 l 352 1232 m 861 85 l 861 441 l 602 441 l 602 497 l 928 497 l 928 53 q 768 0 855 17 q 582 -19 682 -19 q 240 119 363 -19 q 116 505 116 257 q 240 892 116 753 q 583 1031 363 1031 q 754 1012 674 1031 q 904 955 836 993 l 904 889 q 758 947 835 927 q 595 966 680 966 q 288 849 390 966 q 186 505 186 734 q 288 155 186 272 q 595 37 390 37 q 744 48 678 37 q 861 85 809 60 "},"‬":{"x_min":0,"x_max":0,"ha":0},"ф":{"x_min":102,"x_max":1084,"ha":1186,"o":"m 218 635 q 164 379 164 548 q 218 122 164 209 q 384 36 272 36 q 505 100 448 36 q 561 195 561 164 l 561 562 q 505 657 561 593 q 384 722 448 722 q 218 635 272 722 m 624 195 q 680 100 624 164 q 801 36 737 36 q 967 122 913 36 q 1021 379 1021 209 q 967 635 1021 548 q 801 722 913 722 q 680 657 737 722 q 624 562 624 593 l 624 195 m 102 379 q 167 674 102 570 q 360 778 232 778 q 561 664 473 778 l 561 1055 l 624 1055 l 624 664 q 825 778 712 778 q 1018 674 953 778 q 1084 379 1084 570 q 1018 83 1084 186 q 825 -20 953 -20 q 624 93 712 -20 l 624 -289 l 561 -289 l 561 93 q 360 -20 473 -20 q 167 83 232 -20 q 102 379 102 186 "},"ȭ":{"x_min":110,"x_max":739.390625,"ha":850,"o":"m 222 1249 l 628 1249 l 628 1189 l 222 1189 l 222 1249 m 609 629 q 426 723 542 723 q 242 630 310 723 q 175 380 175 537 q 242 126 175 219 q 426 34 309 34 q 609 126 542 34 q 677 380 677 220 q 609 629 677 535 m 425 778 q 654 669 570 778 q 739 379 739 560 q 654 85 739 193 q 425 -23 570 -23 q 194 84 278 -23 q 110 379 110 192 q 194 670 110 562 q 425 778 279 778 m 422 944 l 383 981 q 357 1001 374 990 q 337 1008 346 1008 q 299 983 311 1008 q 287 902 287 958 l 222 902 q 251 1022 222 980 q 333 1065 281 1065 q 381 1055 359 1065 q 428 1023 406 1044 l 466 986 q 493 966 476 977 q 513 960 504 960 q 551 984 539 960 q 563 1065 563 1009 l 626 1065 q 596 948 626 993 q 516 903 568 903 q 469 912 491 903 q 422 944 444 923 "},"":{"x_min":347,"x_max":653.96875,"ha":949,"o":"m 538 1243 l 600 1243 l 600 1161 l 538 1161 l 538 1243 m 347 1243 l 411 1243 l 411 1161 l 347 1161 l 347 1243 m 576 1449 l 653 1449 l 499 1271 l 444 1271 l 576 1449 "},"꜍":{"x_min":145,"x_max":517,"ha":685,"o":"m 422 928 l 517 928 l 517 857 l 422 857 l 422 928 m 214 0 l 145 0 l 145 928 l 214 928 l 214 0 "},"Ŋ":{"x_min":182,"x_max":841,"ha":1051,"o":"m 182 1013 l 282 1013 l 773 86 l 773 1013 l 841 1013 l 841 70 q 796 -171 841 -96 q 652 -247 751 -247 l 494 -247 l 494 -191 l 644 -191 q 743 -133 714 -191 q 766 -42 760 -101 l 251 932 l 251 0 l 182 0 l 182 1013 "},"˥":{"x_min":144.859375,"x_max":517,"ha":685,"o":"m 448 0 l 448 871 l 144 871 l 144 928 l 517 928 l 517 0 l 448 0 "},"Ũ":{"x_min":155,"x_max":861,"ha":1016,"o":"m 544 1213 q 571 1199 556 1206 q 591 1195 582 1195 q 629 1212 616 1195 q 642 1269 642 1229 l 706 1269 q 676 1165 706 1202 q 595 1129 647 1129 q 547 1137 569 1129 q 500 1164 541 1140 l 468 1184 q 441 1198 458 1190 q 421 1204 430 1204 q 383 1186 395 1204 q 371 1130 371 1168 l 306 1130 q 336 1233 306 1196 q 417 1270 365 1270 q 465 1260 443 1270 q 512 1233 487 1248 l 544 1213 m 155 1012 l 223 1012 l 223 397 q 290 120 223 204 q 508 36 357 36 q 725 120 658 36 q 793 397 793 204 l 793 1012 l 861 1012 l 861 380 q 771 81 861 182 q 508 -20 682 -20 q 244 81 333 -20 q 155 380 155 182 l 155 1012 "},"Ⅹ":{"x_min":81.375,"x_max":873.484375,"ha":951,"o":"m 122 1013 l 199 1013 l 482 587 l 767 1013 l 846 1013 l 521 529 l 873 0 l 795 0 l 478 476 l 159 0 l 81 0 l 439 535 l 122 1013 "},"L":{"x_min":170,"x_max":731.03125,"ha":774,"o":"m 170 1013 l 238 1013 l 238 56 l 731 56 l 731 0 l 170 0 l 170 1013 "},"Ẋ":{"x_min":81.359375,"x_max":873.46875,"ha":951,"o":"m 122 1013 l 199 1013 l 482 587 l 767 1013 l 846 1013 l 521 529 l 873 0 l 795 0 l 478 476 l 159 0 l 81 0 l 439 535 l 122 1013 m 453 1216 l 515 1216 l 515 1129 l 453 1129 l 453 1216 "},";":{"x_min":172.5625,"x_max":268,"ha":467,"o":"m 199 668 l 268 668 l 268 582 l 199 582 l 199 668 m 199 88 l 268 88 l 268 56 l 214 -161 l 172 -161 l 199 56 l 199 88 "},"ͷ":{"x_min":157,"x_max":757,"ha":902,"o":"m 157 0 l 157 760 l 219 760 l 219 67 l 664 760 l 757 760 l 757 0 l 694 0 l 694 693 l 247 0 l 157 0 "},"ď":{"x_min":159,"x_max":981.234375,"ha":882,"o":"m 710 586 l 710 1055 l 771 1055 l 771 0 l 710 0 l 710 172 q 617 36 667 73 q 472 -19 540 -19 q 248 89 337 -19 q 159 379 159 199 q 248 668 159 558 q 472 778 337 778 q 617 721 540 778 q 710 586 667 685 m 303 643 q 225 379 225 564 q 303 114 225 193 q 468 35 381 35 q 631 114 552 35 q 709 379 709 193 q 631 643 709 564 q 468 723 552 723 q 303 643 381 723 m 914 1055 l 981 1055 l 912 799 l 859 799 l 914 1055 "},"ṯ":{"x_min":69,"x_max":542,"ha":545,"o":"m 223 975 l 223 760 l 480 760 l 480 707 l 223 707 l 223 250 q 245 128 223 163 q 379 53 291 53 l 480 53 l 480 0 l 383 0 q 225 54 290 0 q 160 250 160 108 l 160 707 l 69 707 l 69 760 l 160 760 l 160 975 l 223 975 m 136 -117 l 542 -117 l 542 -177 l 136 -177 l 136 -117 "},"Ο":{"x_min":113,"x_max":980,"ha":1093,"o":"m 811 851 q 547 978 713 978 q 282 851 381 978 q 185 505 185 724 q 282 160 185 287 q 547 34 381 34 q 811 160 713 34 q 908 505 908 287 q 811 851 908 724 m 547 1031 q 861 888 743 1031 q 980 505 980 745 q 861 123 980 265 q 547 -20 743 -20 q 231 122 349 -20 q 113 505 113 264 q 231 888 113 745 q 547 1031 349 1031 "},"ŧ":{"x_min":69,"x_max":480,"ha":544,"o":"m 223 975 l 223 760 l 480 760 l 480 707 l 223 707 l 223 478 l 376 478 l 376 425 l 223 425 l 223 250 q 245 129 223 163 q 379 53 291 53 l 480 53 l 480 0 l 383 0 q 225 54 290 0 q 160 250 160 108 l 160 425 l 69 425 l 69 478 l 160 478 l 160 707 l 69 707 l 69 760 l 160 760 l 160 975 l 223 975 "},"À":{"x_min":41.375,"x_max":904,"ha":950,"o":"m 471 943 l 254 374 l 684 374 l 471 943 m 427 1012 l 516 1012 l 904 0 l 826 0 l 705 318 l 233 318 l 113 0 l 41 0 l 427 1012 m 412 1287 l 545 1109 l 489 1109 l 335 1287 l 412 1287 "},"Ώ":{"x_min":-25.0625,"x_max":1019,"ha":1147,"o":"m 136 552 q 256 898 136 762 q 566 1033 376 1033 q 877 897 757 1033 q 998 552 998 762 q 936 283 998 399 q 735 57 875 167 l 1019 57 l 1019 0 l 626 0 l 626 54 q 846 261 767 130 q 926 549 926 391 q 827 861 926 744 q 566 979 728 979 q 306 861 405 979 q 207 549 207 743 q 286 261 207 394 q 513 54 364 130 l 513 0 l 116 0 l 116 57 l 402 57 q 197 283 260 162 q 136 552 136 399 m 164 1111 l 251 1111 l 30 856 l -25 856 l 164 1111 "},"̊":{"x_min":-515,"x_max":-181,"ha":1,"o":"m -245 1033 q -274 1106 -245 1076 q -348 1136 -304 1136 q -421 1106 -392 1136 q -451 1033 -451 1076 q -421 959 -451 989 q -348 930 -392 930 q -274 959 -304 930 q -245 1033 -245 989 m -229 1151 q -181 1033 -181 1103 q -229 914 -181 963 q -348 866 -278 866 q -466 914 -417 866 q -515 1033 -515 963 q -466 1151 -515 1103 q -348 1200 -417 1200 q -229 1151 -278 1200 "},"½":{"x_min":93.171875,"x_max":1258,"ha":1346,"o":"m 930 100 l 1258 100 l 1258 44 l 852 44 l 852 110 q 918 162 907 154 q 1173 404 1173 349 q 1135 494 1173 468 q 1023 522 1097 522 q 946 505 987 522 q 856 453 905 487 l 856 515 q 954 562 908 547 q 1038 578 998 578 q 1181 533 1127 578 q 1235 413 1235 488 q 998 147 1235 312 q 930 100 954 116 m 953 1031 l 1023 1031 l 392 -19 l 321 -19 l 953 1031 m 106 552 l 256 552 l 256 958 l 93 914 l 93 973 l 249 1012 l 319 1012 l 319 552 l 481 552 l 481 499 l 106 499 l 106 552 "},"ᴧ":{"x_min":88.15625,"x_max":733.78125,"ha":822,"o":"m 733 0 l 668 0 l 410 691 l 153 0 l 88 0 l 370 760 l 450 760 l 733 0 "},"️":{"x_min":0,"x_max":0,"ha":0},"'":{"x_min":157,"x_max":222,"ha":382,"o":"m 222 1012 l 222 636 l 157 636 l 157 1012 l 222 1012 "},"˛":{"x_min":241,"x_max":505.421875,"ha":695,"o":"m 310 0 l 368 0 q 320 -80 335 -47 q 304 -136 304 -113 q 326 -189 304 -171 q 391 -208 348 -208 q 453 -202 426 -208 q 505 -183 480 -196 l 505 -246 q 449 -257 477 -253 q 392 -262 422 -262 q 278 -232 317 -262 q 241 -142 241 -201 q 257 -76 241 -110 q 310 0 275 -41 "},"ɛ":{"x_min":123,"x_max":656,"ha":750,"o":"m 267 408 q 174 469 208 423 q 142 576 142 512 q 207 723 142 667 q 396 779 273 779 q 505 766 448 779 q 630 729 563 754 l 630 667 q 510 709 564 696 q 407 723 455 723 q 235 668 275 723 q 205 563 205 626 q 258 470 205 506 q 402 434 310 434 l 508 434 l 508 381 l 404 381 q 244 339 299 381 q 185 220 185 293 q 241 82 185 130 q 429 34 296 34 q 566 63 489 34 q 656 102 623 84 l 656 44 q 538 -4 595 12 q 396 -20 480 -20 q 194 41 265 -20 q 123 220 123 103 q 161 343 123 290 q 267 408 197 393 "},"ṏ":{"x_min":110,"x_max":739.390625,"ha":850,"o":"m 461 972 q 487 958 472 965 q 507 954 498 954 q 545 971 533 954 q 558 1028 558 988 l 622 1028 q 592 924 622 961 q 511 888 563 888 q 463 896 485 888 q 417 923 457 899 l 384 943 q 358 957 375 949 q 338 963 347 963 q 300 945 312 963 q 288 889 288 927 l 223 889 q 253 992 223 955 q 334 1029 282 1029 q 381 1020 360 1029 q 428 992 404 1007 l 461 972 m 486 1225 l 550 1225 l 550 1144 l 486 1144 l 486 1225 m 296 1225 l 359 1225 l 359 1144 l 296 1144 l 296 1225 m 609 629 q 426 723 542 723 q 242 630 310 723 q 175 380 175 537 q 242 126 175 219 q 426 34 309 34 q 609 126 542 34 q 677 380 677 220 q 609 629 677 535 m 425 778 q 654 669 570 778 q 739 379 739 560 q 654 85 739 193 q 425 -23 570 -23 q 194 84 278 -23 q 110 379 110 192 q 194 670 110 562 q 425 778 279 778 "},"ٴ":{"x_min":93,"x_max":326,"ha":406,"o":"m 93 1124 l 93 1189 q 140 1200 109 1191 q 184 1220 165 1208 q 113 1257 132 1228 q 95 1325 95 1283 q 155 1433 95 1391 q 231 1456 190 1456 q 296 1442 266 1456 l 296 1375 q 233 1392 261 1392 q 197 1381 212 1392 q 162 1322 162 1359 q 235 1262 162 1280 q 326 1282 273 1252 l 326 1214 q 217 1163 292 1192 q 93 1124 133 1130 "},"ᾲ":{"x_min":111,"x_max":827,"ha":915,"o":"m 465 -289 l 424 -289 q 341 -164 341 -289 l 341 -62 l 392 -62 l 392 -173 q 444 -244 392 -244 l 465 -244 l 465 -289 m 302 1111 l 493 857 l 438 857 l 216 1111 l 302 1111 m 595 353 l 561 531 q 387 724 524 724 q 233 639 288 724 q 173 381 173 543 q 232 120 173 203 q 387 34 292 34 q 548 204 493 34 l 595 353 m 392 777 q 637 475 602 777 l 732 760 l 797 760 l 658 348 l 686 199 q 728 77 703 107 q 785 54 748 54 l 827 54 l 827 0 l 774 0 q 667 55 707 0 q 616 225 647 82 q 513 35 590 116 q 392 -16 465 -16 q 182 85 250 -16 q 111 379 111 191 q 201 687 111 565 q 392 777 268 777 "},"Ɠ":{"x_min":116,"x_max":1091,"ha":1076,"o":"m 861 85 l 861 441 l 602 441 l 602 497 l 928 497 l 928 53 q 768 0 856 17 q 582 -19 679 -19 q 240 119 364 -19 q 116 505 116 258 q 240 892 116 753 q 583 1031 363 1031 q 754 1012 673 1031 q 842 984 800 1001 q 888 1164 842 1110 q 1043 1225 935 1225 l 1091 1225 l 1091 1172 l 1057 1172 q 942 1138 981 1172 q 904 954 904 1105 l 904 889 q 757 947 835 927 q 594 966 679 966 q 288 849 390 966 q 186 505 186 734 q 288 155 186 272 q 594 37 390 37 q 743 48 677 37 q 861 85 808 60 "},"Ć":{"x_min":115,"x_max":894,"ha":969,"o":"m 894 928 l 894 850 q 746 943 824 913 q 580 975 668 975 q 287 854 388 975 q 186 505 186 733 q 287 155 186 276 q 580 34 388 34 q 746 65 668 34 q 894 160 824 97 l 894 78 q 741 4 822 29 q 571 -20 661 -20 q 237 120 359 -20 q 115 505 115 261 q 237 889 115 749 q 571 1031 359 1031 q 742 1005 662 1031 q 894 928 823 979 m 609 1288 l 687 1288 l 532 1109 l 476 1109 l 609 1288 "},"ẓ":{"x_min":60,"x_max":670,"ha":730,"o":"m 349 -167 l 412 -167 l 412 -256 l 349 -256 l 349 -167 m 77 760 l 670 760 l 670 687 l 120 53 l 670 53 l 670 0 l 60 0 l 60 69 l 608 706 l 77 706 l 77 760 "},"£":{"x_min":87,"x_max":760,"ha":883,"o":"m 747 995 l 747 934 q 649 965 695 955 q 561 975 609 975 q 379 870 438 975 q 346 673 346 810 l 346 506 l 648 506 l 648 453 l 346 453 l 346 52 l 760 52 l 760 0 l 87 0 l 87 52 l 283 52 l 283 453 l 112 453 l 112 506 l 283 506 l 283 689 q 363 952 283 873 q 549 1031 441 1031 q 642 1021 591 1031 q 747 995 693 1012 "},"ů":{"x_min":157,"x_max":731,"ha":880,"o":"m 157 301 l 157 760 l 219 760 l 219 305 q 266 97 219 157 q 406 36 314 36 q 591 102 514 36 q 668 330 668 167 l 668 760 l 731 760 l 731 0 l 668 0 l 668 142 q 581 36 635 73 q 403 -18 501 -18 q 224 58 291 -18 q 157 301 157 134 m 534 993 q 504 1066 534 1036 q 431 1096 474 1096 q 357 1066 386 1096 q 328 993 328 1036 q 357 919 328 949 q 431 890 386 890 q 504 919 474 890 q 534 993 534 949 m 549 1111 q 598 993 598 1063 q 549 874 598 923 q 431 826 500 826 q 312 874 361 826 q 264 993 264 923 q 312 1111 264 1063 q 431 1160 361 1160 q 549 1111 500 1160 "},"Ṻ":{"x_min":155,"x_max":861,"ha":1016,"o":"m 155 1012 l 223 1012 l 223 397 q 290 120 223 204 q 508 36 357 36 q 725 120 658 36 q 793 397 793 204 l 793 1012 l 861 1012 l 861 380 q 771 81 861 182 q 508 -20 682 -20 q 244 81 333 -20 q 155 380 155 182 l 155 1012 "},"Ͱ":{"x_min":169,"x_max":804.265625,"ha":909,"o":"m 804 513 l 238 513 l 238 0 l 169 0 l 169 1013 l 238 1013 l 238 567 l 804 567 l 804 513 "},"Ǵ":{"x_min":116,"x_max":928,"ha":1076,"o":"m 641 1288 l 719 1288 l 564 1110 l 509 1110 l 641 1288 m 861 85 l 861 441 l 602 441 l 602 497 l 928 497 l 928 53 q 768 0 855 17 q 582 -19 681 -19 q 240 119 363 -19 q 116 505 116 257 q 240 892 116 753 q 583 1031 363 1031 q 754 1012 674 1031 q 904 955 836 993 l 904 889 q 757 947 835 927 q 594 966 679 966 q 288 849 390 966 q 186 505 186 734 q 288 155 186 272 q 594 37 390 37 q 743 48 677 37 q 861 85 808 60 "},"":{"x_min":262.25,"x_max":686.671875,"ha":949,"o":"m 262 1274 l 322 1274 q 371 1195 332 1223 q 474 1167 410 1167 q 576 1193 538 1167 q 626 1274 614 1219 l 686 1274 q 625 1152 679 1193 q 474 1110 571 1110 q 322 1151 376 1110 q 262 1274 269 1192 m 505 1393 q 532 1379 517 1386 q 552 1375 543 1375 q 590 1392 577 1375 q 603 1449 603 1409 l 667 1449 q 637 1345 667 1382 q 556 1309 608 1309 q 508 1317 530 1309 q 461 1344 502 1320 l 429 1364 q 402 1378 419 1370 q 382 1384 391 1384 q 344 1366 356 1384 q 332 1310 332 1348 l 267 1310 q 297 1413 267 1376 q 378 1450 326 1450 q 426 1440 404 1450 q 473 1413 448 1428 l 505 1393 "},"Ğ":{"x_min":116,"x_max":928,"ha":1076,"o":"m 861 85 l 861 441 l 602 441 l 602 497 l 928 497 l 928 53 q 768 0 855 17 q 582 -19 681 -19 q 240 119 363 -19 q 116 505 116 257 q 240 892 116 753 q 583 1031 363 1031 q 754 1012 674 1031 q 904 955 836 993 l 904 889 q 757 947 835 927 q 594 966 679 966 q 288 849 390 966 q 186 505 186 734 q 288 155 186 272 q 594 37 390 37 q 743 48 677 37 q 861 85 808 60 m 326 1289 l 387 1289 q 435 1210 396 1238 q 538 1182 474 1182 q 640 1208 602 1182 q 690 1289 678 1234 l 751 1289 q 690 1167 744 1208 q 539 1125 635 1125 q 387 1166 441 1125 q 326 1289 333 1207 "},"ә":{"x_min":110,"x_max":749,"ha":854,"o":"m 110 346 l 110 386 l 686 386 q 614 642 686 569 q 381 724 536 724 q 273 706 340 724 q 139 653 205 688 l 139 719 q 276 762 206 747 q 388 778 347 778 q 652 683 563 778 q 749 386 749 581 q 660 83 749 183 q 410 -20 570 -20 q 185 78 261 -20 q 110 346 110 181 m 173 333 q 244 99 173 173 q 408 34 305 34 q 598 102 522 34 q 683 333 669 165 l 173 333 "},"Ї":{"x_min":78,"x_max":331.390625,"ha":409,"o":"m 168 1013 l 239 1013 l 239 0 l 168 0 l 168 1013 m 269 1268 l 331 1268 l 331 1186 l 269 1186 l 269 1268 m 78 1268 l 142 1268 l 142 1186 l 78 1186 l 78 1268 "},"̖":{"x_min":-557.453125,"x_max":-280.765625,"ha":0,"o":"m -472 -116 l -280 -370 l -336 -370 l -557 -116 l -472 -116 "},"û":{"x_min":157,"x_max":731,"ha":880,"o":"m 157 301 l 157 760 l 219 760 l 219 305 q 266 97 219 157 q 406 36 314 36 q 591 102 514 36 q 668 330 668 167 l 668 760 l 731 760 l 731 0 l 668 0 l 668 142 q 581 36 635 73 q 403 -18 501 -18 q 224 58 291 -18 q 157 301 157 134 m 402 1111 l 460 1111 l 625 856 l 572 856 l 431 1045 l 290 856 l 236 856 l 402 1111 "},"Ẑ":{"x_min":62,"x_max":889,"ha":951,"o":"m 77 1013 l 873 1013 l 873 958 l 142 56 l 889 56 l 889 0 l 62 0 l 62 55 l 790 957 l 77 957 l 77 1013 m 446 1289 l 503 1289 l 669 1109 l 615 1109 l 475 1223 l 334 1109 l 279 1109 l 446 1289 "},"Ź":{"x_min":62,"x_max":889,"ha":951,"o":"m 506 1289 l 583 1289 l 429 1110 l 373 1110 l 506 1289 m 77 1013 l 873 1013 l 873 958 l 142 56 l 889 56 l 889 0 l 62 0 l 62 55 l 790 957 l 77 957 l 77 1013 "},"Ꙑ":{"x_min":35.171875,"x_max":1258,"ha":1429,"o":"m 1187 1013 l 1258 1013 l 1258 0 l 1187 0 l 1187 1013 m 709 559 q 942 487 860 559 q 1024 283 1024 416 q 941 73 1024 147 q 708 0 859 0 l 379 0 l 379 957 l 35 957 l 35 1013 l 448 1013 l 448 559 l 709 559 m 448 505 l 448 54 l 702 54 q 893 110 831 54 q 956 280 956 165 q 893 450 956 395 q 702 505 831 505 l 448 505 "},"ʻ":{"x_min":159,"x_max":255.125,"ha":442,"o":"m 228 693 l 159 693 l 159 795 l 212 1012 l 255 1012 l 228 795 l 228 693 "},"":{"x_min":279.859375,"x_max":668.890625,"ha":949,"o":"m 446 1270 l 279 1450 l 334 1450 l 475 1335 l 615 1450 l 668 1450 l 503 1270 l 446 1270 m 538 1243 l 600 1243 l 600 1161 l 538 1161 l 538 1243 m 347 1243 l 411 1243 l 411 1161 l 347 1161 l 347 1243 "},"Ṁ":{"x_min":223,"x_max":975,"ha":1198,"o":"m 223 1013 l 317 1013 l 598 261 l 881 1013 l 975 1013 l 975 0 l 906 0 l 906 889 l 645 194 l 551 194 l 292 889 l 292 0 l 223 0 l 223 1013 m 570 1217 l 632 1217 l 632 1130 l 570 1130 l 570 1217 "},"ɔ":{"x_min":95,"x_max":677.390625,"ha":764,"o":"m 579 687 q 677 379 677 596 q 579 70 677 161 q 313 -20 480 -20 q 202 -7 259 -20 q 95 29 147 4 l 95 92 q 201 48 147 63 q 308 34 254 34 q 543 118 472 34 q 615 379 615 202 q 543 638 615 554 q 308 723 472 723 q 187 703 250 723 q 95 656 151 691 l 95 723 q 198 762 137 747 q 314 778 259 778 q 579 687 480 778 "},"բ":{"x_min":157,"x_max":731,"ha":880,"o":"m 731 458 l 731 305 l 668 305 l 668 454 q 621 662 668 602 q 481 723 573 723 q 296 657 373 723 q 219 429 219 592 l 219 53 l 731 53 l 731 0 l 219 0 l 219 -289 l 157 -289 l 157 760 l 219 760 l 219 617 q 306 723 252 685 q 484 778 387 778 q 663 701 596 778 q 731 458 731 625 "},"⁏":{"x_min":173,"x_max":268.453125,"ha":468,"o":"m 241 719 l 241 633 l 173 633 l 173 719 l 241 719 m 242 88 l 242 56 l 268 -161 l 226 -161 l 173 56 l 173 88 l 242 88 "},"ỵ":{"x_min":74.28125,"x_max":747.03125,"ha":822,"o":"m 413 -70 q 325 -209 372 -171 q 202 -262 262 -262 l 109 -262 l 109 -209 l 188 -209 q 275 -177 238 -209 q 355 -55 323 -135 l 377 0 l 74 760 l 140 760 l 410 83 l 681 760 l 747 760 l 413 -70 m 568 -166 l 630 -166 l 630 -255 l 568 -255 l 568 -166 "},"‒":{"x_min":68,"x_max":816,"ha":884,"o":"m 68 409 l 816 409 l 816 353 l 68 353 l 68 409 "},"ḇ":{"x_min":159,"x_max":771,"ha":882,"o":"m 241 -117 l 647 -117 l 647 -177 l 241 -177 l 241 -117 m 626 114 q 705 379 705 193 q 626 643 705 564 q 461 723 548 723 q 298 643 377 723 q 220 379 220 564 q 298 114 220 193 q 461 35 377 35 q 626 114 548 35 m 220 586 q 312 721 262 685 q 456 778 388 778 q 681 668 591 778 q 771 379 771 558 q 681 89 771 199 q 456 -19 591 -19 q 312 36 388 -19 q 220 172 262 73 l 220 0 l 159 0 l 159 1055 l 220 1055 l 220 586 "},"Ῑ":{"x_min":3,"x_max":409,"ha":410,"o":"m 168 1013 l 239 1013 l 239 0 l 168 0 l 168 1013 m 3 1249 l 409 1249 l 409 1189 l 3 1189 l 3 1249 "},"Ń":{"x_min":168,"x_max":827,"ha":1039,"o":"m 539 1289 l 616 1289 l 462 1110 l 406 1110 l 539 1289 m 168 1013 l 268 1013 l 759 86 l 759 1013 l 827 1013 l 827 0 l 730 0 l 237 932 l 237 0 l 168 0 l 168 1013 "},"ῖ":{"x_min":1,"x_max":405,"ha":469,"o":"m 201 944 l 162 981 q 136 1001 153 990 q 116 1008 125 1008 q 78 983 90 1008 q 66 903 66 958 l 1 903 q 30 1022 1 980 q 112 1065 60 1065 q 159 1055 138 1065 q 206 1023 185 1044 l 245 986 q 272 966 255 977 q 291 960 283 960 q 330 984 317 960 q 342 1065 342 1009 l 405 1065 q 375 948 405 993 q 295 903 347 903 q 248 912 269 903 q 201 944 223 923 m 219 760 l 219 190 q 235 83 219 111 q 314 52 254 52 l 377 52 l 377 0 l 303 0 q 188 46 218 0 q 158 192 158 92 l 158 760 l 219 760 "},"ḿ":{"x_min":157,"x_max":1205,"ha":1353,"o":"m 715 1111 l 801 1111 l 580 856 l 525 856 l 715 1111 m 703 594 q 814 732 738 685 q 985 778 886 778 q 1144 708 1084 778 q 1205 458 1205 638 l 1205 0 l 1143 0 l 1143 454 q 1099 667 1143 611 q 984 723 1056 723 q 799 658 879 723 q 712 429 712 588 l 712 0 l 650 0 l 650 454 q 607 664 650 606 q 491 723 565 723 q 306 657 386 723 q 219 429 219 588 l 219 0 l 157 0 l 157 760 l 219 760 l 219 617 q 322 735 252 691 q 495 778 393 778 q 623 733 561 778 q 703 594 671 698 "},"⁬":{"x_min":0,"x_max":0,"ha":0},"ᾛ":{"x_min":24,"x_max":1340,"ha":1512,"o":"m 1046 -289 l 1005 -289 q 922 -164 922 -289 l 922 -62 l 973 -62 l 973 -173 q 1025 -244 973 -244 l 1046 -244 l 1046 -289 m 316 1111 l 507 857 l 452 857 l 231 1111 l 316 1111 m 24 950 q 24 1120 24 950 l 147 1120 l 147 990 l 90 990 l 90 949 q 149 883 90 883 l 149 829 q 24 950 24 829 m 636 1013 l 705 1013 l 705 567 l 1271 567 l 1271 1013 l 1340 1013 l 1340 0 l 1271 0 l 1271 513 l 705 513 l 705 0 l 636 0 l 636 1013 "},".":{"x_min":186,"x_max":255,"ha":442,"o":"m 186 85 l 255 85 l 255 0 l 186 0 l 186 85 "},"ǀ":{"x_min":171,"x_max":239,"ha":410,"o":"m 171 1013 l 239 1013 l 239 -289 l 171 -289 l 171 1013 "},"ꙇ":{"x_min":159,"x_max":377,"ha":538,"o":"m 220 760 l 220 190 q 236 83 220 111 q 314 52 255 52 l 377 52 l 377 0 l 303 0 q 189 46 219 0 q 159 192 159 92 l 159 760 l 220 760 "},"π":{"x_min":50,"x_max":797.75,"ha":836,"o":"m 50 760 l 778 760 l 778 707 l 650 707 l 650 136 q 663 60 650 78 q 707 39 680 39 q 760 44 729 39 l 797 51 l 797 -3 q 748 -15 773 -11 q 698 -20 723 -20 q 617 13 648 -20 q 586 135 586 46 l 586 707 l 243 707 l 243 0 l 179 0 l 179 707 l 50 707 l 50 760 "},"Ṗ":{"x_min":170,"x_max":752,"ha":837,"o":"m 238 957 l 238 491 l 445 491 q 620 551 559 491 q 683 724 683 611 q 620 896 683 835 q 445 957 559 957 l 238 957 m 170 1013 l 445 1013 q 674 939 596 1013 q 752 724 752 866 q 674 508 752 581 q 446 435 597 435 l 238 435 l 238 0 l 170 0 l 170 1013 m 406 1217 l 468 1217 l 468 1130 l 406 1130 l 406 1217 "},"ʂ":{"x_min":104,"x_max":621.390625,"ha":723,"o":"m 587 737 l 587 669 q 504 709 521 705 q 386 722 457 722 q 218 680 279 722 q 172 559 172 645 q 216 469 172 502 q 349 415 263 434 l 392 405 q 556 338 500 382 q 621 209 621 288 q 559 40 621 101 q 341 -20 491 -20 q 214 -8 257 -20 q 166 5 191 -1 l 166 -13 q 205 -202 166 -166 q 320 -236 241 -236 l 354 -236 l 354 -289 l 306 -289 q 150 -228 198 -289 q 104 -13 104 -168 l 104 105 q 211 51 186 58 q 344 34 278 34 q 506 79 453 34 q 559 200 559 125 q 523 291 559 262 q 362 357 473 331 l 318 367 q 172 430 222 390 q 109 554 109 481 q 185 725 109 673 q 372 778 261 778 q 502 767 466 778 q 587 737 545 755 "},"ԝ":{"x_min":88.15625,"x_max":1007.765625,"ha":1136,"o":"m 88 760 l 152 760 l 330 82 l 507 760 l 587 760 l 765 79 l 943 760 l 1007 760 l 809 0 l 722 0 l 547 666 l 373 0 l 287 0 l 88 760 "},"ꙣ":{"x_min":101,"x_max":1148.03125,"ha":1202,"o":"m 101 -191 l 101 52 l 159 52 q 238 145 214 81 q 297 616 297 303 l 297 760 l 1148 760 l 1148 707 l 748 707 l 748 52 l 843 52 l 843 -192 l 790 -192 l 790 0 l 154 0 l 154 -191 l 101 -191 m 254 54 l 686 54 l 686 707 l 360 707 l 360 565 q 282 92 360 258 q 254 54 269 65 "},"Ẫ":{"x_min":41.171875,"x_max":903.6875,"ha":950,"o":"m 505 1393 q 532 1379 517 1386 q 552 1375 543 1375 q 590 1392 577 1375 q 603 1449 603 1409 l 667 1449 q 637 1345 667 1382 q 556 1309 608 1309 q 508 1317 530 1309 q 461 1344 502 1320 l 429 1364 q 402 1378 419 1370 q 382 1384 391 1384 q 344 1366 356 1384 q 332 1310 332 1348 l 267 1310 q 297 1413 267 1376 q 378 1450 326 1450 q 426 1440 404 1450 q 473 1413 448 1428 l 505 1393 m 445 1289 l 503 1289 l 668 1109 l 615 1109 l 474 1223 l 333 1109 l 279 1109 l 445 1289 m 471 943 l 254 374 l 684 374 l 471 943 m 427 1012 l 516 1012 l 903 0 l 826 0 l 705 318 l 233 318 l 113 0 l 41 0 l 427 1012 "},"Ъ":{"x_min":35.171875,"x_max":1024,"ha":1156,"o":"m 709 559 q 942 487 860 559 q 1024 283 1024 416 q 941 73 1024 147 q 708 0 859 0 l 379 0 l 379 957 l 35 957 l 35 1013 l 448 1013 l 448 559 l 709 559 m 448 505 l 448 54 l 702 54 q 893 110 831 54 q 956 280 956 165 q 893 450 956 395 q 702 505 831 505 l 448 505 "},"ʯ":{"x_min":0,"x_max":948,"ha":922,"o":"m 249 305 q 296 97 249 157 q 436 36 344 36 q 621 102 544 36 q 698 330 698 167 l 698 760 l 761 760 l 761 -13 q 799 -202 761 -168 q 914 -236 838 -236 l 948 -236 l 948 -289 l 900 -289 q 745 -228 790 -289 q 698 -13 698 -165 l 698 142 q 611 36 665 74 q 433 -18 530 -18 q 254 58 321 -18 q 187 301 187 134 l 187 780 q 148 968 187 934 q 33 1002 109 1002 l 0 1002 l 0 1055 l 47 1055 q 202 994 145 1055 q 249 780 249 945 l 249 305 "},"‽":{"x_min":105.03125,"x_max":610,"ha":738,"o":"m 369 272 l 300 272 l 300 376 q 302 439 300 409 l 302 567 l 302 971 q 243 956 267 966 q 119 866 170 924 l 105 940 q 225 1012 172 997 q 364 1031 287 1031 q 534 965 458 1031 q 610 791 610 899 q 585 693 610 740 q 499 588 562 649 l 440 530 q 394 480 410 501 q 376 445 381 462 q 369 411 371 431 q 369 355 369 390 l 369 272 m 299 85 l 368 85 l 368 0 l 299 0 l 299 85 m 364 550 q 402 591 380 569 l 463 651 q 519 719 504 692 q 537 784 537 751 q 492 923 537 870 q 370 976 447 976 q 364 976 366 976 l 364 567 l 364 550 "}," ":{"x_min":0,"x_max":0,"ha":138},"ή":{"x_min":157,"x_max":731,"ha":909,"o":"m 575 1111 l 662 1111 l 441 856 l 385 856 l 575 1111 m 731 458 l 731 -289 l 668 -289 l 668 454 q 621 662 668 602 q 481 723 573 723 q 296 657 373 723 q 219 429 219 592 l 219 0 l 157 0 l 157 760 l 219 760 l 219 617 q 306 723 252 686 q 484 778 386 778 q 663 701 596 778 q 731 458 731 625 "},"Ś":{"x_min":123,"x_max":768,"ha":881,"o":"m 507 1288 l 584 1288 l 429 1109 l 374 1109 l 507 1288 m 735 961 l 735 897 q 587 957 668 930 q 454 975 534 975 q 259 920 334 975 q 192 749 192 870 q 243 630 192 674 q 409 555 298 583 l 490 534 q 657 466 598 505 q 768 277 768 391 q 671 48 768 112 q 453 -20 565 -20 q 246 12 337 -20 q 126 76 188 35 l 126 142 q 258 70 220 86 q 416 36 343 36 q 622 90 540 36 q 700 271 700 142 q 652 391 700 347 q 474 480 583 454 l 393 500 q 226 566 295 524 q 123 744 123 631 q 207 960 123 884 q 446 1030 286 1030 q 591 1013 540 1030 q 735 961 720 972 "},"à":{"x_min":114,"x_max":694,"ha":851,"o":"m 461 429 q 244 375 310 429 q 178 218 178 321 q 232 76 178 118 q 363 34 287 34 q 567 154 505 34 q 630 382 630 275 l 630 429 l 461 429 m 694 433 l 694 0 l 632 0 l 632 206 q 493 13 579 55 q 357 -20 425 -20 q 179 40 244 -20 q 114 219 114 101 q 198 408 114 338 q 476 480 283 480 l 630 480 l 630 492 q 573 658 630 593 q 384 723 516 723 q 251 698 319 723 q 139 635 208 683 l 139 702 q 251 755 199 740 q 397 778 327 778 q 618 696 531 778 q 694 433 694 626 m 310 1111 l 501 857 l 445 857 l 224 1111 l 310 1111 "},"₀":{"x_min":73,"x_max":487,"ha":557,"o":"m 282 478 q 176 418 215 478 q 139 255 139 360 q 177 93 139 152 q 282 34 215 34 q 386 93 347 34 q 424 255 424 152 q 386 418 424 359 q 282 478 347 478 m 280 532 q 431 457 375 532 q 487 255 487 382 q 431 53 487 128 q 280 -20 375 -20 q 128 53 184 -20 q 73 255 73 128 q 129 456 73 382 q 280 532 185 532 "},"̛":{"x_min":-170.53125,"x_max":91,"ha":0,"o":"m -170 599 l -170 657 q -90 609 -123 624 q -34 593 -57 593 q 18 615 0 593 q 37 680 37 637 q 31 742 37 715 q 12 794 25 769 l 75 794 q 86 738 82 766 q 91 681 91 711 q 61 567 91 606 q -28 530 30 530 q -94 546 -60 530 q -170 599 -129 564 "},"¦":{"x_min":197,"x_max":265,"ha":468,"o":"m 265 277 l 265 -237 l 197 -237 l 197 277 l 265 277 m 265 972 l 265 458 l 197 458 l 197 972 l 265 972 "},"Ѣ":{"x_min":27,"x_max":929,"ha":1067,"o":"m 353 54 l 607 54 q 798 110 736 54 q 861 280 861 165 q 798 449 861 394 q 607 504 736 504 l 353 504 l 353 54 m 27 777 l 27 833 l 284 833 l 284 1012 l 353 1012 l 353 833 l 611 833 l 611 777 l 353 777 l 353 560 l 614 560 q 847 487 764 560 q 929 281 929 415 q 846 73 929 147 q 613 0 764 0 l 284 0 l 284 777 l 27 777 "},"ᾼ":{"x_min":40.9375,"x_max":903.703125,"ha":950,"o":"m 542 -289 l 501 -289 q 418 -164 418 -289 l 418 -62 l 469 -62 l 469 -173 q 521 -244 469 -244 l 542 -244 l 542 -289 m 471 943 l 253 374 l 684 374 l 471 943 m 427 1012 l 516 1012 l 903 0 l 826 0 l 705 318 l 232 318 l 112 0 l 40 0 l 427 1012 "},"Ỷ":{"x_min":30.953125,"x_max":815.890625,"ha":848,"o":"m 418 1434 q 548 1312 548 1434 q 535 1244 548 1282 q 454 1176 521 1198 l 454 1116 l 394 1116 l 394 1189 q 471 1231 447 1200 q 486 1299 486 1250 q 403 1386 486 1386 q 298 1359 342 1386 l 298 1408 q 418 1434 344 1434 m 30 1013 l 109 1013 l 424 546 l 738 1013 l 815 1013 l 458 482 l 458 0 l 389 0 l 389 482 l 30 1013 "},"Ṕ":{"x_min":170,"x_max":752,"ha":837,"o":"m 238 957 l 238 491 l 445 491 q 620 551 559 491 q 683 724 683 611 q 620 896 683 835 q 445 957 559 957 l 238 957 m 170 1013 l 445 1013 q 674 939 596 1013 q 752 724 752 866 q 674 508 752 581 q 445 435 596 435 l 238 435 l 238 0 l 170 0 l 170 1013 m 513 1289 l 590 1289 l 436 1110 l 380 1110 l 513 1289 "},"̳":{"x_min":-708,"x_max":14,"ha":1,"o":"m 14 -275 l 14 -328 l -708 -328 l -708 -275 l 14 -275 m 14 -57 l 14 -110 l -708 -110 l -708 -57 l 14 -57 "},"ꜞ":{"x_min":155,"x_max":196,"ha":351,"o":"m 196 971 l 155 971 l 155 1020 l 196 1020 l 196 971 m 192 453 l 159 453 l 159 702 l 159 838 l 192 838 l 192 702 l 192 453 "},"ꜳ":{"x_min":114,"x_max":1212,"ha":1368,"o":"m 461 429 q 244 375 310 429 q 178 218 178 321 q 232 76 178 118 q 363 34 287 34 q 567 154 505 34 q 630 382 630 276 l 630 429 l 461 429 m 1212 433 l 1212 0 l 1150 0 l 1150 206 q 1011 13 1097 55 q 875 -20 942 -20 q 697 40 762 -20 l 693 44 l 693 0 l 632 0 l 632 206 q 493 13 579 55 q 357 -20 424 -20 q 179 40 244 -20 q 114 219 114 101 q 198 408 114 338 q 476 480 284 480 l 631 480 l 631 492 q 573 658 631 592 q 384 723 516 723 q 251 698 319 723 q 139 635 208 683 l 139 702 q 251 755 199 740 q 397 778 327 778 q 618 696 531 778 q 657 643 641 675 l 657 702 q 769 755 717 740 q 915 778 845 778 q 1136 696 1049 778 q 1212 433 1212 626 m 979 429 q 762 375 828 429 q 696 218 696 321 q 750 76 696 118 q 880 34 805 34 q 1085 154 1023 34 q 1148 382 1148 276 l 1148 429 l 979 429 m 659 637 q 694 433 694 563 l 694 386 q 717 408 704 398 q 994 480 802 480 l 1148 480 l 1148 492 q 1091 658 1148 592 q 902 723 1034 723 q 769 698 837 723 q 659 637 726 683 "},"e":{"x_min":110,"x_max":749,"ha":854,"o":"m 749 411 l 749 372 l 173 372 q 244 115 173 188 q 477 34 322 34 q 585 51 518 34 q 720 104 653 69 l 720 38 q 582 -4 652 10 q 470 -20 511 -20 q 206 75 295 -20 q 110 371 110 176 q 198 674 110 574 q 448 778 288 778 q 673 679 597 778 q 749 411 749 576 m 686 425 q 614 658 686 584 q 450 723 553 723 q 260 655 337 723 q 175 425 189 592 l 686 425 "},"Ἱ":{"x_min":25,"x_max":349,"ha":520,"o":"m 25 950 q 25 1120 25 950 l 148 1120 l 148 990 l 91 990 l 91 949 q 150 883 91 883 l 150 829 q 25 950 25 829 m 278 1013 l 349 1013 l 349 0 l 278 0 l 278 1013 "},"ὗ":{"x_min":134,"x_max":692,"ha":804,"o":"m 361 1221 l 322 1258 q 296 1278 313 1267 q 276 1285 285 1285 q 238 1260 250 1285 q 226 1180 226 1235 l 161 1180 q 190 1299 161 1257 q 272 1342 220 1342 q 319 1332 298 1342 q 366 1300 345 1321 l 405 1263 q 431 1243 414 1254 q 451 1237 442 1237 q 489 1261 477 1237 q 502 1342 502 1286 l 564 1342 q 535 1225 564 1270 q 455 1180 506 1180 q 407 1189 429 1180 q 361 1221 382 1200 m 302 949 q 302 1120 302 949 l 425 1120 l 425 990 l 368 990 l 368 949 q 427 882 368 882 l 427 828 q 302 949 302 828 m 196 759 l 196 270 q 239 95 196 148 q 376 51 275 51 q 577 192 506 51 q 626 434 626 289 q 608 590 626 507 q 515 759 591 670 l 594 759 q 665 615 638 698 q 692 432 692 537 q 612 142 692 280 q 358 -1 529 -1 q 192 64 241 -1 q 134 274 134 144 l 134 759 l 196 759 "},"ļ":{"x_min":113.609375,"x_max":250.578125,"ha":386,"o":"m 178 -110 l 250 -110 l 157 -327 l 113 -327 l 178 -110 m 157 1055 l 219 1055 l 219 0 l 157 0 l 157 1055 "},"Ṃ":{"x_min":223,"x_max":975,"ha":1198,"o":"m 223 1013 l 317 1013 l 598 262 l 881 1013 l 975 1013 l 975 0 l 906 0 l 906 889 l 645 195 l 551 195 l 292 889 l 292 0 l 223 0 l 223 1013 m 568 -167 l 630 -167 l 630 -256 l 568 -256 l 568 -167 "},"Ѓ":{"x_min":170,"x_max":766.96875,"ha":774,"o":"m 170 0 l 170 1013 l 766 1013 l 766 957 l 238 957 l 238 0 l 170 0 m 524 1288 l 602 1288 l 447 1109 l 391 1109 l 524 1288 "},"∷":{"x_min":18,"x_max":612,"ha":883,"o":"m 18 253 l 89 253 l 89 168 l 18 168 l 18 253 m 18 780 l 89 780 l 89 695 l 18 695 l 18 780 m 541 780 l 612 780 l 612 695 l 541 695 l 541 780 m 541 253 l 612 253 l 612 168 l 541 168 l 541 253 "},"ò":{"x_min":110,"x_max":739.390625,"ha":850,"o":"m 609 629 q 426 723 542 723 q 242 630 310 723 q 175 380 175 537 q 242 126 175 219 q 426 34 309 34 q 609 126 542 34 q 677 380 677 220 q 609 629 677 535 m 425 778 q 654 669 570 778 q 739 379 739 560 q 654 85 739 193 q 425 -23 570 -23 q 194 84 278 -23 q 110 379 110 192 q 194 670 110 562 q 425 778 279 778 m 301 1111 l 493 857 l 437 857 l 216 1111 l 301 1111 "},"ﬄ":{"x_min":63,"x_max":1178.390625,"ha":1343,"o":"m 484 1055 l 484 1002 l 395 1002 q 289 966 326 1002 q 245 826 245 922 l 245 760 l 649 760 l 649 812 q 706 996 649 937 q 863 1055 763 1055 l 1178 1055 l 1178 0 l 1116 0 l 1116 1003 l 862 1003 q 756 967 793 1003 q 712 827 712 922 l 712 760 l 917 760 l 917 707 l 712 707 l 712 0 l 649 0 l 649 707 l 245 707 l 245 0 l 182 0 l 182 707 l 63 707 l 63 760 l 182 760 l 182 812 q 239 996 182 939 q 397 1055 296 1055 l 484 1055 "},"^":{"x_min":174.296875,"x_max":990.125,"ha":1164,"o":"m 621 1013 l 990 635 l 899 635 l 581 927 l 265 635 l 174 635 l 542 1013 l 621 1013 "},"ℎ":{"x_min":55.296875,"x_max":729.390625,"ha":881,"o":"m 717 458 l 629 0 l 566 0 l 654 454 q 667 565 667 517 q 645 662 667 627 q 507 723 608 723 q 311 655 392 723 q 201 429 231 587 l 117 0 l 55 0 l 260 1055 l 322 1055 l 237 619 q 335 723 270 677 q 533 778 412 778 q 697 697 645 778 q 729 565 729 646 q 717 458 729 517 "},"Ӑ":{"x_min":41.328125,"x_max":904.203125,"ha":950,"o":"m 278 1314 l 328 1314 q 376 1212 337 1246 q 487 1178 416 1178 q 595 1211 556 1178 q 645 1314 634 1244 l 696 1314 q 641 1168 696 1217 q 487 1120 587 1120 q 332 1168 386 1120 q 278 1314 278 1217 m 471 943 l 254 374 l 685 374 l 471 943 m 427 1012 l 516 1012 l 904 0 l 826 0 l 706 318 l 233 318 l 113 0 l 41 0 l 427 1012 "},"к":{"x_min":157,"x_max":736.140625,"ha":824,"o":"m 157 0 l 157 760 l 219 760 l 219 352 l 620 760 l 709 760 l 413 460 l 736 0 l 660 0 l 368 414 l 219 263 l 219 0 l 157 0 "},"᾿":{"x_min":278,"x_max":404,"ha":694,"o":"m 404 950 q 278 829 404 829 l 278 883 q 337 949 337 883 l 337 990 l 280 990 l 280 1120 l 404 1120 l 404 950 "},"ǘ":{"x_min":157,"x_max":731,"ha":880,"o":"m 524 1388 l 611 1388 l 390 1133 l 334 1133 l 524 1388 m 157 301 l 157 760 l 219 760 l 219 305 q 266 97 219 157 q 406 36 314 36 q 591 102 514 36 q 668 330 668 167 l 668 760 l 731 760 l 731 0 l 668 0 l 668 142 q 581 36 635 73 q 403 -18 501 -18 q 224 58 291 -18 q 157 301 157 134 m 494 1053 l 558 1053 l 558 972 l 494 972 l 494 1053 m 304 1053 l 366 1053 l 366 972 l 304 972 l 304 1053 "},"ṉ":{"x_min":157,"x_max":731,"ha":880,"o":"m 239 -117 l 645 -117 l 645 -177 l 239 -177 l 239 -117 m 731 458 l 731 0 l 668 0 l 668 454 q 621 662 668 602 q 481 723 573 723 q 296 657 373 723 q 219 429 219 592 l 219 0 l 157 0 l 157 760 l 219 760 l 219 617 q 306 723 252 686 q 484 778 386 778 q 663 701 596 778 q 731 458 731 625 "},"ˆ":{"x_min":153.265625,"x_max":542.53125,"ha":694,"o":"m 319 1111 l 377 1111 l 542 856 l 488 856 l 348 1045 l 207 856 l 153 856 l 319 1111 "},"ū":{"x_min":157,"x_max":731,"ha":880,"o":"m 233 1035 l 639 1035 l 639 975 l 233 975 l 233 1035 m 157 301 l 157 760 l 219 760 l 219 305 q 266 97 219 157 q 406 36 314 36 q 591 102 514 36 q 668 330 668 167 l 668 760 l 731 760 l 731 0 l 668 0 l 668 142 q 581 36 635 73 q 404 -18 501 -18 q 224 58 291 -18 q 157 301 157 134 "},"ⅵ":{"x_min":88.609375,"x_max":959.390625,"ha":1127,"o":"m 88 760 l 153 760 l 411 68 l 668 760 l 734 760 l 451 0 l 371 0 l 88 760 m 897 760 l 959 760 l 959 0 l 897 0 l 897 760 m 897 1055 l 959 1055 l 959 970 l 897 970 l 897 1055 "},"ꙗ":{"x_min":156,"x_max":974,"ha":1131,"o":"m 974 433 l 974 0 l 912 0 l 912 206 q 773 13 859 55 q 637 -20 704 -20 q 459 40 524 -20 q 394 219 394 101 q 429 353 394 296 l 218 353 l 218 0 l 156 0 l 156 760 l 218 760 l 218 409 l 479 409 q 756 480 564 480 l 910 480 l 910 492 q 853 658 910 592 q 664 723 796 723 q 531 698 599 723 q 419 635 488 683 l 419 702 q 531 755 479 740 q 677 778 607 778 q 898 696 811 778 q 974 433 974 626 m 741 429 q 524 375 590 429 q 458 218 458 321 q 512 76 458 118 q 642 34 567 34 q 847 154 785 34 q 910 382 910 276 l 910 429 l 741 429 "},"℧":{"x_min":79,"x_max":982,"ha":1061,"o":"m 961 461 q 841 115 961 250 q 530 -20 721 -20 q 220 115 340 -20 q 100 461 100 250 q 161 729 100 613 q 362 957 222 845 l 79 957 l 79 1013 l 472 1013 l 472 959 q 251 752 330 883 q 172 463 172 621 q 270 151 172 268 q 530 34 369 34 q 791 151 692 34 q 890 463 890 270 q 810 752 890 618 q 585 959 733 883 l 585 1013 l 982 1013 l 982 957 l 694 957 q 900 729 836 850 q 961 461 961 613 "},"č":{"x_min":95,"x_max":678,"ha":764,"o":"m 678 723 l 678 656 q 585 703 621 691 q 464 723 521 723 q 228 638 299 723 q 157 379 157 554 q 228 118 157 202 q 464 34 299 34 q 571 48 518 34 q 678 92 625 63 l 678 29 q 570 -7 625 4 q 458 -20 513 -20 q 193 70 291 -20 q 95 379 95 161 q 193 687 95 596 q 458 778 291 778 q 574 762 513 778 q 678 723 635 747 m 469 856 l 411 856 l 246 1111 l 299 1111 l 440 921 l 581 1111 l 635 1111 l 469 856 "},"’":{"x_min":158.875,"x_max":255,"ha":442,"o":"m 186 1012 l 255 1012 l 255 909 l 201 693 l 158 693 l 186 909 l 186 1012 "},"Ν":{"x_min":168,"x_max":827,"ha":1039,"o":"m 168 1013 l 268 1013 l 759 86 l 759 1013 l 827 1013 l 827 0 l 730 0 l 237 932 l 237 0 l 168 0 l 168 1013 "},"Q":{"x_min":113,"x_max":980,"ha":1093,"o":"m 811 849 q 547 976 713 976 q 282 849 381 976 q 185 504 185 723 q 282 160 185 286 q 547 34 381 34 q 811 160 713 34 q 908 504 908 286 q 811 849 908 723 m 707 7 l 879 -178 l 794 -178 l 640 -12 q 593 -19 611 -19 q 547 -19 570 -19 q 231 124 349 -19 q 113 505 113 266 q 231 888 113 745 q 547 1031 349 1031 q 861 888 743 1031 q 980 505 980 745 q 914 203 980 333 q 707 7 843 62 "},"ᾅ":{"x_min":111,"x_max":827,"ha":915,"o":"m 465 -289 l 424 -289 q 341 -164 341 -289 l 341 -62 l 392 -62 l 392 -173 q 444 -244 392 -244 l 465 -244 l 465 -289 m 614 1111 l 700 1111 l 480 856 l 424 856 l 614 1111 m 230 950 q 230 1120 230 950 l 353 1120 l 353 990 l 296 990 l 296 949 q 355 883 296 883 l 355 829 q 230 950 230 829 m 595 353 l 561 531 q 387 724 524 724 q 233 639 288 724 q 173 381 173 543 q 232 120 173 203 q 386 34 291 34 q 548 204 493 34 l 595 353 m 392 777 q 637 475 602 777 l 732 760 l 797 760 l 658 348 l 686 199 q 728 77 703 107 q 785 54 748 54 l 827 54 l 827 0 l 774 0 q 667 55 707 0 q 616 225 647 82 q 513 35 590 116 q 392 -16 465 -16 q 182 85 250 -16 q 111 379 111 191 q 201 687 111 565 q 392 777 268 777 "},"ꜛ":{"x_min":80.390625,"x_max":432.625,"ha":513,"o":"m 235 453 l 235 956 l 110 846 l 80 872 l 247 1022 l 265 1022 l 432 872 l 402 846 l 278 956 l 278 453 l 235 453 "},"œ":{"x_min":110,"x_max":1316,"ha":1420,"o":"m 1253 425 q 1181 657 1253 583 q 1017 723 1118 723 q 827 655 904 723 q 742 425 756 592 l 1253 425 m 1316 411 l 1316 372 l 740 372 q 811 115 740 189 q 1044 34 889 34 q 1152 51 1084 34 q 1287 104 1220 69 l 1287 39 q 1149 -4 1219 10 q 1037 -19 1078 -19 q 773 76 863 -19 q 707 181 731 119 q 654 85 687 127 q 425 -23 569 -23 q 194 84 278 -23 q 110 379 110 192 q 194 670 110 562 q 425 778 279 778 q 654 669 570 778 q 707 574 686 627 q 765 674 729 632 q 1015 779 855 779 q 1240 679 1166 779 q 1316 411 1316 580 m 425 723 q 242 630 310 723 q 175 380 175 537 q 242 126 175 219 q 425 34 309 34 q 608 126 541 34 q 676 376 676 219 q 676 380 676 378 q 608 629 676 535 q 425 723 541 723 "},"Ộ":{"x_min":113,"x_max":980,"ha":1093,"o":"m 516 -167 l 578 -167 l 578 -256 l 516 -256 l 516 -167 m 811 851 q 547 978 713 978 q 282 851 381 978 q 185 505 185 724 q 282 160 185 287 q 547 34 381 34 q 811 160 713 34 q 908 505 908 287 q 811 851 908 724 m 547 1031 q 861 888 743 1031 q 980 505 980 745 q 861 123 980 265 q 547 -20 743 -20 q 231 122 349 -20 q 113 505 113 264 q 231 888 113 745 q 547 1031 349 1031 m 518 1289 l 575 1289 l 741 1109 l 687 1109 l 547 1223 l 406 1109 l 351 1109 l 518 1289 "},"ṩ":{"x_min":104,"x_max":621,"ha":723,"o":"m 343 1005 l 406 1005 l 406 916 l 343 916 l 343 1005 m 586 737 l 586 669 q 504 709 520 705 q 386 722 456 722 q 218 680 279 722 q 171 559 171 645 q 215 469 171 502 q 349 415 262 434 l 392 405 q 555 338 499 382 q 621 209 621 289 q 559 40 621 101 q 340 -20 491 -20 q 213 -8 256 -20 q 104 27 161 6 l 104 105 q 210 51 186 58 q 343 34 277 34 q 505 79 453 34 q 558 200 558 125 q 523 291 558 262 q 361 357 472 331 l 318 367 q 172 430 222 390 q 109 554 109 481 q 184 725 109 673 q 371 778 260 778 q 501 767 465 778 q 586 737 545 755 m 329 -167 l 392 -167 l 392 -256 l 329 -256 l 329 -167 "},"Ր":{"x_min":155,"x_max":861,"ha":1016,"o":"m 861 594 l 793 594 l 793 615 q 725 892 793 808 q 507 977 658 977 q 290 892 357 977 q 223 615 223 808 l 223 0 l 155 0 l 155 632 q 244 931 155 830 q 507 1033 333 1033 q 771 931 682 1033 q 861 632 861 830 l 861 594 "},"ӗ":{"x_min":110,"x_max":749,"ha":854,"o":"m 240 1091 l 290 1091 q 338 988 299 1022 q 449 954 378 954 q 557 987 518 954 q 607 1091 596 1021 l 658 1091 q 603 944 658 993 q 448 896 549 896 q 294 944 348 896 q 240 1091 240 993 m 749 411 l 749 372 l 173 372 q 244 115 173 188 q 478 34 322 34 q 586 51 518 34 q 720 104 653 69 l 720 38 q 582 -4 652 10 q 470 -20 511 -20 q 206 75 295 -20 q 110 371 110 176 q 198 674 110 574 q 448 778 288 778 q 674 679 598 778 q 749 411 749 576 m 686 425 q 614 658 686 584 q 450 723 554 723 q 260 655 337 723 q 175 425 189 592 l 686 425 "},"⅋":{"x_min":118.953125,"x_max":996,"ha":1082,"o":"m 764 430 q 889 579 838 493 q 927 729 927 643 q 861 909 927 848 q 651 977 789 977 q 520 940 574 977 q 383 824 425 884 l 764 430 m 716 392 l 343 775 q 261 649 319 746 q 220 468 220 579 l 150 468 q 184 634 161 571 q 297 821 216 726 l 118 1011 l 205 1011 l 339 870 q 483 987 416 953 q 656 1031 571 1031 q 918 936 838 1031 q 996 735 996 843 q 944 541 996 628 q 808 385 908 481 q 859 311 833 357 q 884 223 884 268 q 821 41 884 101 q 637 -20 756 -20 q 528 1 581 -20 q 410 56 426 44 l 410 123 q 530 60 475 84 q 631 36 588 36 q 747 63 699 36 q 815 222 815 101 q 795 292 815 257 q 716 392 766 342 "},"Ὲ":{"x_min":20.40625,"x_max":993.40625,"ha":1118,"o":"m 409 1013 l 981 1013 l 981 957 l 478 957 l 478 567 l 960 567 l 960 513 l 478 513 l 478 54 l 993 54 l 993 0 l 409 0 l 409 1013 m 105 1111 l 297 857 l 241 857 l 20 1111 l 105 1111 "},"ꞌ":{"x_min":157,"x_max":222,"ha":382,"o":"m 222 1012 l 222 636 l 157 636 l 157 1012 l 222 1012 "},"Ɵ":{"x_min":113,"x_max":980,"ha":1093,"o":"m 547 1031 q 861 888 743 1031 q 980 505 980 745 q 861 123 980 265 q 547 -20 743 -20 q 231 122 349 -20 q 113 505 113 264 q 231 888 113 745 q 547 1031 349 1031 m 811 851 q 547 978 713 978 q 282 851 381 978 q 185 505 185 724 q 185 501 185 503 l 908 501 l 908 505 q 811 851 908 724 m 899 445 l 193 445 q 277 160 193 269 q 546 34 377 34 q 815 160 715 34 q 899 445 899 269 "},"ո":{"x_min":157,"x_max":731,"ha":880,"o":"m 731 458 l 731 0 l 668 0 l 668 454 q 621 662 668 602 q 481 723 573 723 q 296 657 373 723 q 219 429 219 592 l 219 0 l 157 0 l 157 760 l 219 760 l 219 617 q 306 723 252 686 q 484 778 386 778 q 663 701 596 778 q 731 458 731 625 "},"Ѥ":{"x_min":168,"x_max":1235.234375,"ha":1309,"o":"m 1235 928 l 1235 850 q 1087 943 1166 912 q 918 975 1007 975 q 623 854 726 975 q 535 566 535 749 l 984 566 l 984 513 l 527 513 q 527 504 527 508 q 628 155 527 277 q 921 34 730 34 q 1088 65 1009 34 q 1235 160 1166 97 l 1235 78 q 1082 4 1164 29 q 913 -20 1002 -20 q 578 120 700 -20 q 456 504 456 261 q 456 513 456 508 l 239 513 l 239 0 l 168 0 l 168 1013 l 239 1013 l 239 566 l 464 566 q 571 889 464 766 q 911 1031 696 1031 q 1084 1005 1003 1031 q 1235 928 1164 979 "},"ș":{"x_min":104,"x_max":621,"ha":723,"o":"m 361 -116 l 433 -116 l 339 -334 l 296 -334 l 361 -116 m 586 737 l 586 669 q 504 709 520 705 q 386 722 456 722 q 218 680 279 722 q 171 559 171 645 q 215 469 171 502 q 349 415 262 434 l 391 405 q 555 338 499 382 q 621 209 621 289 q 559 40 621 101 q 340 -20 491 -20 q 213 -8 256 -20 q 104 27 161 6 l 104 105 q 210 51 186 58 q 343 34 277 34 q 505 79 453 34 q 558 200 558 125 q 523 291 558 262 q 361 357 472 331 l 317 367 q 172 430 222 390 q 109 554 109 481 q 184 725 109 673 q 371 778 260 778 q 501 767 465 778 q 586 737 545 755 "},"ἱ":{"x_min":119,"x_max":377,"ha":470,"o":"m 119 950 q 119 1120 119 950 l 242 1120 l 242 990 l 185 990 l 185 949 q 244 883 185 883 l 244 829 q 119 950 119 829 m 220 760 l 220 190 q 236 83 220 111 q 314 52 254 52 l 377 52 l 377 0 l 303 0 q 189 46 219 0 q 159 192 159 92 l 159 760 l 220 760 "},"Ȫ":{"x_min":113,"x_max":980,"ha":1093,"o":"m 811 851 q 547 978 713 978 q 282 851 381 978 q 185 505 185 724 q 282 160 185 287 q 547 34 381 34 q 811 160 713 34 q 908 505 908 287 q 811 851 908 724 m 547 1031 q 861 888 743 1031 q 980 505 980 745 q 861 123 980 265 q 547 -20 743 -20 q 231 122 349 -20 q 113 505 113 264 q 231 888 113 745 q 547 1031 349 1031 m 610 1243 l 672 1243 l 672 1161 l 610 1161 l 610 1243 m 419 1243 l 483 1243 l 483 1161 l 419 1161 l 419 1243 m 342 1426 l 748 1426 l 748 1366 l 342 1366 l 342 1426 "},"ǎ":{"x_min":114,"x_max":694,"ha":851,"o":"m 461 429 q 244 375 310 429 q 178 218 178 321 q 232 76 178 118 q 363 34 287 34 q 567 154 505 34 q 630 382 630 275 l 630 429 l 461 429 m 694 433 l 694 0 l 632 0 l 632 206 q 493 13 579 55 q 357 -20 425 -20 q 179 40 244 -20 q 114 219 114 101 q 198 408 114 338 q 476 480 283 480 l 630 480 l 630 492 q 573 658 630 593 q 384 723 516 723 q 251 698 319 723 q 139 635 208 683 l 139 702 q 251 755 199 740 q 397 778 327 778 q 618 696 531 778 q 694 433 694 626 m 468 856 l 410 856 l 245 1111 l 298 1111 l 438 921 l 579 1111 l 634 1111 l 468 856 "},"ɘ":{"x_min":110,"x_max":749,"ha":854,"o":"m 110 411 q 185 679 110 576 q 410 778 261 778 q 660 674 570 778 q 749 371 749 574 q 652 75 749 176 q 388 -20 563 -20 q 276 -4 347 -20 q 139 38 206 10 l 139 104 q 273 51 205 69 q 381 34 340 34 q 614 115 536 34 q 686 372 686 188 l 110 372 l 110 411 m 173 425 l 683 425 q 598 655 669 592 q 408 723 522 723 q 244 658 305 723 q 173 425 173 584 "},"ạ":{"x_min":114,"x_max":694,"ha":851,"o":"m 461 429 q 244 375 310 429 q 178 218 178 321 q 232 76 178 118 q 363 34 287 34 q 567 154 505 34 q 630 382 630 275 l 630 429 l 461 429 m 694 433 l 694 0 l 632 0 l 632 206 q 493 13 579 55 q 357 -20 425 -20 q 179 40 244 -20 q 114 219 114 101 q 198 408 114 338 q 476 480 283 480 l 630 480 l 630 492 q 573 658 630 593 q 384 723 516 723 q 251 698 319 723 q 139 635 208 683 l 139 702 q 251 755 199 740 q 397 778 327 778 q 618 696 531 778 q 694 433 694 626 m 338 -167 l 401 -167 l 401 -256 l 338 -256 l 338 -167 "},"Ǖ":{"x_min":155,"x_max":861,"ha":1016,"o":"m 155 1012 l 223 1012 l 223 397 q 290 120 223 204 q 508 36 357 36 q 725 120 658 36 q 793 397 793 204 l 793 1012 l 861 1012 l 861 380 q 771 81 861 182 q 508 -20 682 -20 q 244 81 333 -20 q 155 380 155 182 l 155 1012 m 572 1243 l 634 1243 l 634 1161 l 572 1161 l 572 1243 m 381 1243 l 445 1243 l 445 1161 l 381 1161 l 381 1243 m 304 1426 l 710 1426 l 710 1366 l 304 1366 l 304 1426 "},"ꙕ":{"x_min":109,"x_max":972.390625,"ha":1128,"o":"m 673 380 q 605 633 673 540 q 421 726 537 726 q 238 632 306 726 q 171 380 171 538 q 238 130 171 223 q 422 37 306 37 q 605 129 538 37 q 673 380 673 222 m 972 0 l 910 0 l 910 353 l 734 353 q 652 83 734 187 q 425 -20 571 -20 q 194 88 279 -20 q 109 380 109 197 q 193 672 109 563 q 424 781 278 781 q 652 677 570 781 q 734 409 734 573 l 910 409 l 910 760 l 972 760 l 972 0 "},"գ":{"x_min":159,"x_max":991.40625,"ha":1058,"o":"m 303 643 q 225 379 225 563 q 303 114 225 194 q 468 35 381 35 q 632 114 553 35 q 710 379 710 193 q 632 643 710 564 q 468 723 553 723 q 303 643 381 723 m 772 760 l 772 53 l 991 53 l 991 0 l 771 0 l 771 -289 l 710 -289 l 710 172 q 617 36 667 73 q 473 -19 541 -19 q 248 89 338 -19 q 159 379 159 199 q 248 668 159 558 q 473 778 338 778 q 617 721 541 778 q 710 586 667 685 l 710 760 l 772 760 "},"д":{"x_min":101,"x_max":843,"ha":941,"o":"m 254 54 l 686 54 l 686 707 l 360 707 l 360 565 q 282 92 360 258 q 254 54 269 65 m 101 -191 l 101 52 l 159 52 q 238 145 214 81 q 297 616 297 303 l 297 760 l 748 760 l 748 52 l 843 52 l 843 -192 l 790 -192 l 790 0 l 154 0 l 154 -191 l 101 -191 "},"ӥ":{"x_min":157,"x_max":757,"ha":914,"o":"m 505 1053 l 569 1053 l 569 972 l 505 972 l 505 1053 m 315 1053 l 377 1053 l 377 972 l 315 972 l 315 1053 m 157 0 l 157 760 l 219 760 l 219 67 l 664 760 l 757 760 l 757 0 l 694 0 l 694 693 l 247 0 l 157 0 "},"¯":{"x_min":144,"x_max":550,"ha":694,"o":"m 144 1035 l 550 1035 l 550 975 l 144 975 l 144 1035 "},"ƕ":{"x_min":157,"x_max":1199,"ha":1340,"o":"m 887 0 l 813 0 q 698 46 727 0 q 668 193 668 94 l 668 454 q 619 662 668 601 q 469 723 569 723 q 286 655 353 723 q 219 429 219 587 l 219 0 l 157 0 l 157 1055 l 219 1055 l 219 619 q 296 723 241 677 q 484 778 363 778 q 663 697 596 778 q 731 458 731 616 l 731 190 q 745 83 731 108 q 824 52 764 52 l 886 52 q 1063 132 1004 52 q 1132 347 1132 225 q 1082 550 1132 454 q 984 668 1044 623 l 1062 668 q 1149 551 1117 612 q 1199 345 1199 459 q 1112 99 1199 216 q 887 0 1039 0 "},"ṛ":{"x_min":159,"x_max":569.921875,"ha":571,"o":"m 569 706 q 529 719 555 713 q 470 723 506 723 q 279 637 355 723 q 220 400 220 568 l 220 0 l 159 0 l 159 760 l 220 760 l 220 617 q 305 720 250 678 q 484 778 381 778 q 530 776 510 778 q 569 771 550 776 l 569 706 m 164 -167 l 227 -167 l 227 -256 l 164 -256 l 164 -167 "},"Ḙ":{"x_min":169,"x_max":753.421875,"ha":878,"o":"m 438 -79 l 495 -79 l 661 -333 l 607 -333 l 467 -144 l 326 -333 l 271 -333 l 438 -79 m 169 1013 l 741 1013 l 741 957 l 238 957 l 238 567 l 720 567 l 720 513 l 238 513 l 238 54 l 753 54 l 753 0 l 169 0 l 169 1013 "},"З":{"x_min":106,"x_max":786,"ha":884,"o":"m 106 62 l 106 136 q 231 61 163 86 q 417 36 299 36 q 640 102 563 36 q 718 294 718 168 q 644 455 718 397 q 439 513 570 513 l 281 513 l 281 570 l 439 570 q 621 617 556 570 q 687 754 687 664 q 627 916 687 859 q 417 974 567 974 q 278 954 342 974 q 137 893 214 934 l 137 963 q 279 1011 204 992 q 431 1031 353 1031 q 681 960 606 1031 q 756 768 756 890 q 717 627 756 687 q 604 545 678 567 q 739 459 692 526 q 786 293 786 391 q 699 62 786 144 q 431 -20 613 -20 q 245 0 312 -20 q 106 62 177 20 "},"ˏ":{"x_min":251.59375,"x_max":528.296875,"ha":671,"o":"m 441 -73 l 528 -73 l 307 -328 l 251 -328 l 441 -73 "},"ẻ":{"x_min":110,"x_max":749,"ha":854,"o":"m 441 1176 q 571 1054 571 1176 q 558 986 571 1024 q 477 918 544 940 l 477 858 l 417 858 l 417 931 q 494 973 470 942 q 509 1041 509 992 q 426 1128 509 1128 q 321 1101 365 1128 l 321 1150 q 441 1176 367 1176 m 749 411 l 749 372 l 173 372 q 244 115 173 188 q 478 34 322 34 q 585 51 518 34 q 720 104 653 69 l 720 38 q 582 -4 652 10 q 470 -20 511 -20 q 206 75 295 -20 q 110 371 110 176 q 198 674 110 574 q 448 778 288 778 q 673 679 597 778 q 749 411 749 576 m 686 425 q 614 658 686 584 q 450 723 554 723 q 260 655 337 723 q 175 425 190 592 l 686 425 "},"ữ":{"x_min":159,"x_max":971,"ha":1082,"o":"m 710 599 l 710 657 q 789 609 756 625 q 845 593 822 593 q 898 615 880 593 q 917 680 917 637 q 911 742 917 715 q 892 794 905 769 l 955 794 q 966 738 962 766 q 971 681 971 711 q 941 567 971 606 q 852 530 910 530 q 785 546 820 530 q 710 599 751 564 m 159 301 l 159 760 l 221 760 l 221 305 q 268 97 221 157 q 408 36 316 36 q 593 101 516 36 q 670 330 670 167 l 670 760 l 733 760 l 733 0 l 670 0 l 670 142 q 582 36 637 73 q 405 -18 502 -18 q 226 58 293 -18 q 159 301 159 134 m 431 944 l 392 981 q 366 1001 383 990 q 346 1008 355 1008 q 308 983 320 1008 q 296 903 296 958 l 231 903 q 260 1022 231 980 q 342 1065 290 1065 q 390 1055 368 1065 q 437 1023 415 1044 l 475 986 q 502 966 485 977 q 522 960 513 960 q 560 984 548 960 q 572 1065 572 1009 l 635 1065 q 605 948 635 993 q 525 903 577 903 q 478 912 500 903 q 431 944 453 923 "},"ᴐ":{"x_min":95,"x_max":677.390625,"ha":764,"o":"m 579 687 q 677 379 677 596 q 579 70 677 161 q 313 -20 480 -20 q 202 -7 259 -20 q 95 29 147 4 l 95 92 q 201 48 147 63 q 308 34 254 34 q 543 118 472 34 q 615 379 615 202 q 543 638 615 554 q 308 723 472 723 q 187 703 250 723 q 95 656 151 691 l 95 723 q 198 762 137 747 q 314 778 259 778 q 579 687 480 778 "},"":{"x_min":271,"x_max":677,"ha":950,"o":"m 271 1212 l 677 1212 l 677 1152 l 271 1152 l 271 1212 m 577 1450 l 655 1450 l 500 1271 l 444 1271 l 577 1450 "},"ḃ":{"x_min":159,"x_max":771,"ha":882,"o":"m 626 114 q 705 379 705 193 q 626 643 705 564 q 461 723 548 723 q 298 643 377 723 q 220 379 220 564 q 298 114 220 193 q 461 35 377 35 q 626 114 548 35 m 220 586 q 313 721 262 685 q 457 778 389 778 q 681 668 592 778 q 771 379 771 558 q 681 89 771 199 q 457 -19 592 -19 q 313 36 389 -19 q 220 172 262 73 l 220 0 l 159 0 l 159 1055 l 220 1055 l 220 586 m 164 1219 l 227 1219 l 227 1130 l 164 1130 l 164 1219 "},"ʐ":{"x_min":59.3125,"x_max":823,"ha":728,"o":"m 76 760 l 669 760 l 669 687 l 119 53 l 669 53 l 669 -13 q 706 -201 669 -166 q 823 -236 744 -236 l 823 -289 l 808 -289 q 653 -228 700 -289 q 606 -13 606 -168 l 606 0 l 59 0 l 59 69 l 607 706 l 76 706 l 76 760 "},"é":{"x_min":110,"x_max":749,"ha":854,"o":"m 749 411 l 749 372 l 173 372 q 244 115 173 188 q 477 34 322 34 q 585 51 518 34 q 720 104 653 69 l 720 38 q 582 -4 652 10 q 470 -20 511 -20 q 206 75 295 -20 q 110 371 110 176 q 198 674 110 574 q 448 778 288 778 q 673 679 597 778 q 749 411 749 576 m 686 425 q 614 658 686 584 q 450 723 553 723 q 260 655 337 723 q 175 425 189 592 l 686 425 m 535 1111 l 622 1111 l 401 856 l 345 856 l 535 1111 "},"Ş":{"x_min":123,"x_max":768,"ha":881,"o":"m 735 961 l 735 897 q 587 957 668 930 q 454 975 534 975 q 259 920 334 975 q 192 749 192 870 q 243 630 192 674 q 409 555 299 583 l 490 534 q 657 466 598 505 q 768 277 768 391 q 671 48 768 112 q 454 -20 565 -20 q 246 12 338 -20 q 126 75 189 35 l 126 142 q 258 70 220 86 q 416 35 343 35 q 622 90 540 35 q 700 271 700 142 q 652 391 700 347 q 474 480 583 454 l 393 500 q 226 566 295 524 q 123 744 123 631 q 207 960 123 884 q 446 1030 286 1030 q 591 1013 540 1030 q 735 961 720 972 m 486 0 q 539 -76 521 -41 q 556 -142 556 -110 q 518 -232 556 -201 q 404 -262 479 -262 q 347 -257 374 -262 q 291 -246 319 -253 l 291 -183 q 343 -202 316 -196 q 405 -208 370 -208 q 470 -189 448 -208 q 493 -136 493 -171 q 476 -80 493 -112 q 428 0 461 -47 l 486 0 "},"Ͳ":{"x_min":171,"x_max":1026,"ha":1197,"o":"m 171 1013 l 1026 1013 l 1026 483 l 958 483 l 958 957 l 633 957 l 633 0 l 564 0 l 564 957 l 239 957 l 239 483 l 171 483 l 171 1013 "},"ὂ":{"x_min":110,"x_max":739.390625,"ha":850,"o":"m 472 1111 l 663 857 l 607 857 l 386 1111 l 472 1111 m 301 950 q 175 829 301 829 l 175 883 q 234 949 234 883 l 234 990 l 177 990 l 177 1120 l 301 1120 l 301 950 m 609 629 q 426 723 542 723 q 242 630 310 723 q 175 380 175 537 q 242 126 175 219 q 426 34 309 34 q 609 126 542 34 q 677 380 677 220 q 609 629 677 535 m 425 778 q 654 669 570 778 q 739 379 739 560 q 654 85 739 193 q 425 -23 570 -23 q 194 84 278 -23 q 110 379 110 192 q 194 670 110 562 q 425 778 279 778 "},"Ủ":{"x_min":155,"x_max":861,"ha":1016,"o":"m 502 1429 q 632 1307 632 1429 q 619 1239 632 1277 q 538 1171 605 1193 l 538 1111 l 478 1111 l 478 1184 q 555 1226 531 1195 q 570 1294 570 1245 q 487 1381 570 1381 q 382 1354 426 1381 l 382 1403 q 502 1429 428 1429 m 155 1012 l 223 1012 l 223 397 q 290 120 223 204 q 508 36 357 36 q 725 120 658 36 q 793 397 793 204 l 793 1012 l 861 1012 l 861 380 q 771 81 861 182 q 508 -20 682 -20 q 244 81 333 -20 q 155 380 155 182 l 155 1012 "},"H":{"x_min":169,"x_max":873,"ha":1045,"o":"m 169 1013 l 238 1013 l 238 567 l 804 567 l 804 1013 l 873 1013 l 873 0 l 804 0 l 804 513 l 238 513 l 238 0 l 169 0 l 169 1013 "},"î":{"x_min":-0.65625,"x_max":388.609375,"ha":386,"o":"m 165 1111 l 223 1111 l 388 856 l 335 856 l 194 1045 l 53 856 l 0 856 l 165 1111 m 156 760 l 218 760 l 218 0 l 156 0 l 156 760 "},"ύ":{"x_min":134,"x_max":692,"ha":804,"o":"m 196 759 l 196 270 q 239 95 196 148 q 376 51 275 51 q 577 192 506 51 q 626 434 626 289 q 609 590 626 507 q 516 759 592 670 l 594 759 q 665 615 638 698 q 692 432 692 537 q 612 142 692 280 q 358 -1 529 -1 q 192 64 241 -1 q 134 274 134 144 l 134 759 l 196 759 m 465 1111 l 552 1111 l 330 856 l 275 856 l 465 1111 "},"ʪ":{"x_min":191,"x_max":773,"ha":890,"o":"m 736 737 l 736 668 q 654 709 670 705 q 536 723 601 723 q 368 679 429 723 q 321 559 321 645 q 365 469 321 501 q 499 415 412 434 l 542 405 q 706 338 649 381 q 773 209 773 286 q 709 40 773 101 q 491 -20 644 -20 q 363 -8 404 -20 q 253 27 311 6 l 253 0 l 191 0 l 191 1055 l 253 1055 l 253 105 q 360 51 336 58 q 493 34 427 34 q 656 79 603 34 q 709 200 709 125 q 673 291 709 262 q 511 357 623 331 l 468 367 q 322 430 372 390 q 259 554 259 481 q 335 725 259 673 q 521 778 411 778 q 651 767 616 778 q 736 737 695 755 "},"ǰ":{"x_min":-25,"x_max":389.875,"ha":386,"o":"m 162 760 l 224 760 l 224 -13 q 177 -228 224 -168 q 22 -289 130 -289 l -25 -289 l -25 -236 l 8 -236 q 123 -202 84 -236 q 162 -13 162 -168 l 162 760 m 223 856 l 166 856 l 0 1111 l 54 1111 l 194 921 l 335 1111 l 389 1111 l 223 856 "},"Ἕ":{"x_min":23,"x_max":1164.40625,"ha":1289,"o":"m 407 1111 l 494 1111 l 272 856 l 217 856 l 407 1111 m 23 950 q 23 1120 23 950 l 146 1120 l 146 990 l 89 990 l 89 949 q 148 883 89 883 l 148 829 q 23 950 23 829 m 580 1013 l 1152 1013 l 1152 957 l 649 957 l 649 567 l 1131 567 l 1131 513 l 649 513 l 649 54 l 1164 54 l 1164 0 l 580 0 l 580 1013 "},"ḧ":{"x_min":61,"x_max":731,"ha":880,"o":"m 731 458 l 731 0 l 668 0 l 668 454 q 619 662 668 600 q 469 723 569 723 q 287 655 354 723 q 220 429 220 587 l 220 0 l 157 0 l 157 1055 l 220 1055 l 220 619 q 297 723 241 677 q 484 778 363 778 q 663 697 596 778 q 731 458 731 615 m 251 1268 l 315 1268 l 315 1187 l 251 1187 l 251 1268 m 61 1268 l 123 1268 l 123 1187 l 61 1187 l 61 1268 "},"ɓ":{"x_min":159,"x_max":771,"ha":882,"o":"m 298 643 q 220 379 220 564 q 298 114 220 193 q 461 35 377 35 q 626 114 548 35 q 705 379 705 194 q 626 643 705 563 q 461 723 548 723 q 298 643 377 723 m 220 586 q 312 721 262 685 q 457 778 389 778 q 681 668 592 778 q 771 379 771 558 q 681 89 771 199 q 457 -19 592 -19 q 312 36 389 -19 q 220 172 262 73 l 220 0 l 159 0 l 159 779 q 205 994 159 934 q 360 1055 253 1055 l 407 1055 l 407 1002 l 373 1002 q 258 968 297 1002 q 220 779 220 934 l 220 586 "},"ᚎ":{"x_min":-13,"x_max":1623,"ha":1610,"o":"m -13 426 l 319 426 l 489 968 l 556 968 l 387 426 l 625 426 l 795 968 l 862 968 l 693 426 l 931 426 l 1100 968 l 1168 968 l 999 426 l 1237 426 l 1406 968 l 1473 968 l 1305 426 l 1623 426 l 1623 370 l 1287 370 l 1121 -173 l 1054 -173 l 1219 370 l 981 370 l 815 -173 l 748 -173 l 913 370 l 675 370 l 509 -173 l 442 -173 l 608 370 l 370 370 l 203 -173 l 136 -173 l 302 370 l -13 370 l -13 426 "},"ǫ":{"x_min":110,"x_max":739.390625,"ha":850,"o":"m 397 -11 l 455 -11 q 407 -91 422 -57 q 391 -146 391 -123 q 413 -200 391 -182 q 478 -219 435 -219 q 540 -213 513 -219 q 592 -194 567 -207 l 592 -257 q 536 -268 564 -264 q 479 -273 509 -273 q 365 -243 404 -273 q 328 -153 328 -212 q 344 -87 328 -121 q 397 -11 362 -52 m 609 629 q 426 723 542 723 q 242 630 310 723 q 175 380 175 537 q 242 126 175 218 q 426 33 309 33 q 609 126 542 33 q 677 380 677 220 q 609 629 677 535 m 425 778 q 654 669 570 778 q 739 379 739 560 q 654 85 739 193 q 425 -23 570 -23 q 194 84 278 -23 q 110 379 110 192 q 194 670 110 562 q 425 778 279 778 "},"̒":{"x_min":-291.609375,"x_max":-153.265625,"ha":0,"o":"m -219 679 l -291 679 l -196 895 l -153 895 l -219 679 "},"꜕":{"x_min":145,"x_max":517.140625,"ha":685,"o":"m 214 0 l 145 0 l 145 928 l 214 928 l 214 267 l 517 267 l 517 209 l 214 209 l 214 0 "},"Ṥ":{"x_min":123,"x_max":768,"ha":881,"o":"m 735 961 l 735 897 q 587 957 668 930 q 454 975 534 975 q 259 920 334 975 q 192 749 192 870 q 243 630 192 674 q 409 555 298 583 l 490 534 q 657 466 598 505 q 768 277 768 391 q 670 48 768 112 q 453 -20 565 -20 q 246 12 337 -20 q 126 76 188 35 l 126 142 q 258 70 220 86 q 416 36 343 36 q 622 90 540 36 q 700 271 700 142 q 652 391 700 347 q 474 480 583 454 l 392 500 q 226 566 295 524 q 123 744 123 631 q 207 960 123 884 q 446 1030 286 1030 q 591 1013 540 1030 q 735 961 720 972 m 253 1237 l 315 1237 l 315 1150 l 253 1150 l 253 1237 m 559 1288 l 636 1288 l 481 1109 l 426 1109 l 559 1288 "},"†":{"x_min":39,"x_max":656,"ha":695,"o":"m 313 1012 l 382 1012 l 382 723 l 656 723 l 656 667 l 382 667 l 382 -134 l 313 -134 l 313 667 l 39 667 l 39 723 l 313 723 l 313 1012 "},"°":{"x_min":161,"x_max":534,"ha":695,"o":"m 347 946 q 252 908 290 946 q 213 813 213 869 q 252 718 213 756 q 347 680 290 680 q 442 718 403 680 q 482 813 482 757 q 442 907 482 868 q 347 946 403 946 m 347 999 q 423 983 388 999 q 478 944 453 969 q 515 895 501 921 q 534 812 534 857 q 478 681 534 736 q 347 626 423 626 q 215 681 270 626 q 161 813 161 735 q 215 945 161 889 q 347 999 270 999 "},"Ξ":{"x_min":136,"x_max":761,"ha":878,"o":"m 207 566 l 689 566 l 689 513 l 207 513 l 207 566 m 136 1013 l 761 1013 l 761 960 l 136 960 l 136 1013 m 136 53 l 761 53 l 761 0 l 136 0 l 136 53 "},"ồ":{"x_min":65.25,"x_max":739.390625,"ha":850,"o":"m 142 1198 l 275 1019 l 219 1019 l 65 1198 l 142 1198 m 395 1037 l 453 1037 l 618 857 l 565 857 l 424 971 l 283 857 l 229 857 l 395 1037 m 609 629 q 426 723 542 723 q 242 630 310 723 q 175 380 175 537 q 242 126 175 219 q 426 34 309 34 q 609 126 542 34 q 677 380 677 220 q 609 629 677 535 m 425 778 q 654 669 570 778 q 739 379 739 560 q 654 85 739 193 q 425 -23 570 -23 q 194 84 278 -23 q 110 379 110 192 q 194 670 110 562 q 425 778 279 778 "},"※":{"x_min":170,"x_max":991,"ha":1164,"o":"m 940 797 l 631 486 l 940 175 l 893 126 l 582 438 l 270 126 l 223 175 l 533 486 l 223 797 l 270 847 l 582 535 l 893 847 l 940 797 m 170 486 l 239 486 l 239 401 l 170 401 l 170 486 m 549 88 l 618 88 l 618 3 l 549 3 l 549 88 m 922 486 l 991 486 l 991 401 l 922 401 l 922 486 m 549 920 l 618 920 l 618 835 l 549 835 l 549 920 "},"΄":{"x_min":251.59375,"x_max":528.296875,"ha":671,"o":"m 441 1111 l 528 1111 l 307 856 l 251 856 l 441 1111 "},"ŵ":{"x_min":88.15625,"x_max":1007.765625,"ha":1136,"o":"m 539 1116 l 597 1116 l 762 861 l 709 861 l 568 1050 l 427 861 l 373 861 l 539 1116 m 88 760 l 152 760 l 330 82 l 507 760 l 587 760 l 765 79 l 943 760 l 1007 760 l 809 0 l 722 0 l 547 666 l 373 0 l 287 0 l 88 760 "},"ǁ":{"x_min":171,"x_max":513,"ha":684,"o":"m 445 1013 l 513 1013 l 513 -289 l 445 -289 l 445 1013 m 171 1013 l 239 1013 l 239 -289 l 171 -289 l 171 1013 "},"Ḱ":{"x_min":240,"x_max":894.296875,"ha":911,"o":"m 240 1013 l 307 1013 l 307 576 l 770 1013 l 861 1013 l 357 538 l 894 0 l 805 0 l 307 500 l 307 0 l 240 0 l 240 1013 m 559 1289 l 636 1289 l 481 1110 l 426 1110 l 559 1289 "},"ᾚ":{"x_min":17,"x_max":1336,"ha":1508,"o":"m 1043 -289 l 1002 -289 q 919 -164 919 -289 l 919 -62 l 970 -62 l 970 -173 q 1022 -244 970 -244 l 1043 -244 l 1043 -289 m 314 1111 l 505 857 l 449 857 l 228 1111 l 314 1111 m 143 950 q 17 829 143 829 l 17 883 q 76 949 76 883 l 76 990 l 19 990 l 19 1120 l 143 1120 l 143 950 m 633 1013 l 702 1013 l 702 567 l 1267 567 l 1267 1013 l 1336 1013 l 1336 0 l 1267 0 l 1267 513 l 702 513 l 702 0 l 633 0 l 633 1013 "},"№":{"x_min":168,"x_max":1529,"ha":1617,"o":"m 1057 402 l 1524 402 l 1524 346 l 1057 346 l 1057 402 m 1115 957 q 1290 1031 1179 1031 q 1465 957 1401 1031 q 1529 754 1529 883 q 1465 553 1529 626 q 1290 480 1401 480 q 1115 553 1179 480 q 1051 754 1051 627 q 1115 957 1051 883 m 1290 977 q 1162 915 1210 977 q 1115 752 1115 855 q 1163 592 1115 652 q 1290 532 1211 532 q 1416 592 1370 532 q 1465 752 1465 652 q 1417 916 1465 856 q 1290 977 1370 977 m 168 1013 l 268 1013 l 759 86 l 759 1013 l 827 1013 l 827 0 l 730 0 l 237 932 l 237 0 l 168 0 l 168 1013 "},"⁐":{"x_min":-62,"x_max":1176,"ha":1116,"o":"m -62 1042 l -62 1103 q 252 1243 98 1197 q 557 1290 405 1290 q 862 1243 708 1290 q 1176 1103 1016 1197 l 1176 1042 q 866 1177 1020 1133 q 556 1222 713 1222 q 247 1177 400 1222 q -62 1042 93 1133 m 1176 -81 l 1176 -142 q 861 -282 1016 -236 q 557 -329 708 -329 q 251 -282 405 -329 q -62 -142 97 -236 l -62 -81 q 247 -216 93 -172 q 557 -261 400 -261 q 866 -216 713 -261 q 1176 -81 1020 -172 "},"ẏ":{"x_min":74.734375,"x_max":747.140625,"ha":822,"o":"m 385 1004 l 447 1004 l 447 915 l 385 915 l 385 1004 m 413 -70 q 326 -209 373 -171 q 202 -262 263 -262 l 110 -262 l 110 -209 l 189 -209 q 275 -177 238 -209 q 355 -55 324 -135 l 377 0 l 74 760 l 141 760 l 410 83 l 681 760 l 747 760 l 413 -70 "},"ƫ":{"x_min":69,"x_max":480,"ha":544,"o":"m 223 975 l 223 760 l 480 760 l 480 707 l 223 707 l 223 250 q 244 128 223 163 q 379 53 291 53 l 480 53 l 480 -13 q 433 -228 480 -168 q 277 -289 385 -289 l 230 -289 l 230 -236 l 263 -236 q 378 -202 339 -236 q 417 -13 417 -168 l 417 0 l 382 0 q 224 54 289 0 q 160 250 160 108 l 160 707 l 69 707 l 69 760 l 160 760 l 160 975 l 223 975 "},"ί":{"x_min":125.78125,"x_max":402.09375,"ha":538,"o":"m 315 1111 l 402 1111 l 181 856 l 125 856 l 315 1111 m 220 760 l 220 190 q 236 83 220 111 q 314 52 255 52 l 377 52 l 377 0 l 303 0 q 189 46 219 0 q 159 192 159 92 l 159 760 l 220 760 "},"ḵ":{"x_min":220,"x_max":759.53125,"ha":804,"o":"m 224 -117 l 630 -117 l 630 -177 l 224 -177 l 224 -117 m 220 1055 l 283 1055 l 283 414 l 661 760 l 746 760 l 353 401 l 759 0 l 678 0 l 283 389 l 283 0 l 220 0 l 220 1055 "},"ť":{"x_min":69,"x_max":484.078125,"ha":544,"o":"m 223 975 l 223 760 l 480 760 l 480 707 l 223 707 l 223 250 q 245 128 223 163 q 379 53 291 53 l 480 53 l 480 0 l 383 0 q 225 54 290 0 q 160 250 160 108 l 160 707 l 69 707 l 69 760 l 160 760 l 160 975 l 223 975 m 416 1131 l 484 1131 l 414 875 l 362 875 l 416 1131 "},"5":{"x_min":137,"x_max":729,"ha":884,"o":"m 177 1012 l 658 1012 l 658 957 l 246 957 l 246 617 q 305 634 275 628 q 393 640 335 640 q 638 554 548 640 q 729 324 729 469 q 636 70 729 161 q 373 -20 543 -20 q 258 -10 317 -20 q 137 18 200 0 l 137 87 q 246 49 189 62 q 366 37 303 37 q 581 114 501 37 q 662 324 662 191 q 584 514 662 444 q 371 585 505 585 q 289 570 343 585 q 177 525 234 555 l 177 1012 "},"ῃ":{"x_min":157,"x_max":731.390625,"ha":881,"o":"m 281 -289 l 240 -289 q 157 -164 157 -289 l 157 -62 l 208 -62 l 208 -173 q 260 -244 208 -244 l 281 -244 l 281 -289 m 731 458 l 731 -289 l 669 -289 l 669 454 q 621 662 669 602 q 481 723 574 723 q 297 657 373 723 q 220 429 220 592 l 220 0 l 157 0 l 157 760 l 220 760 l 220 617 q 307 723 253 686 q 484 778 387 778 q 664 701 597 778 q 731 458 731 625 "},"̆":{"x_min":-561,"x_max":-143,"ha":1,"o":"m -561 1091 l -510 1091 q -462 988 -501 1022 q -352 954 -422 954 q -243 987 -282 954 q -193 1091 -204 1021 l -143 1091 q -197 944 -143 993 q -352 896 -251 896 q -506 944 -452 896 q -561 1091 -561 993 "},"Ѕ":{"x_min":123,"x_max":768,"ha":881,"o":"m 735 961 l 735 897 q 587 957 668 930 q 454 975 534 975 q 259 920 334 975 q 192 749 192 870 q 243 630 192 674 q 409 555 298 583 l 490 534 q 657 466 598 505 q 768 277 768 391 q 671 48 768 112 q 453 -20 565 -20 q 246 12 337 -20 q 126 76 188 35 l 126 142 q 258 70 220 86 q 416 36 343 36 q 622 90 540 36 q 700 271 700 142 q 652 391 700 347 q 474 480 583 454 l 393 500 q 226 566 295 524 q 123 744 123 631 q 207 960 123 884 q 446 1030 286 1030 q 591 1013 540 1030 q 735 961 720 972 "},"꜉":{"x_min":145,"x_max":517,"ha":685,"o":"m 145 725 l 240 725 l 240 654 l 145 654 l 145 725 m 448 0 l 448 928 l 517 928 l 517 0 l 448 0 "},"Ẍ":{"x_min":81.296875,"x_max":873.78125,"ha":952,"o":"m 548 1268 l 612 1268 l 612 1187 l 548 1187 l 548 1268 m 358 1268 l 420 1268 l 420 1187 l 358 1187 l 358 1268 m 122 1013 l 199 1013 l 482 587 l 767 1013 l 846 1013 l 521 529 l 873 0 l 795 0 l 478 476 l 159 0 l 81 0 l 439 535 l 122 1013 "},"̧":{"x_min":-497.40625,"x_max":-233,"ha":0,"o":"m -302 0 q -249 -76 -267 -41 q -233 -142 -233 -110 q -270 -232 -233 -201 q -384 -262 -309 -262 q -441 -257 -414 -262 q -497 -246 -469 -253 l -497 -183 q -445 -202 -472 -196 q -383 -208 -418 -208 q -318 -189 -340 -208 q -296 -136 -296 -171 q -312 -80 -296 -113 q -360 0 -327 -47 l -302 0 "},"ῳ":{"x_min":123,"x_max":1021,"ha":1163,"o":"m 650 -289 l 609 -289 q 526 -164 526 -289 l 526 -62 l 577 -62 l 577 -173 q 629 -244 577 -244 l 650 -244 l 650 -289 m 372 -20 q 123 383 123 -20 q 204 759 123 692 l 292 759 q 189 379 189 724 q 380 34 189 34 q 545 451 545 34 l 598 451 q 762 34 598 34 q 955 379 955 34 q 852 759 955 724 l 939 759 q 1021 383 1021 692 q 768 -20 1021 -20 q 571 183 610 -20 q 372 -20 533 -20 "},",":{"x_min":158.875,"x_max":255,"ha":442,"o":"m 186 86 l 255 86 l 255 56 l 201 -161 l 158 -161 l 186 56 l 186 86 "},"∘":{"x_min":248,"x_max":621,"ha":869,"o":"m 434 568 q 339 530 377 568 q 300 435 300 491 q 339 340 300 378 q 434 302 377 302 q 529 340 490 302 q 569 435 569 379 q 529 529 569 490 q 434 568 490 568 m 434 621 q 510 605 475 621 q 565 566 540 591 q 602 517 588 543 q 621 434 621 479 q 565 303 621 358 q 434 248 510 248 q 302 303 357 248 q 248 435 248 357 q 302 567 248 511 q 434 621 357 621 "},"\"":{"x_min":157,"x_max":478,"ha":638,"o":"m 222 1012 l 222 636 l 157 636 l 157 1012 l 222 1012 m 478 1012 l 478 636 l 413 636 l 413 1012 l 478 1012 "},"Ϲ":{"x_min":115,"x_max":894,"ha":969,"o":"m 894 928 l 894 850 q 746 943 824 913 q 580 975 668 975 q 287 854 388 975 q 186 505 186 733 q 287 155 186 276 q 580 34 388 34 q 746 65 668 34 q 894 160 824 97 l 894 78 q 741 4 822 29 q 571 -20 661 -20 q 237 120 359 -20 q 115 505 115 261 q 237 889 115 749 q 571 1031 359 1031 q 742 1005 662 1031 q 894 928 823 979 "},"Ɱ":{"x_min":223,"x_max":975,"ha":1198,"o":"m 223 1013 l 317 1013 l 598 262 l 881 1013 l 975 1013 l 975 70 q 930 -171 975 -96 q 786 -247 885 -247 l 745 -247 l 745 -191 l 776 -191 q 876 -133 847 -191 q 906 70 906 -76 l 906 889 l 645 195 l 551 195 l 292 889 l 292 0 l 223 0 l 223 1013 "},"Ӳ":{"x_min":61.3125,"x_max":785.59375,"ha":846,"o":"m 61 1012 l 133 1012 l 423 330 l 713 1012 l 785 1012 l 407 122 q 314 11 373 44 q 184 -20 257 -20 l 121 -20 l 121 34 l 172 34 q 283 62 234 34 q 350 160 317 82 l 386 244 l 61 1012 m 613 1288 l 690 1288 l 536 1109 l 480 1109 l 613 1288 m 389 1288 l 466 1288 l 312 1109 l 256 1109 l 389 1288 "},"ҙ":{"x_min":123,"x_max":656,"ha":750,"o":"m 511 409 q 617 343 581 394 q 656 221 656 291 q 584 41 656 103 q 382 -20 513 -20 q 240 -4 298 -20 q 123 44 183 12 l 123 102 q 211 63 154 84 q 349 33 289 33 q 537 82 482 33 q 594 221 594 130 q 534 339 594 293 q 374 382 479 382 l 271 382 l 271 435 l 376 435 q 520 470 467 435 q 574 564 574 507 q 543 668 574 626 q 371 723 503 723 q 268 709 323 723 q 148 667 214 696 l 148 729 q 272 766 214 754 q 381 779 330 779 q 571 723 505 779 q 637 576 637 667 q 604 470 637 513 q 511 409 570 424 m 357 0 q 410 -76 392 -41 q 427 -142 427 -110 q 389 -232 427 -201 q 275 -262 350 -262 q 218 -257 245 -262 q 162 -246 190 -253 l 162 -183 q 214 -202 187 -196 q 276 -208 241 -208 q 341 -189 319 -208 q 364 -136 364 -171 q 347 -80 364 -112 q 299 0 332 -47 l 357 0 "},"ė":{"x_min":110,"x_max":749,"ha":854,"o":"m 418 1003 l 480 1003 l 480 914 l 418 914 l 418 1003 m 749 411 l 749 372 l 173 372 q 244 115 173 188 q 478 34 322 34 q 585 51 518 34 q 720 104 653 69 l 720 38 q 582 -4 652 10 q 470 -20 511 -20 q 206 75 295 -20 q 110 371 110 176 q 198 674 110 574 q 448 778 288 778 q 673 679 597 778 q 749 411 749 576 m 686 425 q 614 658 686 584 q 450 723 554 723 q 260 655 337 723 q 175 425 189 592 l 686 425 "},"ề":{"x_min":77.453125,"x_max":749,"ha":854,"o":"m 154 1198 l 287 1019 l 231 1019 l 77 1198 l 154 1198 m 407 1037 l 465 1037 l 630 857 l 576 857 l 436 971 l 295 857 l 241 857 l 407 1037 m 749 411 l 749 372 l 173 372 q 244 115 173 188 q 477 34 322 34 q 585 51 518 34 q 720 104 653 69 l 720 38 q 582 -4 652 10 q 470 -20 511 -20 q 206 75 295 -20 q 110 371 110 176 q 198 674 110 574 q 448 778 288 778 q 673 679 597 778 q 749 411 749 576 m 686 425 q 614 658 686 584 q 450 723 553 723 q 260 655 337 723 q 175 425 189 592 l 686 425 "},"ῴ":{"x_min":123,"x_max":1021,"ha":1163,"o":"m 650 -289 l 609 -289 q 526 -164 526 -289 l 526 -62 l 577 -62 l 577 -173 q 629 -244 577 -244 l 650 -244 l 650 -289 m 372 -20 q 123 383 123 -20 q 204 759 123 692 l 292 759 q 189 379 189 724 q 380 34 189 34 q 545 451 545 34 l 598 451 q 762 34 598 34 q 955 379 955 34 q 852 759 955 724 l 939 759 q 1021 383 1021 692 q 768 -20 1021 -20 q 571 183 610 -20 q 372 -20 533 -20 m 675 1111 l 761 1111 l 540 856 l 485 856 l 675 1111 "},"Í":{"x_min":131.375,"x_max":342.078125,"ha":410,"o":"m 168 1013 l 239 1013 l 239 0 l 168 0 l 168 1013 m 264 1288 l 342 1288 l 187 1109 l 131 1109 l 264 1288 "},"Ú":{"x_min":155,"x_max":861,"ha":1016,"o":"m 155 1012 l 223 1012 l 223 397 q 290 120 223 204 q 508 36 357 36 q 725 120 658 36 q 793 397 793 204 l 793 1012 l 861 1012 l 861 380 q 771 81 861 182 q 508 -20 682 -20 q 244 81 333 -20 q 155 380 155 182 l 155 1012 m 567 1288 l 644 1288 l 490 1109 l 434 1109 l 567 1288 "},"ἠ":{"x_min":157,"x_max":731,"ha":880,"o":"m 516 950 q 390 829 516 829 l 390 883 q 449 949 449 883 l 449 990 l 392 990 l 392 1120 l 516 1120 l 516 950 m 731 458 l 731 -289 l 668 -289 l 668 454 q 621 662 668 602 q 481 723 573 723 q 296 657 373 723 q 219 429 219 592 l 219 0 l 157 0 l 157 760 l 219 760 l 219 617 q 306 723 252 686 q 483 778 386 778 q 663 701 596 778 q 731 458 731 625 "},"Ẇ":{"x_min":96.5,"x_max":1243.28125,"ha":1374,"o":"m 96 1013 l 166 1013 l 397 80 l 628 1013 l 713 1013 l 942 85 l 1173 1013 l 1243 1013 l 991 0 l 894 0 l 670 902 l 447 0 l 347 0 l 96 1013 m 656 1216 l 718 1216 l 718 1129 l 656 1129 l 656 1216 "},"Ý":{"x_min":30.9375,"x_max":816.078125,"ha":849,"o":"m 30 1013 l 109 1013 l 425 546 l 738 1013 l 816 1013 l 458 482 l 458 0 l 389 0 l 389 482 l 30 1013 m 484 1288 l 561 1288 l 406 1109 l 351 1109 l 484 1288 "},"ǧ":{"x_min":112,"x_max":724.390625,"ha":834,"o":"m 662 388 q 597 633 662 546 q 417 721 533 721 q 239 633 303 721 q 175 388 175 546 q 239 144 175 231 q 417 57 303 57 q 597 144 533 57 q 662 388 662 231 m 724 94 q 634 -215 724 -142 q 405 -289 543 -289 q 281 -279 339 -289 q 168 -248 223 -269 l 168 -177 q 276 -221 223 -207 q 385 -236 330 -236 q 580 -187 499 -236 q 662 71 662 -139 l 662 190 q 585 67 634 112 q 417 -1 510 -1 q 192 101 273 -1 q 112 388 112 203 q 192 675 112 573 q 417 778 273 778 q 576 719 510 778 q 662 598 628 674 l 662 760 l 724 760 l 724 94 m 426 854 l 368 854 l 203 1109 l 257 1109 l 397 919 l 538 1109 l 592 1109 l 426 854 "},"ᚕ":{"x_min":-13,"x_max":706,"ha":693,"o":"m -13 426 l 305 426 l 136 968 l 203 968 l 346 510 l 489 968 l 556 968 l 387 426 l 706 426 l 706 370 l 390 370 l 556 -173 l 488 -173 l 346 292 l 204 -173 l 136 -173 l 302 370 l -13 370 l -13 426 "}," ":{"x_min":0,"x_max":0,"ha":1389},"ᾶ":{"x_min":111,"x_max":827,"ha":915,"o":"m 418 944 l 380 981 q 353 1001 370 990 q 333 1008 342 1008 q 295 983 307 1008 q 283 903 283 958 l 218 903 q 247 1022 218 980 q 329 1065 277 1065 q 377 1055 355 1065 q 424 1023 402 1044 l 462 986 q 489 966 472 977 q 509 960 500 960 q 547 984 535 960 q 560 1065 560 1009 l 622 1065 q 593 948 622 993 q 513 903 564 903 q 465 912 487 903 q 418 944 440 923 m 595 353 l 561 531 q 387 724 524 724 q 233 639 288 724 q 173 381 173 543 q 232 120 173 203 q 386 34 291 34 q 548 204 493 34 l 595 353 m 392 777 q 637 475 602 777 l 732 760 l 797 760 l 658 348 l 686 199 q 728 77 703 107 q 785 54 748 54 l 827 54 l 827 0 l 774 0 q 667 55 707 0 q 616 225 647 82 q 513 35 590 116 q 392 -16 465 -16 q 182 85 250 -16 q 111 379 111 191 q 201 687 111 565 q 392 777 268 777 "},"​":{"x_min":0,"x_max":0,"ha":0}}}
